<?xml version="1.0" standalone="no"?>
<!DOCTYPE svg PUBLIC "-//W3C//DTD SVG 1.1//EN" "http://www.w3.org/Graphics/SVG/1.1/DTD/svg11.dtd" >
<svg xmlns="http://www.w3.org/2000/svg">
<metadata></metadata>
<defs>
<font id="pastasregular" horiz-adv-x="1101" >
<font-face units-per-em="2048" ascent="1638" descent="-410" />
<missing-glyph horiz-adv-x="1024" />
<glyph horiz-adv-x="2048" />
<glyph horiz-adv-x="2048" />
<glyph unicode="&#xd;" horiz-adv-x="2048" />
<glyph unicode=" "  horiz-adv-x="1024" />
<glyph unicode="&#x09;" horiz-adv-x="1024" />
<glyph unicode="&#xa0;" horiz-adv-x="1024" />
<glyph unicode="!" horiz-adv-x="737" d="M690 1221q0 8 -3 33.5t-3 33.5v10q0 1 -3.5 6.5t-8 14t-8.5 18.5q-10 24 -25 33q-16 12 -36 27.5t-33.5 26t-22.5 16.5q-79 67 -119 82q-43 16 -135 16q-159 0 -207 -25q0 -28 10 -106q13 -76 13 -102q4 -74 4 -203q0 -484 -4 -684l229 -217h94q47 -2 96 -2t115 4 q0 552 35 891zM637 8q-121 84 -133 92q-94 64 -139 64q-18 0 -76 10q-53 12 -76 12q-22 0 -57 -41v-247q50 -43 101 -87.5t68.5 -59.5t16.5 -15l171 2h-3q23 -2 53.5 -6t32.5 -4q25 48 25 143q0 91 16 137zM629 1321q-18 -8 -35 -12l-14 16q-16 -16 -31 -16q-13 0 -64 12 t-65 12q-47 0 -135 64q-128 93 -129 94q14 -14 34 -14q9 0 9 2l-2 10q12 0 61.5 6t65.5 6q69 0 159 -69q145 -110 146 -111zM643 1141q0 -33 -4 -103q-33 -370 -33 -792q-136 -4 -145 -4q-42 0 -82 4v1026q68 8 108 8q90 0 148 -10q8 -52 8 -129zM346 1290l-18 -1028 q-5 9 -97 78q-58 46 -73 96q-25 77 -25 244q0 10 4 96t4 94q0 518 89 518q11 0 24 -8q71 -50 92 -90zM575 -2q-37 12 -75 12q-67 0 -154 37q-101 41 -121 92h39q6 0 24 -6l17 -6q162 -27 270 -129zM582 -43q0 -123 -9 -190q-150 14 -194 16q-10 65 -10 137q0 51 2 74 q79 -8 211 -37zM330 -203q-28 24 -55 48t-37 33t-11 9q-34 43 -34 127q0 44 12 88q91 -81 125 -108v-197zM119 1489v-1051l237 -207l27 1065zM186 129l-6 -213l172 -158l-6 242z" />
<glyph unicode="&#x22;" horiz-adv-x="1038" d="M989 1343q0 41 -78 113q-67 60 -100 72q-27 12 -166 12q-7 0 -24 7t-21 7q-12 0 -25.5 -12.5t-13.5 -25.5q0 -12 8 -72q9 -68 9 -101q0 -9 2 -46t2 -46q0 -3 0.5 -12.5t1.5 -28t2 -36.5q16 -9 149 -107q94 -70 105 -70q5 0 34.5 3.5t34.5 3.5q32 0 41 47q2 25 6 71 q33 149 33 221zM522 1028v326q0 22 -10 39q-51 60 -115 112l-59 47q-152 47 -236 47q-8 0 -29 -4t-24 -4v-32q0 -5 8.5 -31.5t8.5 -30.5q0 -237 2 -237l260 -232q11 0 32 12q6 1 19.5 -2.5t17.5 -3.5q25 0 109 -20q0 14 16 14zM889 1405q-15 -6 -33 -6q-65 0 -180 100 q150 -3 213 -94zM936 1268q0 -10 -12 -86q-17 -101 -19 -123q-3 -8 -18 -8q-31 0 -43 24q0 227 8 279q31 9 84 -6v-80zM813 1362q-15 -210 -18 -289q-1 1 -10.5 7.5t-35.5 24.5t-49 34q-58 40 -67 67q-19 52 -19 230q0 24 2 34q29 -6 97 -57q68 -48 100 -51zM453 1380 q0 -2 -25 -2q-59 0 -102 19q-65 29 -168 147q221 -47 295 -164zM477 1165q0 -47 -10 -92q-63 17 -119 17q-6 59 -6 186l-2 7q-3 7 -5.5 16.5t-2.5 15.5v33q2 0 16.5 4t22.5 4q80 0 96 -29l10 -163v1zM301 1112q-100 66 -190 170v234q121 -100 190 -154v-250zM86 1567 l-18 -307l249 -195l15 283zM600 1526l-14 -352l233 -127l33 307z" />
<glyph unicode="#" horiz-adv-x="1628" d="M1577 143v54q3 8 -12 65q-12 53 -17 86q13 20 13 37q-102 71 -234 147q-10 23 -10 70q0 44 6 53q109 -16 145 -16q8 0 29 18v60q0 11 12 90q13 86 13 90q0 44 -92 94q-18 9 -55 26.5t-56 26.5q-3 141 4 203q-90 106 -195 168q-40 26 -75 53q-82 11 -222 11q-17 0 -28 -11 v-73q0 -1 4 -5t4 -8q0 -12 -20 -32q-39 34 -93 79.5t-69 59.5q-34 4 -101 18q-70 13 -73 13h-156v-33q1 -21 3 -65.5t3 -65.5q3 -77 -14 -129q-92 -10 -96 -10q-111 -3 -125 -17q16 -85 16 -182q2 -57 2 -170q132 -108 283 -182q-3 -30 -8.5 -68.5t-6.5 -48.5h-213v-1 q0 -1 -0.5 -4.5t-1 -8t-1 -11.5t-1 -15t-1.5 -18t-1 -20q-2 -39 -2 -147q38 -35 117 -62q90 -26 141 -53q0 -50 -4 -90q52 -41 139 -84q10 -4 136 -60q1 -1 28 -18q20 -10 29 -10q1 0 10 0.5t27.5 1.5t38.5 2q94 4 102 4q35 136 41 195q52 -23 190 -132q44 -34 117 -96 q101 0 133 0.5t25 1.5q4 3 18 17q-13 101 -10 202h164zM1264 1243l-23 -8q-7 0 -11 3t-6 6l-1 3q-57 3 -152 68q-114 77 -162 112q5 0 32 5.5t34 5.5q59 0 139 -56q119 -97 125 -102q1 -3 3 -10t3 -10q7 -17 19 -17zM1464 907q-44 -3 -80 2q-46 9 -51 9q-22 0 -39 -17v105 q127 -47 170 -99zM1112 1241q-8 -52 -8 -209q-47 25 -110 58.5t-74 39.5q0 6 6 44q5 31 -2 45.5t-43 50.5q-37 40 -37 47q0 3 5 43t5 53q256 -170 258 -172zM1073 993q-7 0 -42.5 -6t-43.5 -6q-69 0 -69 39v59q97 -48 155 -86zM836 1266q-52 10 -78 10q-59 0 -76 10 q-150 104 -279 184h84q81 6 136 -26q38 -20 112 -88q98 -88 101 -90zM1489 381q-93 10 -162 14q0 57 -8 88q47 -14 170 -102zM680 1235v-12q-1 -12 -2 -38.5t-2 -58.5q-4 -144 -4 -159q-72 30 -111 59q-74 60 -123 109q-100 66 -100 104l2 17q3 38 6 69q5 75 2 121 q49 -17 193 -109q139 -89 139 -102zM1520 182q-77 15 -154 2v-213h-96q0 56 2 103q4 98 4 112q-12 10 -21 19q-66 -4 -125 -2q-8 0 -196 4q-27 0 -47 -23q8 -66 -21 -188q-72 3 -118 0q-13 44 -13 84q0 3 4 61q6 47 6 54q0 11 -16 23.5t-29 12.5q-7 0 -39.5 -8t-39.5 -8 q-13 0 -54 8q-48 10 -63 10q-6 5 -15.5 13.5t-11.5 11.5q0 4 4 40.5t4 45.5q8 2 195 2q49 0 49 21q0 7 -6 47q-4 54 -4 57v211q-6 6 -27 20q-5 0 -20 1t-48 2.5t-61 3.5q-89 6 -133 4v186q21 -6 92 -6q6 0 72 16q70 17 72 17l51 -11q7 7 10 15q-15 120 -12 303q82 0 162 -25 q-2 9 -3 -44v-93q0 -139 68 -139q8 0 66 12t69 12q5 0 23 -4t26 -4q12 0 25 23q-8 21 -8 47q0 97 12 199q1 0 4.5 2.5t10 5t12.5 2.5q26 0 84 -43q2 -59 -11 -158q-12 -95 -12 -108q0 -41 29 -41h139q16 0 27 -11q10 -10 10 -168q-36 -11 -174 -2l2 -163v-158q29 -29 53 -29 q2 0 6 0.5t11.5 1.5t13.5 2q19 3 29 0q37 -11 34 -12q7 0 14.5 8t14.5 8q32 0 53 -41q17 -40 15 -69v-62zM584 952q-34 -12 -95 -12q-4 0 -20 -4t-25 -4q-7 0 -29 8t-30 8q-12 0 -242 236h168zM1227 156l-10 -144q-146 101 -201 144h104h107zM371 864q-1 -111 -11 -143 q-52 6 -131 55q-81 56 -94 96q-17 51 -8 172v84q187 -176 231 -215q5 -29 13 -49zM672 428q-26 12 -76.5 33t-75.5 33q-117 56 -117 100q0 30 27 65q108 5 182 5q63 0 60 -76v-160zM633 397q-14 -2 -45 -2q-152 0 -346 111q11 3 20 0q32 4 53 4q81 0 166 -39 q25 -13 75.5 -37.5t76.5 -36.5zM426 256h-25q-26 0 -217 84v143q180 -109 242 -106v-121zM688 12q-59 29 -250 123v64q147 -21 242 -27q-2 -32 8 -160zM1161 618v44q-100 21 -229 30q-31 24 -45 21q-3 -3 -6 -154q0 -147 -4 -151q3 -3 9 -18.5t9 -18.5h258q-8 52 -8 94 q0 19 8 71.5t8 81.5zM1112 561q0 -3 -0.5 -9.5t-1.5 -18.5t-2 -23q-4 -54 -4 -57q-99 48 -176 82v137q17 -26 71 -29q99 -3 113 -6v-76zM1073 414h-69q-31 -2 -68 -2v63q76 -23 137 -61zM330 1489l-15 -270l381 -301l2 344zM96 1167l21 -317l293 -193l-21 246zM385 690 l4 -141l309 -176l-20 289zM158 506l2 -184l305 -105l-4 145zM414 213v-90l307 -160l4 225zM834 1442l-19 -123l84 -94l35 -138l178 -96l33 252zM909 684l15 -168l202 -96l15 217zM928 184l313 -231l12 231h-325z" />
<glyph unicode="$" horiz-adv-x="1067" d="M1014 963q-2 30 -10 182q-3 21 -58 57q-77 50 -104 66q4 87 2 106q-2 2 -6 11.5t-4 13.5q-22 0 -31 -6q-73 61 -96 75q-16 11 -46 32.5t-45 33.5q-55 40 -92 55q-46 18 -123 21q-25 1 -47.5 1.5t-37.5 1t-26.5 1t-17.5 0.5h-6q-3 -9 0 -49q4 -62 4 -70q0 -96 -34 -96 q-2 0 -10 0.5t-23.5 1.5t-32.5 2q-16 1 -31 2t-23 1.5t-10 0.5q-45 0 -45 -33q0 -8 5.5 -24t5.5 -19q0 -24 10 -91t10 -93q0 -33 -6 -76q1 8 1.5 -3.5t0.5 -76.5q0 -82 6 -88q46 -52 115 -100q73 -49 125 -86q4 -24 4 -29q13 -11 35 -26v-58l-4 -6q-19 8 -45 8q-9 0 -129 10 q-132 11 -160 11q18 -89 18 -90q4 -118 4 -138q37 -54 133 -114q40 -25 78.5 -49.5t55 -34.5t18.5 -11q7 -30 -2 -122q28 -39 119 -91q92 -51 127 -92q15 15 35 15h57h76v69q0 6 -7.5 44.5t-7.5 52.5q0 23 13 36q150 -9 211 0l8 637q-16 76 -17 90l-4 -1q-4 -2 -10 -3.5 t-12 -1.5q-14 0 -123 56q-113 63 -129 75l133 7q184 -21 188 -21q16 20 17 23zM913 1163q-62 0 -77 6v50l18 -15q34 -20 59 -41zM725 1391q-1 1 -8.5 -1t-17 -4t-13.5 -2q-21 0 -151 74q-125 73 -185 113q9 -3 86 -6q53 -3 78 -17q173 -123 211 -157zM625 1370 q0 -6 -0.5 -17t-1.5 -31t-2 -36q-1 -18 -3 -48t-2 -40q-156 92 -307 211q0 3 -4 21t-4 24q0 2 0.5 7l1.5 15t2 21q4 50 4 53q152 -103 316 -180zM516 1204q-14 -14 -24 -14q-107 0 -187 59q-53 39 -155 121h131q21 0 235 -166zM811 829q8 1 -4 1q-18 1 -160 1q0 37 -6 93 q89 -39 170 -95zM971 1096q0 -2 -0.5 -8t-1.5 -18.5t-2 -25.5q-4 -58 -4 -63q-52 14 -105 14h-211q-5 0 -7 1.5t-1.5 3t-1 3t-4.5 1.5q-10 0 -31 -21v-170q8 -8 11 -11.5t6.5 -5.5t4 -2t5 0.5t8.5 0.5q51 0 123 -2h160v-648h-168q-38 0 -50 -12v-196h-98q0 14 6 122 q6 78 -2 109q-21 18 -92 18q-72 0 -106 17v82v90q339 -35 356 -35q25 0 25 33q0 -1 -1 11t-3 39.5t-5 65.5q-8 109 -8 185q-21 18 -63 18q-5 0 -21.5 -3t-21.5 -3t-28 9.5t-28 9.5q-163 10 -225 10v444q17 10 62 10q5 0 31 -10t34 -10q134 -9 135 -10q3 4 7 8.5t6.5 7 t3.5 4.5q-19 74 -4 180q97 15 126 17q20 -20 11 -90q-3 -44 -6 -66q-2 -4 -2 -24q0 -52 43 -52q78 0 118 -6q1 2 5 5l4 3q7 0 10 -30zM350 934l-8 -168q-67 38 -205 152q0 1 -4 124q-4 106 -4 115q0 26 -8 78q-9 59 -6 68v38q48 -37 121 -92.5t98 -74.5q11 -197 16 -240z M745 406q-1 0 -12.5 2t-22.5 4.5t-24.5 6.5t-21.5 9q-256 173 -256 188q0 5 4 24t4 24q3 0 36.5 -2.5t112.5 -8.5t166 -12q-3 -143 14 -235zM676 389q-115 8 -189 8q-40 0 -182 86q-25 16 -77.5 49t-77.5 50h16.5t15 -0.5t12.5 -1t10.5 -1t7.5 -1t4 -0.5h1q16 2 47 2 q91 0 170 -39q54 -26 127 -82q74 -53 115 -70zM379 373q0 -2 -0.5 -9t-1.5 -22t-2 -31q-4 -74 -4 -80l-142 86q-137 88 -137 136v110q248 -148 270 -162q17 -10 17 -28zM573 -43q-37 14 -116 68q-78 54 -78 65q0 4 4 32t4 36q42 -3 101 -8.5t77 -6.5q0 -43 2 -92zM281 1597 l-5 -208l359 -226l18 201zM92 1380l17 -465l260 -221v480zM395 686l8 -92l369 -232l-10 283zM74 602l-17 -203l316 -211l26 218zM358 174l7 -102l227 -158v236z" />
<glyph unicode="%" horiz-adv-x="1640" d="M1608 688q-9 49 -90 109q-20 13 -60 39.5t-59 40.5q-86 75 -115 102q-95 39 -248 39q-95 0 -164 -14v126q2 59 13 170q-136 111 -215 183q-21 3 -68 6l-26 2l-19.5 1.5t-9.5 0.5q-7 0 -90 18q-83 21 -92 21q-43 0 -64 -27v-329q83 -93 121 -144q-15 -12 -33 -12h-323 q-17 -49 -17 -127q0 -2 0.5 -10t1.5 -22.5t2 -29.5q4 -70 4 -77q61 -55 191 -142q92 -63 100 -63q63 -8 109 -8q20 -2 52.5 -6t88.5 -11t100 -12q159 -18 164 -18h281q11 0 51 -9q36 -8 49 -8q2 0 19.5 -0.5t55 -1.5t79.5 -2t79 -2t54.5 -1.5t19.5 -0.5q41 0 56 18 q1 -3 1.5 39t0.5 162zM1485 256q0 1 -0.5 5t-1.5 13.5t-2 20.5q-3 28 0 43q-113 104 -160 113q-73 15 -201 18q-154 3 -192 8v-22l-13 8q-6 0 -11.5 -4.5t-8.5 -8.5t-4 -4q-10 -105 -10 -221q0 -2 0.5 -12l1.5 -30t2 -42q6 -83 6 -121q39 -17 180 -116q-3 0 156 6 q218 4 241 4q0 67 9 205q8 123 8 137zM782 1327q-8 0 -43 6q-31 8 -41 8q-92 0 -172 17q-40 9 -155 127q68 -20 102 -25q7 -1 94 -8q58 -3 90 -14q89 -69 125 -111zM836 930q-59 -17 -76 -17q-22 0 -45 2q-10 1 -19.5 2t-15.5 2t-8 1l-113 39l-1 1h-1h-1l-1 1h-1h-1l-1 1h-1 h-1l-1 1h-1h-1l-1 1h-1h-1l-1 1h-1h-1l-1 1h-1h-1l-1 1h-1h-1l-1 1h-1h-1l-1 1h-1v331q17 17 35 17l271 -39v-348zM1530 731q-83 14 -203 14q-3 0 -23.5 2t-74.5 7t-105 10q-194 18 -202 18h-21h-1h-5.5h-10h-13.5h-17.5t-22 0.5t-26 0.5t-30.5 0.5t-34 0.5h-223 q-64 0 -168 19q-50 9 -131 74l-117 104h373q18 -43 23 -43q56 -27 127 -45q78 -19 92 -19q8 0 14 9l17 -17q24 8 88 8q35 0 38 31v60q156 12 187 12q108 0 192 -37q53 -21 136 -92q121 -103 141 -117zM489 1028q-38 16 -57 41q-75 97 -82 125q-4 12 -4 86q0 1 0.5 8 t1.5 22.5t2 32.5q6 61 6 89q94 -78 133 -109v-295zM1561 516q-53 -6 -103 -6q-26 0 -166 10q-123 12 -231 12q-187 0 -707 62q0 31 -6 166q334 -12 506 -12q39 -3 139 -15q102 -12 107 -12q216 0 289 -31l14 17q127 -20 158 -41v-150zM1339 389q-61 0 -110 -2q-47 -2 -76 -2 q-71 0 -172 43q28 -5 182 -8q115 -3 176 -31zM1446 213q-2 -34 -8 -102q-8 -91 -8 -152q-16 0 -142 -4q-28 -1 -52 -2t-35 -1l-11 -1q-78 0 -109 8q-16 226 -16 297q0 98 88 98q89 0 277 -30q16 -62 16 -111zM1034 168q0 -46 -18 -172q-52 39 -92 63q-13 177 -13 197 q0 41 19 152q44 -24 102 -39q-5 -46 -16 -95q-12 -59 -12 -67q0 -5 15 -18t15 -21zM315 647q-10 -10 -10 -24q-21 14 -63.5 41.5t-63.5 40.5q-92 65 -92 116q0 20 18 99q50 -50 197 -154q12 -114 14 -119zM803 1241q-64 0 -189 23q9 -27 9 -41q-29 -82 -9 -262q12 0 39 -3 h35q7 0 42 -7t40 -7q32 0 35 60q-2 -32 -3 -2l-1 75q0 41 2 82q3 52 0 82zM1370 6v223q0 1 -6 24.5t-2 31.5q-27 10 -41 10q-66 0 -145 8q-14 14 -25 14q-25 -28 -25 -34q0 1 1.5 -1t3.5 -8t4 -15t3.5 -25t0.5 -35q-3 -35 0 -97q1 -20 2 -43.5t1.5 -36t0.5 -18.5 q209 -14 219 -14q0 8 8 16zM766 1194q-8 -117 -8 -205q-11 3 -53.5 8.5t-51.5 8.5q-14 28 -14 73q0 23 6 70t6 68q66 -3 78 -7q21 -7 37 -16zM1325 160l-4 -56q-2 -35 2 -69q-91 8 -143 8q-12 111 0 219q19 8 80 8q51 0 63 -39q2 -6 2 -71zM330 1487l-17 -279l187 -231 l16 350zM907 434l-8 -385l152 -92l28 410zM74 969l-4 -183l268 -211l-12 199z" />
<glyph unicode="&#x26;" horiz-adv-x="1550" d="M1499 -23q0 69 -10 99q-9 21 -31 37q-29 16 -82 47.5t-73 42.5q-2 1 -14 7.5t-15.5 8.5t-14.5 8t-15.5 8.5t-14.5 8.5t-14.5 9.5t-12.5 9t-12.5 10t-9.5 10t-9 10.5q-9 12 -6 31l4 28q0 4 3.5 30t3.5 34h170l55 -6q46 -3 67 0q14 169 31 266q-124 75 -166 104 q-46 19 -112 51q-35 18 -35 68l-2 340q-100 79 -170 131q-128 96 -201 96q-9 0 -40 -4t-34 -4q-7 0 -43 6t-41 6h-209q-12 0 -48.5 -2t-43.5 -2q-13 0 -49.5 11.5t-38.5 11.5h-18q-119 0 -160 -12l-12 10v-53q0 -4 18 -121q22 -118 19 -152q-2 -25 -2 -88q0 -86 16 -371 t16 -378q0 -84 -6 -140q80 -58 203 -184q102 -102 117 -102q3 0 104 16q88 14 103 14q119 0 524 -32q5 0 26.5 -6.5t26.5 -6.5q-15 0 105 -6q100 -3 145 0q0 15 4 56.5t4 43.5zM1380 688q-70 12 -192 -2q9 64 -2 119q115 -47 194 -117zM1087 1257q-206 -16 -253 -16 q-3 0 -19.5 1t-56.5 4t-80 5q-40 3 -78.5 6.5t-54.5 5t-19 1.5q-1 0 -26 2.5t-31 1.5q-48 -10 -45 -12q0 -1 4 -1q-20 0 -141 86q-90 66 -137 99l612 -13q77 0 153 -43q65 -38 172 -127zM1454 -61q-6 -25 -47 -25q-18 0 -70 8q-59 6 -67 6h-80q-7 0 -40 7.5t-40 7.5 q-16 0 -68 8q-49 8 -65 8h-496l-53 1061q0 144 16 194q36 19 84 19q3 0 20 -1.5t61 -6t85 -8.5q156 -15 164 -15q3 0 13.5 1t36.5 4t50 5q102 13 103 13q36 0 76 -19q16 -166 16 -321q0 -7 0.5 -34l1.5 -81t2 -111q5 -7 19 -18q41 14 186 14q3 0 36 -8t42 -8l-4 -59 q-1 -12 -2 -43l-4 -78l8 -13q-86 9 -308 9v-402q229 -8 308 -8l16 8v-114zM1417 92h-239q0 9 -4.5 36.5t-4.5 31.5v43q3 10 21 14zM434 -27q-201 189 -252 234q-16 266 -16 411q0 17 -8 105q-8 91 -8 111v163l-13 400q26 -16 230 -146q30 -21 30 -51v-420l37 -532v-275z M997 700q0 12 -12 27q4 62 4 127v211q0 6 -3.5 12t-7 9t-3.5 4q-47 0 -107 8q-57 8 -69 8q-1 0 -99 10q-89 12 -96 12q-41 0 -41 -28v-428q237 -47 340 -47q57 0 84 24zM975 344q-7 22 -17 90q-212 34 -196 35q-130 0 -141 -8q-29 -16 -29 -117q0 -9 8 -25.5t8 -19.5v-233 q31 -28 88 -31h88q30 0 95 -12q17 -3 35.5 -6.5t25.5 -5t8 -1.5q8 0 27 19q-9 306 0 315zM950 745l-356 234v94q15 12 61 12q9 0 42 -7.5t40 -8.5l105 -6q74 -6 104 -27q7 -31 4 -90v-201zM936 678q-77 -6 -172 4q-145 19 -148 20l-24 205l12 19l332 -228v-20zM922 408 q12 -138 0 -285q-147 75 -277 196v87q16 19 25 22q147 -3 252 -20zM922 57q-225 23 -252 23q-25 22 -25 80q0 15 0.5 29.5t0.5 24.5t0.5 20t0.5 15v10v5zM115 1442l30 -1221l306 -278l-23 1312zM586 1106l-6 -154l389 -260l-2 365zM631 434l8 -135l315 -221l-6 336z" />
<glyph unicode="'" horiz-adv-x="806" d="M743 831v582q-24 19 -145 143q-85 88 -154 125q-68 36 -194 62q-142 29 -207 29q-9 0 -21.5 -6.5t-13.5 -6.5v-37l21 -18q-43 -21 -43 -43q0 -18 11 -79.5t11 -78.5v-272l400 -379q11 1 21.5 2.5t18.5 2.5t15 1.5t11.5 1.5t7.5 1.5t4 0.5h1q17 0 256 -31zM612 1462 l-57 -14q-11 20 -25 20q-9 0 -42 -11t-42 -11q-33 0 -188 110q-117 83 -199 140h39q54 0 166 -25q109 -24 158 -51q33 -17 96 -80q53 -53 94 -78zM680 885q-84 12 -199 53q-3 53 -12 156q-12 102 -12 157v146q58 -5 223 -2v-510zM424 936q-297 210 -350 326q-19 40 -19 110 q0 68 2 121t2 119q37 -3 123 -64q20 -16 58 -45t57 -45q30 -18 55 -31q46 -24 58 -36q-3 -29 4 -86q10 -68 10 -84v-285zM39 1638l-31 -407l438 -340v555z" />
<glyph unicode="(" horiz-adv-x="925" d="M862 164q-37 21 -55 18q-121 96 -186 154q2 74 5.5 168t5.5 156.5t3 103.5l-8 426q42 19 104 16q68 0 105 11v22q-23 135 -25 188q-121 56 -170 99q-95 88 -154 147q-46 17 -112 17q-37 0 -109 -7l-55 -6q-5 0 -27.5 6.5t-27.5 6.5h-78q-8 -39 -8 -64l55 -442v-158 q0 -3 -6 -38.5t-6 -45.5q0 -84 2 -147v-142q0 -31 -9 -200q-6 -137 0 -152q42 -98 168 -233q115 -121 129 -121q3 0 9 0.5l18 1.5t23 2q27 2 47 2l8 8h53h51q41 3 136 -12q93 -15 88 -17q9 0 26 17v215zM705 1438q-9 0 -95 -4q-19 -1 -35.5 -2t-24.5 -2h-7q-99 0 -148 24 q-36 19 -221 164q-18 14 -29 37q9 -1 162 2q97 3 158 -17q43 -14 117 -88q82 -83 123 -114zM821 143q-3 -159 -2 -161q-37 3 -94 12q-41 8 -55 8q-152 0 -205 -6q0 65 -6 197t-6 184q0 279 -13 606q0 7 -3 68t-7 114q-8 109 -8 129q0 22 14 99q53 0 137 8q88 8 101 8 q20 0 98 -16q6 -47 6 -156h-178q-11 -31 -14 -74v-999q16 -19 53 -19q172 0 182 -2zM414 -4q-134 110 -273 326q-1 5 1.5 23t2.5 20l15 815l-47 442q227 -165 284 -217q-14 -145 -16 -135l33 -596v-678zM745 184q-12 0 -57.5 2t-58.5 2q0 38 -6 103q92 -88 122 -107z M98 1638l6 -1310l310 -332l-17 1409z" />
<glyph unicode=")" horiz-adv-x="872" d="M793 1442q-56 30 -132.5 69.5t-95.5 49.5q-122 79 -125 79q-178 25 -229 31q-8 1 -43.5 14t-40.5 13h-49q0 -13 -21 -31q25 -77 25 -131l-6 -35q-3 -21 4 -28q153 -134 237 -195q14 -33 11 -53q9 -7 16 -17t10.5 -24t5.5 -23.5t4 -28t3 -24.5l6 -424q0 -245 -8 -326 q-3 -32 -43 -32q-5 0 -28 -7.5t-28 -7.5q-56 0 -139 15l-16 -17q3 -126 -7 -229q123 -105 244 -172q2 -2 70 -2l340 8q0 65 -2 145q0 109 2 146q3 151 22 256zM684 1452h-14q-8 -2 -23 -2q-327 0 -383 96q-51 47 -76 60q-14 10 -37 26.5t-32 22.5q133 -17 123 -19 q129 0 233 -61zM326 1343q-11 -11 -11 -18q-23 17 -68 53.5t-67 53.5q-67 52 -67 112v70q95 -59 202 -160q3 -74 11 -111zM752 1415q12 -83 12 -198q0 -90 -8 -283q-7 -204 -11 -459q-3 -44 -10 -76q-10 -385 -10 -450q-194 -11 -344 -8q-14 57 -14 110q0 49 8 68h55 q11 0 51 -15q43 -12 51 -12q5 0 11 3t10 3l27 701v432q-10 13 -19 16q-15 0 -92 6q-64 7 -94 4q0 8 -14.5 38.5t-14.5 33.5q0 52 23 113q53 -12 98 -12q5 0 24 -5.5t23 -5.5q102 -4 238 -4zM539 680q-15 -56 -15 -88v-242v-9q-1 -9 -2 -27.5t-2 -39.5q-4 -94 -4 -106 q-110 84 -121 127q-6 27 -6 61q0 42 8 99q11 83 11 96q2 50 -2 229l-5 135v234q0 16 -14 65h143zM477 150q-34 0 -69 2t-60 2q-7 0 -65 49q-23 19 -44 36.5t-35.5 29t-17.5 14.5q6 0 72 4q14 1 27 2t19 1.5t7 0.5q49 0 82 -45q69 -86 84 -96zM338 -39q-31 16 -102 64 q-97 66 -97 84q0 108 23 141q26 -13 90 -64q69 -52 78 -65q2 -65 8 -135v-25zM82 1657l18 -178l240 -193v178zM354 1231l4 -928l183 -174l24 1083zM137 291l-14 -207l244 -166l-13 199z" />
<glyph unicode="*" horiz-adv-x="1509" d="M1462 434v39q0 29 -8 78t-8 84q0 37 8 61q-9 6 -59 41q-110 85 -142 121q-3 63 4 105q-6 4 -20.5 15.5t-41 33t-52.5 41.5q-73 58 -107 98q-14 48 -10 82q-18 19 -52 57t-52 58q-67 67 -119 88q-71 30 -166 30q-8 0 -86 -4q-37 -2 -80 -2v-22q-3 -104 -6 -119 q-99 0 -113 -2q-17 -10 -22 -10t-5.5 7t-5.5 7q-49 0 -92 -55q6 -30 6 -66q0 -44 -12 -117q-22 -146 -22 -147q-47 8 -88 8q-53 0 -68 -35q28 -171 31 -250q144 -119 168 -153q-11 -18 -11 -35q0 -45 68 -104q37 -26 98 -72l4 -117q30 -15 181 -112q106 -69 176 -105 q4 -4 47 -4q14 0 55 8q46 6 58 6q33 0 79 -14l25 25v86q0 79 51 79l76 -7l51 -3l10 10v89q0 111 4 165q7 13 23 23q126 -12 156 -12q-5 0 18 7zM1155 997q-76 15 -78 17q-42 16 -39 69q68 -43 117 -86zM952 1245q-53 6 -164 6q-5 0 -241 172q137 15 250 -28q24 -8 75 -62 q52 -56 80 -88zM1343 721q-37 18 -81 12q-17 17 -17 29q0 5 5 21t5 20l39 -39q28 -22 49 -43zM741 1206q0 -2 -0.5 -8t-1.5 -19l-2 -26q-4 -62 -4 -66q-71 90 -178 181q-57 45 -57 112q0 14 10 31q70 -56 125 -96q108 -85 108 -109zM727 1028q-47 -8 -125 -8q-33 0 -172 115 q-23 19 -70 58.5t-71 59.5l22 23q27 0 74 8t59 8q36 0 117 -69q70 -58 94 -88q64 -79 72 -107zM1419 455q-95 -8 -231 -2q-6 -3 -10 -11q-11 -165 -11 -260q-24 -3 -77 0l-62 6q-27 0 -45 -75q-13 -65 -10 -105q-39 -8 -129 -8l-45 -6q-14 115 -11 176q-15 27 -143 27 q-29 130 -14 196q-15 15 -19 17q-42 2 -89.5 4.5t-68 3.5t-26.5 2q0 10 -4 50t-4 44q0 1 0.5 8.5t1.5 22t2 30.5q3 56 6 80q14 11 21 13q12 2 81 2l37 -20l2 -1q18 15 21 25q-8 39 -8 61q0 5 6 21t6 24v172q0 22 22 31q75 -8 154 2q12 132 6 215q75 21 70 23q-3 0 11.5 -2.5 t50.5 -8.5t83 -12q9 -84 0 -205q-3 -30 25 -30q5 0 31.5 3t31.5 3t22.5 -7.5t22.5 -7.5q60 0 84 -8q0 -197 -8 -237q32 -19 58 -19q5 0 44 -7t44 -7h26q10 -2 25 -2q6 -56 11 -105t7 -68t2 -18v-30zM565 954q0 -10 -2 -36t-2 -27q0 -3 -6 -68q-4 -82 -4 -90 q-59 39 -117.5 78t-112.5 76t-75 51q0 74 30 285q72 -55 154 -121q80 -59 127 -119q5 -7 8 -29zM518 705q-14 -7 -35 -7q-55 0 -73 11q-191 131 -275 204h43q40 3 184 -96q13 -10 69.5 -49.5t86.5 -62.5zM399 649q0 -12 -8 -80q-6 -77 -6 -114q-206 108 -276 239 q-21 35 -15 121v78q147 -105 303 -225q2 -4 2 -19zM594 231q-52 32 -129 72q-95 49 -141 84q-13 12 -31.5 37t-18.5 35v22q20 -12 84 -65q48 -39 60 -39q5 0 17.5 7t17.5 7t22.5 -7t22.5 -7h82q12 -114 14 -146zM748 14l-320 191l8 74q35 -19 94 -62q60 -41 91 -55 q12 -4 57 -4q47 0 70 -13v-131zM496 1440l-9 -131l275 -291l16 207zM250 1266l-29 -338l334 -244l37 307zM70 920l8 -240l330 -277l16 277zM420 303v-119l358 -202l-12 190z" />
<glyph unicode="+" horiz-adv-x="1302" d="M1257 477v23q3 71 -16 225q-58 40 -149 109q-144 94 -166 131q-11 22 -11 45l15 90l-111 123q-63 72 -121 94q-64 22 -301 22q-10 0 -28 -12l-14 -8t-10.5 -5.5t-4.5 -2.5q3 -35 0 -340h-57q-11 3 -107 18q-99 19 -106 17l-9 -15v-96q0 -2 1 -13t2.5 -36.5t3.5 -52.5 q4 -37 7 -81.5t3 -47.5q174 -104 252 -185q5 -5 15 -12t13 -10q16 -96 19 -144q41 -59 125 -137q74 -68 104 -86q17 -10 41 -10q12 0 51 6t47 6q127 -9 173 -24v131v233q0 27 2 29t69 2q9 0 55 6q47 6 56 6q153 0 157 2zM1143 750q-95 11 -203 20v127q107 -81 203 -147z M864 1110q-64 0 -119 -2h-120l-230 188q113 0 170 -2q78 -2 119.5 -19.5t95.5 -72.5q28 -32 84 -92zM592 803q-23 10 -115 82q-110 82 -110 114q0 58 16 258q22 -15 60 -40t53 -35q65 -47 86 -97q18 -41 18 -120l-2 -32q-3 -55 -6 -99v-31zM1210 504l-63 6q-17 0 -82 -8 q-73 -6 -82 -6l-96 -1q0 -1 2 -1q-8 -3 -15 -23q1 -20 3.5 -60t3.5 -59q2 -59 2 -243q-140 17 -248 14q-11 75 -8 145v183q-18 12 -56 12q-5 0 -21 -4t-24 -4q-5 0 -3 7t-3 7q-81 0 -125 8q0 48 -8 121q-6 83 -6 86v35q2 2 86 2q6 0 8 4.5t4 5.5q8 2 68 2h108q0 7 -6 101 q-3 100 -6 155q0 4 -5 20t-5 21v43l264 -2q-17 -10 -14 -45q3 -24 6 -51q0 -2 4 -64q6 -47 6 -71v-47q0 -56 16 -72q27 6 95 6q1 0 9 -1t27 -3.5t39 -5.5q82 -10 111 -10q17 -48 14 -78v-125zM557 778q-4 0 -41.5 -5t-69.5 -9q-78 -10 -79 -10q-10 0 -58 45q-13 12 -76 69 q-5 5 -73 50q-50 35 -58 53h43q5 1 14.5 -6t14.5 -7q120 0 178 -22q41 -18 109 -74q47 -44 96 -84zM360 516q-88 56 -249 178q0 6 -1 18.5t-2 32t-2 37.5q-1 15 -2 31t-1.5 24.5t-0.5 10.5v61q98 -26 242 -182q19 -22 16 -90v-121zM592 434q0 -129 -2 -174q-3 -95 -6 -90 q-54 47 -86 70q-62 59 -82 98q-15 30 -15 84q0 12 191 12zM367 1298l-27 -327l274 -219v335zM80 954l31 -260l264 -258l-8 299zM395 449l-8 -117l215 -211l16 311z" />
<glyph unicode="," horiz-adv-x="618" d="M578 420q-53 50 -80 80q-111 76 -195 147q-24 3 -80 6q-53 6 -61 6q-9 0 -56 -6q-11 -1 -24.5 -2t-20.5 -1.5t-10 -0.5q4 -41 9.5 -81t10.5 -77t7 -51q0 -28 -8 -80q-6 -46 0 -61q27 -70 141 -211q111 -134 137 -201q168 23 219 25q0 82 -2 174q-4 148 -2 184 q3 98 15 150zM477 449q-76 -13 -160 -13q-14 0 -84 70q-69 69 -92 100q12 12 37 12q61 0 131 -43q53 -33 168 -126zM518 -55q-27 7 -63 4q-9 0 -18 -0.5t-15.5 -1t-12 -1t-9.5 -0.5t-6.5 -0.5t-3.5 -0.5h-1l-35 389q7 66 15 61h149v-450zM328 27q-71 115 -142 198 q-46 54 -57 84q-12 35 -12 150v92q156 -113 176 -166q24 -52 33 -164q5 -70 2 -117v-77zM106 614l-16 -288l256 -392l-20 463z" />
<glyph unicode="-" horiz-adv-x="1011" d="M954 444q0 8 -3 31.5t-3 26.5q-6 113 0 194q-6 8 -13 20l-7 11q-39 38 -105 98q-77 96 -131 174q-116 17 -135 17l-451 74q-4 0 -11 -7t-15.5 -17t-9.5 -11v-279q22 -49 106 -158q79 -104 88 -104q3 0 3 4q1 4 5 4t15.5 -16.5t15.5 -16.5h162l319 -40q6 0 52 -9 q41 -8 51 -8q-1 0 4.5 -2t19.5 -5.5t33 -8.5l2 4q3 4 5.5 10.5t2.5 13.5zM860 727q-170 17 -219 31q-121 41 -127 41q-4 0 -13.5 -4t-13.5 -4q-5 0 -7 6l-3 6q-7 1 -37.5 10.5t-33.5 9.5q-4 0 -37 -4t-37 -4q-20 0 -35 21q-67 88 -158 192l334 -47q2 0 9.5 -0.5t23.5 -1.5 t33 -2t32.5 -2t22.5 -1.5t8 -0.5q4 0 26.5 -9t26.5 -10h19q14 -3 18 -10q133 -168 168 -217zM922 473h-86q-5 3 -5 4q1 2 -3 3q-9 3 -48 9q-18 3 -40.5 8.5t-28.5 6.5q-149 20 -205 20q-6 0 -80 4q-70 4 -78 4l-8 17q-3 -8 -14 -8t-11 239q10 -2 95 11q1 0 8.5 -2.5l27 -9 t41.5 -13.5q82 -26 115 -31q41 -6 64 -6l67 -31q46 0 84 -14q31 -8 51 -10q34 -6 54 -29v-172zM295 739q0 -47 -6 -102q-3 -54 -8 -59t-11 -5q-25 0 -98 99q-58 81 -74 114q0 3 -0.5 9.5l-1.5 19.5t-2 25q-2 25 -2 51q0 22 2 53q4 62 4 70q18 -18 55 -53.5t56 -53.5 q86 -89 86 -168zM90 1049l-20 -273l231 -260l12 287z" />
<glyph unicode="." horiz-adv-x="794" d="M674 309q-19 32 -60 53q-3 3 -127 82q-72 47 -137 70q-64 23 -252 23q-35 0 -35 -35q0 -12 9 -76q8 -57 8 -72v-202q9 -7 98 -93q63 -61 114.5 -84.5t141.5 -27.5q164 -4 184 -4q0 12 15 18q-7 96 8 307q1 1 3.5 4t7.5 8.5t10 10.5q15 12 12 18zM596 319 q-83 -14 -219 -14q-22 0 -123 88q-17 16 -52 47.5t-52 46.5q121 -4 143 -2q33 -3 88 -39q13 -9 41 -27.5t41 -27.5q33 -18 81.5 -44t51.5 -28zM592 4q-32 -16 -74 -16q-33 0 -82 8q-47 8 -78 8v262l146 15q49 0 88 -17v-260zM326 266q0 -4 -9 -98q-8 -84 -8 -145 q-43 34 -182 147q0 55 -8 139q-8 79 -8 97q0 5 5 31t5 30q205 -184 205 -201zM94 512l-14 -360l250 -152l20 297z" />
<glyph unicode="/" horiz-adv-x="1079" d="M1036 1233q0 146 -28 219q-2 2 -14.5 12t-41.5 33t-59 47q-71 55 -121 64q-101 16 -143 16q-7 0 -54 6q-43 6 -49 6q-5 0 -19 -6t-18 -6q0 -126 -6 -188q-71 6 -116 -19q-2 -39 -7 -82q-30 -642 -32 -647q-2 -10 -2 -35q0 -15 3 -59.5t3 -52.5q0 -56 -37 -56q-3 0 -11 1 t-25.5 2.5t-33.5 3.5q-61 6 -69 6q-56 0 -103 -27q23 -112 23 -164q0 -30 -2 -65q-3 -41 0 -66q238 -188 250 -188q5 0 6 3t6 3q4 -3 13.5 -8.5t15 -11t6.5 -11.5l16 12q163 -18 193 -18q3 84 0 125q37 0 102.5 -2t67.5 -2q9 0 29.5 -5t23.5 -5q41 0 61 20q1 14 -2 158 q-3 90 4 192q1 12 3 33l5 47v549q0 35 -12 123q16 16 33 16q4 0 133 -18q8 13 8 45zM942 1452q-92 0 -143 2q-7 0 -13.5 0.5t-12 0.5h-10.5t-9 0.5t-8 0.5h-6.5h-5h-4h-2.5h-1q-11 0 -76 53q-64 55 -76 82h52q209 3 315 -139zM686 1442q-6 -50 -6 -135q-146 93 -158 145 q-2 12 -2 41q0 3 3 37.5t3 44.5q64 -52 160 -133zM662 1272q-15 0 -27 -2h-29q-33 0 -98 47q-82 63 -100 78q7 0 34 6q21 6 33 6q33 0 37 -4q99 -80 150 -131zM991 1245q-43 -15 -80 -12q-23 4 -63 12l-17 -16q0 -81 5 -199v-905l-13 -14q-131 4 -262 14q-21 -15 -18 -55 v-70q-34 -6 -94 -6q-20 0 -64 20q-15 50 -27 162q0 18 7 53q69 -4 84 -2q2 -1 8.5 -5t14 -7.5t13.5 -3.5q5 0 31 6t31 6t26.5 -6t26.5 -6q35 0 35 29q3 209 -10 292l-7 699q34 9 107 0v180q55 14 174 14q92 0 92 -59v-121zM600 287q-54 39 -139 99.5t-115 82.5v137l51 750 q68 -52 176 -119q17 -192 17 -289q0 -243 2 -278q8 -19 8 -25v-358zM563 254h-203q1 0 -24.5 20.5t-84.5 67.5t-136 107q27 6 178 6q20 0 129 -86q89 -67 141 -115zM338 18q-19 12 -59 35.5t-60 34.5q-66 41 -108 107q-7 96 -5 149q0 4 -5 19.5t-5 19.5v39q123 -84 209 -164 q9 -9 21 -92t12 -107v-41zM508 1606l-10 -150l202 -188l11 164zM381 1384l-53 -923l288 -225l-16 1001zM78 457l10 -289l272 -168l-26 240z" />
<glyph unicode="0" horiz-adv-x="1208" d="M1133 12q0 8 -15 348q-4 104 -20 564q-12 188 -21 282q-43 40 -196 154q-169 123 -197 123q-12 0 -35 -10q-54 -7 -213 -7q-8 0 -35 8.5t-32 8.5l-133 6q-122 6 -181 2q-6 -4 -10 -12q31 -341 33 -443q18 -272 33 -395q8 -88 8 -160q0 -93 12 -108q260 -307 350 -404 q21 -16 31 -16q7 0 19.5 7t19.5 7l541 8q41 3 41 37zM995 1227q-9 0 -67 -10q-49 -9 -58 -9q-3 0 -9 0.5t-17.5 1.5t-22.5 2q-12 1 -23 2t-17.5 2t-8.5 1q-4 0 -31 -8.5t-34 -8.5h-195q-64 0 -92 19q-81 66 -101 86q-13 10 -98 75q-63 50 -78 78q88 -14 179 -14q10 0 47 -6 q10 -1 22.5 -2t19.5 -1.5t11 -0.5q175 -3 266 0q27 -4 109 -54q123 -88 198 -153zM1079 23q-340 -23 -329 -25q-7 0 -12.5 7t-12.5 7q-5 0 -41 -7t-41 -7l-10 8h-101q-18 206 -51 475q-30 341 -24 510v178h184h123q2 0 14 1.5t36.5 4t49.5 5.5q91 12 103 12q1 0 8.5 -2.5 t26 -8.5t38.5 -12q7 -95 13.5 -181t9 -120.5t2.5 -36.5zM483 88q-11 14 -186 162q-129 110 -137 162q-27 178 -45 520q-19 301 -17 328v170q18 -15 187 -113q99 -54 137 -141q29 -69 29 -191q0 -50 -11 -158q-3 -27 -6 -60l-2 -17v-232q0 -2 2 -16t7 -51.5t10 -71.5 q17 -141 24 -217l2 -16t1.5 -14l1 -12t1 -10.5t1 -8.5t1 -6.5t0.5 -4v-2.5zM928 305l-31 627q-59 6 -244 0v-70q0 -20 33 -297q11 -98 14 -299q16 -16 41 -16h170q17 39 17 55zM883 664q3 -103 -4 -209l-7 -99q-100 69 -133 95q-47 320 -47 344v106l39 2h60q56 0 73 -20 q16 -102 19 -219zM874 307q0 3 -129 -12q0 13 3 43v47q28 -17 69.5 -43t56.5 -35zM76 1473l57 -1065l371 -408l-62 1194l-123 111zM666 920l45 -482l198 -104l-26 579z" />
<glyph unicode="1" horiz-adv-x="1091" d="M1034 6v264q-66 78 -157 146q-37 27 -37 96q0 20 8 111t8 108v268q0 2 1 19.5t3.5 58t5.5 82.5q3 41 6.5 82.5t5 58t1.5 19.5q0 37 -80 90q-120 73 -129 82l-17 -16q-6 16 -12 34q-148 103 -223 103q-7 0 -8.5 -4t-8.5 -4q-2 0 -131 22q-124 25 -127 23h-63v-293 q14 -9 160 -133q104 -84 163 -111v-547q-6 -15 -9 -20t-15.5 -9.5t-29 -5t-56.5 -0.5q-12 0 -64 -8q-49 -8 -82 -8l-6 -94v-8q-2 -51 -2 -199q205 -149 236 -176h438q43 0 221 -31zM786 1364q-26 0 -108 6q-80 6 -86 6q-132 0 -191 33q-119 64 -215 195q27 -6 150 -15 q101 -10 143 -26q64 -23 152 -88q123 -89 155 -111zM375 1180q-36 26 -106.5 79t-106.5 80q-46 43 -43 142v116q256 -209 256 -223v-194zM991 53q-402 25 -471 23q-90 0 -90 219h145q7 0 23 -7t20 -7q8 0 13.5 1.5t10 6.5t6 6.5t5.5 10.5l4 9v805q0 24 -26 27 q-120 10 -209 10q-14 198 -14 211q24 -1 167 -27q111 -18 117 -18q5 0 36 4t36 4q67 0 67 -49l-22 -778q0 -39 -31 -70q-3 -14 21 -31q-5 -49 -2 -133q15 -12 92 -12q5 0 42.5 -4.5t47.5 -5.5l12 8v-203zM598 365q-120 144 -168 192v551q166 0 168 2v-745zM954 291h-112v102 q64 -54 112 -102zM573 328q-37 6 -114 6q-66 0 -113 35q-36 32 -104 96q-8 27 -11 27q38 0 95 8t69 8q33 0 103 -82q56 -62 75 -98zM389 90q-14 14 -24 14q-14 0 -82 50q-68 52 -103 90q-2 2 -2 59q0 24 19 160q18 -35 84 -88q91 -73 108 -90v-195zM100 1628l-8 -260 l305 -223l-4 241zM610 319l21 803l-213 8l-4 -602zM188 489l-30 -266l243 -174l11 254z" />
<glyph unicode="2" horiz-adv-x="1060" d="M1006 137v115q-47 36 -181 100q-137 69 -188 109l12 12q181 -14 273 -14q0 63 -2 114q-2 53 -2 105q0 42 -3 153q-2 74 -2 160q0 11 1.5 36t4.5 77t5 96l12 176q0 32 -16 64q-21 11 -62 32.5t-61 32.5q-73 40 -133 94q-41 28 -54 35q-38 5 -119 16.5t-124 16.5 q-183 22 -304 19v-66q18 -35 27 -98q8 -66 10 -99q44 -31 76 -45q200 -107 250 -157q9 -9 6 -37l-6 -35q0 -9 -4 -37q-3 -12 0 -90q3 -62 -14 -82q-31 -14 -56 -10q-174 -24 -205 -27q24 -149 29 -260q-1 -22 -2 -69t-2 -64q0 -60 -2 -78q12 -58 84 -139q146 -158 172 -158 l571 -8zM846 1438q-265 -17 -303 -17q-36 0 -58 11q-156 87 -196 112q-149 78 -191 107q245 -6 494 -49q65 -48 78 -60q45 -26 86.5 -51t63 -37.5t26.5 -15.5zM440 1268q-244 127 -297 170q-25 70 -22 86v71q10 -5 73 -37.5t95 -50.5q107 -58 151 -102v-137zM739 758 q-151 87 -288 190q-2 12 -2 47q0 2 0.5 8.5t1.5 20t2 27.5q4 70 4 73q0 64 -8 72q24 0 58 -3t58 -6t25 -3q2 0 22 -3t25 -3q82 0 102 4v-424zM971 166q-4 0 -82 -4q-16 -1 -31 -2t-21.5 -1.5t-7.5 -0.5l-374 20q0 339 22 496q24 -3 76 0q39 2 80 2q27 0 74 -8q53 -9 55 -9 q12 0 43 48q-1 1 -3 3.5t-6 8.5l-8 12q-12 15 -12 23l6 428q6 26 -24 35q-71 -9 -146 4q-11 0 -90 8q-42 3 -59 20v152q24 -15 45 -15l362 21q31 -19 31 -59l-20 -490v-364q-153 3 -275 10q-5 -2 -11 -5.5t-7 -4.5q15 -199 20 -242q12 -12 21 -12q13 0 58 6t58 6 q106 0 220 -12q-3 -47 6 -74zM741 717q-140 -10 -143 -10q-10 0 -48.5 4t-41.5 4q-8 0 -37 -6.5t-33 -6.5q-12 0 -22 19q-119 42 -199 153q10 0 74 11q53 12 59 12q51 0 72 -6q8 3 14 20zM860 285h-209q-14 106 -20 137q62 -37 122.5 -73t83 -49.5t23.5 -14.5zM440 657 q-14 -46 -14 -90v-190q0 -111 -8 -184q-200 176 -215 282l-4 352q182 -139 241 -170zM184 858l13 -430l229 -293l51 539zM94 1630l19 -194l338 -205l6 192zM756 1200l-314 19l-14 -269l334 -239z" />
<glyph unicode="3" horiz-adv-x="931" d="M838 68v1022q1 8 2 25t2 26q4 70 4 98q0 119 -25 174q-22 55 -116 119q-72 51 -111 67q-68 27 -121 27q-21 0 -68.5 -11t-58.5 -11q-25 0 -84 6q-55 6 -61 6q-4 0 -21 4t-22 4q-32 0 -58 -33q8 -12 17 -82q12 -71 12 -98q0 -55 -14 -104q6 -4 118 -101q74 -65 84 -65 q8 0 11 2t2 6q12 -35 12 -78q0 -72 -53 -72q-5 0 -34 -3t-34 -3t-23 7.5t-22 7.5q-7 0 -24 -17q3 -71 -2 -178l-7 -115q0 -12 84 -47q98 -42 105 -49q4 4 6 4l2 -2q2 -8 2 -37q0 -37 -12 -71q-200 0 -236 8q0 -5 -20 -31q0 -13 -4 -119q-1 -20 -2 -39l-1.5 -28.5t-0.5 -10.5 q0 -25 10 -38q174 -130 219 -170q30 -8 29 -11q12 0 147 6q135 9 143 9q5 0 15.5 -7.5t15.5 -7.5q2 0 12.5 -0.5t31 -1.5t42.5 -2q51 -2 86 -2q4 0 21 17zM774 1407q-91 -16 -125 -16q-93 0 -176 14q3 -1 -6 -2h-61q-25 0 -115 78q-17 15 -52 44.5t-53 45.5q16 -1 156 2 q132 3 180 -2q47 -3 121 -62q21 -18 65 -51.5t66 -50.5zM340 1169q-182 156 -182 181v9q1 9 2 27.5t2 40.5q4 98 4 111q52 -40 115 -100q62 -59 59 -72v-197zM575 1120q9 -123 -2 -254q-30 13 -104 68q-98 70 -98 104q0 2 4 35.5t4 46.5h196zM793 109q-41 -13 -80 -13 q-276 13 -377 13l-5 42q-3 54 -3 117q142 3 223 -8q29 -6 43 -12h18q21 50 25 69v7q-9 28 -4 38l6 12v-1q0 2 -0.5 10t-1.5 23t-2 32q-2 22 -4.5 55t-3.5 42q0 4 3 30t3 35q0 34 -19 43q-23 2 -53.5 6t-32.5 4h-143v140q20 0 86 4q14 1 26.5 2t18 1.5t6.5 0.5q5 0 32 -10.5 t32 -10.5q14 0 30 19q-3 67 2 170l7 112q0 74 -19 80q-47 3 -100 7l-19 1q-22 0 -108 -12v217q21 -1 153 -16q25 -2 51.5 -5t37.5 -4t14 -1q10 0 57 8q51 9 101 12v-1259zM541 834q-42 -11 -76 -11q-47 0 -96 37q-19 18 -59 52l-60 51q62 16 84 16q11 0 86 -57 q56 -41 121 -88zM348 766q0 -44 -16 -113l-68 25q-48 14 -69 35q0 5 -2 23.5t-3 31.5l-2 22l-1.5 16.5t-0.5 8.5q0 15 17 127q61 -46 123 -96q22 -19 22 -80zM588 369q-146 96 -211 129q0 3 0.5 10.5t1.5 20.5l2 26q1 12 2 26.5t1.5 22.5t0.5 12q79 -8 197 -8v-1v-5.5 t0.5 -9.5t0.5 -14t1 -19q4 -94 4 -190zM582 299h-103h-55q-7 0 -25.5 3t-25.5 3q-82 0 -215 154q20 0 180 10q27 0 127 -63q96 -58 117 -82v-25zM293 209q0 -3 -5 -34.5t-5 -39.5q-127 96 -166 137v174q51 -69 139 -129q37 -27 37 -108zM135 1585l-2 -262l223 -188l4 256z M373 1137l-17 -127l232 -172l14 297zM186 979l-24 -274l190 -82l21 184zM369 631l-7 -133l236 -164v289zM106 473l-14 -215l217 -164l-6 199z" />
<glyph unicode="4" horiz-adv-x="1091" d="M1018 1331q0 8 -13 20t-14 15q-49 87 -178 152q-53 24 -141 24q-5 0 -31 -7t-31 -7v-113q0 -231 -18 -280h-25q-14 0 -73 20q-16 49 -13 62q2 3 5 6.5t3.5 4.5t1.5 6.5t1 12.5v23v88q-110 162 -160 217q-81 13 -173 27l-34 6q-6 0 -17 -2t-19 -4.5t-9 -2.5q0 -15 -4 -52 t-4 -38v-245q0 -10 -9 -90q-6 -76 -6 -87q0 -45 13 -61q155 -181 221 -225q42 -25 123 -31q103 -9 125 -12q-4 -130 -9 -272.5t-8 -227t-4 -127.5q169 -140 176 -147q55 14 88 14q20 0 49 -2q58 -4 62 -4q23 116 37 319q2 27 4.5 77.5t7 134t8.5 155.5q4 110 4 125 q5 55 41 338q6 55 12 102.5t9 67.5zM922 1360q0 8 -17 8q-5 0 -19.5 -4t-19.5 -4q-25 0 -108 65q-29 27 -82 72q90 -18 123 -29q74 -25 121 -75q11 -18 2 -33zM815 1276l-24 -287q-42 29 -101 82q-57 51 -57 64q0 15 8 86q2 16 10 129q6 87 4 104q106 -71 125 -84 q35 -27 35 -94zM420 1393q-12 -4 -25 -4q-51 0 -131 65q-6 5 -127 109q155 -22 170 -23q60 -85 113 -147zM756 954q-152 12 -277 43q0 111 2 115q23 -6 56 -8q45 -3 57 -8q51 -26 98 -76q39 -41 64 -66zM289 1051q2 -22 -17 -160q-15 18 -77 65q-47 38 -64 66 q-31 60 -31 201l9 118q8 109 8 179q75 -56 172 -140v-329zM967 1276q0 -3 -1.5 -12t-4.5 -28.5t-5 -39.5q-14 -100 -16 -117q-38 -501 -55 -800q-11 -181 -17 -224q-3 -20 -133 -20v241q0 -10 8 77.5t29 326.5q3 35 29 86q-13 13 -49 16q-195 6 -422 62q-11 88 -11 94l7 352 q-6 48 16 64q12 6 53 6q15 0 35.5 -14.5t24.5 -30.5q3 -24 -2 -55q-9 -46 -9 -56q-9 -166 0 -239q113 -35 156 -35q16 0 92 -8q25 -2 48.5 -3.5t34.5 -2.5t13 -1q19 0 39 13q24 327 33 395q8 0 34 4t30 4q5 0 22 -8t21 -8v-39zM741 692q0 -4 -12 -106q-9 -87 -14 -162 q0 -6 -27 -379q-13 10 -119 94q-3 47 2 88q1 10 -2 31t-6.5 39t-3.5 20q0 105 10 297q6 120 -8 140q33 -1 83 -7t54 -6q20 0 43 13v-62zM98 1565l-18 -502l207 -225l35 534zM641 1501l-29 -381l185 -176l41 391zM543 786l-4 -634l163 -152l66 760z" />
<glyph unicode="5" horiz-adv-x="919" d="M877 739q0 20 -19 72q-21 18 -37 18q-63 58 -108 111q-15 12 -41 12q-20 0 -88 -8t-86 -8q-7 0 -10.5 3t-5.5 7l-1 4v21q17 30 29 33q46 4 358 4v43q0 21 -8 141q-1 13 -10 211q-160 151 -186 151l-607 27q6 -65 13.5 -146.5t9.5 -101.5v-565q43 -29 115 -88 q72 -56 104 -74q3 -3 72 0q26 0 63 -16q0 -28 8 -80q9 -59 9 -68q0 -42 -13 -61q-20 10 -43 10q-12 0 -59.5 -9t-61.5 -9q-8 0 -55 6q-41 8 -53 8q-9 0 -33.5 -19t-26.5 -20q-1 -10 -20 -137q-14 -77 -14 -90t51 -58q49 -43 98 -75q33 -7 47 -4q81 -22 170 -25 q135 -3 273 -6q41 -3 108 -21q21 21 23 25l12 147q6 83 6 287v250q0 11 8 47q9 41 9 51zM776 1403q-16 0 -57 -6l-22 -2l-16.5 -1.5t-8.5 -0.5t-16.5 1t-46 4t-64.5 5q-114 12 -125 12q-5 0 -36 -7t-38 -7q-51 0 -102 45q-87 74 -117 90q55 3 82 6q19 -1 178 -20 q30 -3 62.5 -6.5t45 -5t15.5 -1.5q22 0 51 2q12 1 24.5 2t19.5 2t9 1q12 0 23.5 -3t25 -11t22.5 -14t24.5 -20t21.5 -20l23.5 -23.5zM791 805q-64 2 -151 5t-101 3h-47q0 57 -9 84q100 -5 150 16q48 0 90 -45q50 -56 68 -63zM289 666q-128 95 -164 127q-12 469 -12 708 q80 -69 135 -110q26 -169 26 -217v-328q0 -2 1 -9.5t2.5 -24t3.5 -32.5q8 -52 8 -71v-43zM829 743q-10 -113 -10 -544q0 -116 -28 -219q-106 14 -367 14q-2 0 -7 0.5t-16 1.5l-22 2q-50 4 -53 4l-13 -8v184q252 -30 381 -45q15 15 17 21q-9 193 -9 215q3 124 27 213 q-9 11 -20 20q-290 46 -379 57q-7 88 -13.5 159.5t-9 101t-2.5 28.5v293q0 3 -6 18.5t-6 28.5q0 26 12 72h508v-307h-229q-2 0 -9.5 -0.5t-21.5 -1.5t-29 -2q-68 -7 -75 -7q-6 -3 -13 -10v-237q10 -29 35 -29l7 2q8 1 19.5 3t25 4t28.5 3t27 0q3 3 10 0q12 -4 18 -4 q141 0 223 -31zM674 219q-103 74 -182 158q-15 121 -17 153l8 66q160 -27 191 -31v-346zM645 174q-95 13 -222 31.5t-147 21.5q-54 85 -88 119q3 0 9 -0.5l18 -1.5t23 -2q35 -3 53 0q4 1 11.5 2t20.5 2.5t23 3.5q40 6 51 6q65 0 113 -51q89 -99 135 -131zM272 176 q0 -138 -7 -161q-1 2 -1 3q-134 100 -145 109q13 114 35 199q54 -58 118 -150zM80 1546l14 -751l221 -164l-34 753zM446 625l19 -254l217 -205l29 403zM145 358l-47 -239l191 -119l2 201z" />
<glyph unicode="6" horiz-adv-x="1091" d="M1022 645q-106 72 -172 135q-43 40 -57 43q-20 4 -113 4q-8 0 -31 13q-9 5 -35 18q-4 164 -2 207q78 0 121 -2h66q5 0 26.5 -8t26.5 -8q2 0 9.5 -1t21 -2t26.5 -2q31 -2 58 -2q6 0 10.5 3t7 6.5t6.5 9.5t6 8q-18 43 -18 111q0 36 6 106q3 21 5 40.5t3 34.5t2 21 q0 5 5.5 19.5t5.5 19.5q0 19 -103 105t-112 86q-68 0 -125 2h-88q-10 0 -68 12q-33 6 -90 14q-175 15 -316 4l-16 -1007q8 -48 2 -172q-3 -44 -18 -150q-4 -31 -8.5 -57.5t-6.5 -38t-2 -12.5q0 -11 41 -41q22 -16 146 -125q104 -90 116 -90q22 0 103 8q84 8 102 8 q32 0 432 -47q23 54 23 109q0 21 -6 77t-6 68v332q0 53 16 141zM928 1442h-137q-8 0 -36.5 4t-35.5 4q-114 6 -338 6q-14 0 -82 51q-55 41 -109 95q44 6 93 6q50 0 217 -17q213 -18 272 -20q32 -3 80 -51q25 -27 76 -78zM895 670q-10 2 -113 2q-1 0 -8.5 0.5t-24.5 1.5 t-36 2q-86 4 -99 4q0 65 -2 108q21 9 54 9q22 0 65 -6l26 -2t20.5 -2t10.5 -1q58 -40 107 -116zM965 -43q-13 8 -58 8q7 0 -1 2q-32 5 -148 15q-156 10 -283 14h-96l-25 993q0 78 17 443h116h86q5 0 33 -4.5t35 -4.5q69 0 301 -16v-328q-219 31 -340 31q-20 0 -37 -20v-428 q15 -15 45 -15q6 0 30 -8t26 -8q14 0 71 8q72 4 92 2q91 -6 136 -12v-672zM330 20q-78 78 -226 197q6 67 12 129.5t8.5 89t2.5 29.5v899q0 62 18 225q111 -87 185 -151v-1418zM778 270q0 8 -5 28.5t-5 23.5v1v5.5t0.5 10t0.5 15t1 19.5q0 29 -10 39q-103 0 -215 14 q0 -16 -5 -63t-5 -50v-207q5 0 13 -4t15 -4q9 0 47 15q43 16 47 16q73 0 103 -6q18 37 18 147zM729 186q-13 -23 -51 -26q-35 0 -51 -2q-17 -4 -30 -7t-18 -4.5t-4 -1.5q0 155 9 234q139 -3 145 0v-193zM125 1620l-45 -1421l276 -224l-4 1469z" />
<glyph unicode="7" horiz-adv-x="1026" d="M965 1487q-44 45 -91 88q-55 50 -98.5 65.5t-113.5 10.5q-96 -6 -113 -4q-41 2 -250 26q-165 22 -238 25v-58q0 -1 9 -69q10 -68 10 -92q0 -53 -12 -103q152 -111 219 -196q50 16 71 16q64 0 88 -6q0 -129 15 -346l-6 -563q0 -79 -6 -117q23 -19 141 -133q83 -80 92 -80 q11 0 47 8q44 9 62 6q66 -9 79 -12q21 173 25 227l23 750q0 25 10 100q12 70 12 324q0 72 25 133zM864 1516q-29 0 -125 -7q-24 -1 -44.5 -2t-30.5 -1l-9 -1q-2 0 -12 0.5l-30 1.5t-42 2q-21 1 -40.5 2t-29.5 1.5t-12 0.5h-165q-15 0 -187 146h41q2 0 72 -17q60 -14 74 -14 q238 0 428 -24q27 -3 112 -88zM276 1470l-6 -65v-4q0 -25 4 -135q-168 119 -168 143q0 -8 2 1q9 54 9 210q21 -21 90 -76q51 -39 69 -74zM901 1473l-61 -1469q-57 2 -138 2l23 799q0 2 -0.5 19.5t-1.5 56t-2 82.5q-3 173 -6 243q-37 29 -72 29q-2 0 -12 -0.5t-29 -1.5 t-39 -2l-38 -2l-28.5 -1.5t-11.5 -0.5q-5 0 -21.5 8t-21.5 8q-2 0 -9 -0.5t-20.5 -1.5t-27.5 -2q-62 -4 -70 -4v1l-0.5 2.5t-0.5 5.5t-0.5 7.5t-1 9.5t-1 12l-1 14t-1 16t-0.5 18q-2 39 -2 152q72 11 164 2l18 14q14 -14 35 -14q354 0 377 -2zM686 559l-27 -530 q-8 11 -84 65q-58 43 -79 84q-17 34 -17 90q0 39 15 144v206v39q2 18 2 48q-3 79 -6.5 149.5t-5.5 116.5t-3.5 79t-2.5 47t-1 11q0 3 4 40t4 46q4 0 23.5 5t26.5 5q4 0 127 -24q24 -267 24 -258v-363zM90 1663v-283l205 -168l6 285zM440 1219l25 -1031l219 -206l14 1216z " />
<glyph unicode="8" horiz-adv-x="1355" d="M1278 -53v282q0 14 -8 82t-8 117q0 58 -7 215v795q-56 -9 -165 57q-145 85 -201 102q-25 8 -80 2q-63 -8 -82 -8h-178q-16 0 -31.5 0.5t-27 0.5t-22 0.5t-16.5 0.5h-11.5h-6.5h-2l-336 23q-59 0 -59 -37q0 -4 9 -40.5t9 -45.5q25 -241 25 -311v-191l31 -375v-6 q0 -5 1 -19t1.5 -32.5t2 -47.5t3.5 -60q8 -151 8 -252q16 -13 152 -138q88 -79 94 -79q4 0 34 7t35 7q105 0 344 -31q221 -33 349 -33q11 0 65 -4q40 -6 45 -6q8 0 33 25zM1116 1442l-234 -27h1q-2 0 -13.5 0.5t-35 1.5t-48.5 2t-48.5 2t-34.5 1.5t-13 0.5t-20.5 1.5 t-60.5 4t-89 5.5q-159 12 -170 12q-27 0 -65 -23q-43 37 -104 88t-79 66q224 -14 256 -14q4 0 32 -3.5t36 -3.5h463q13 0 92 -43q124 -66 135 -71zM1233 -25q-199 0 -313 9q-52 3 -185 22q-120 21 -127 21l-20 -9q-1 0 -9.5 1.5t-29 5t-43.5 6.5q-81 13 -113 10l-39 743v242 q0 124 -10 297q0 4 -6 22t-6 23v39l532 -21q2 0 17.5 1.5t48.5 4t69 5.5q126 12 136 12q2 0 34 -8.5t41 -7.5zM338 63q-33 29 -65.5 58.5t-64 58.5t-44.5 41q-2 47 -2 187l-66 1103q5 5 2 5q24 0 133 -89q36 -32 45 -41q7 7 17 -10q18 -236 24 -348zM1137 737v56q0 7 -9 59 q-8 47 -8 72q-4 266 -4 290q-15 18 -39 21q-18 3 -49 0l-35 -4l-542 12q17 -17 14 -37t-14 -28v-367q74 -28 204 -37q29 -1 88 -3t88 -3q64 -8 185 -29q33 -2 121 -2zM1108 80q-2 32 -14 133q-9 62 -9 68v245q0 48 17 72l-19 18q-148 -9 -206 -4q-5 0 -28 6.5t-30 6.5 q-8 0 -63 -9q-55 -6 -66 -6q-10 0 -80 6q-71 9 -78 9q-13 0 -40 -17.5t-27 -34.5l35 -448q10 -13 18 -16h187q18 -6 124 -25q120 -21 129 -21h119q14 0 31 17zM1083 821q-192 143 -282 205q3 137 -10 174h208q10 2 39.5 -8.5t30.5 -22.5q14 -216 14 -348zM760 1110 q0 -47 -17 -86q-85 17 -241 31v63q0 56 4 68q9 22 55 22h9q9 -1 29 -2t42 -2q102 -4 111 -4q8 -27 8 -90zM1049 791l-547 43q2 80 2 182q24 -1 73 -4t74 -4q88 -3 137 -25q116 -50 261 -192zM1063 201l-8 -72q-97 108 -226 219q-2 10 -2 43q0 17 9 64q8 44 8 75q0 37 -8 56 q86 -9 213 0v-299q3 -42 14 -86zM805 510q0 -37 -17 -166l-270 45v199h262q25 -16 25 -78zM1026 102l-465 50q-14 0 -26 18q-1 4 -4.5 31.5t-6.5 52.5q-6 59 -6 65v31q9 -3 154 -12q94 -9 145 -35q67 -36 119 -88q6 -8 35.5 -45t54.5 -68zM72 1569l73 -1364l222 -182 l-52 1370zM776 1221v-211l334 -232l-18 432zM807 606l4 -272l268 -244v496z" />
<glyph unicode="9" horiz-adv-x="1019" d="M940 627q0 684 -4 692h-33q-4 0 -131 80t-151 80q-3 0 -9 -0.5t-17.5 -1.5t-21.5 -2t-19.5 -2t-15.5 -2t-8 -1q-7 0 -192 15q-172 14 -193 14q1 0 -3.5 -2.5t-16 -7.5t-27.5 -12l-8 -492q4 -108 2 -133q9 -49 92 -102q47 -29 125 -74q50 -33 58 -33q47 0 71 -4v-266 q-32 -13 -35 -13q-5 0 -10 7.5t-10 7.5h-238q21 -138 21 -150v-172q33 -30 92 -67q58 -37 72 -37h606q-15 354 -16 354q9 77 12 117q8 49 8 207zM813 1321q-72 11 -154 14h-167q-100 0 -164 15q-103 65 -148 98q229 -16 262 -16q50 0 115 6q46 5 79 -4.5t85 -44.5zM338 887 q-8 -8 -2 -180q-167 81 -195 139q-24 46 -24 145q0 22 4 84l4 47q0 2 6 140q8 123 8 168q66 -36 97 -54q61 -39 86 -71q5 -8 2 -58q-1 -21 -2 -39.5t-2 -27.5l-1 -9q0 -145 19 -284zM911 731q0 -80 -18 -311q-19 -244 -19 -318q0 -70 9 -108h-502q6 12 0 194 q234 -34 289 -34q35 0 35 24q0 4 -6.5 25.5t-6.5 29.5q0 101 2 207q3 127 0 207q-5 8 -16 15q-78 9 -150.5 16.5t-106.5 11t-40 4.5l-29 523q0 96 66 96l330 -21q57 0 155 -14q0 -4 0.5 -22.5t1.5 -56.5t2 -79q4 -218 4 -389zM662 565l-9 -299q-147 80 -168 92 q-16 109 -16 172q0 11 12 29q0 16 2 47q3 26 -12 35q115 -9 176 -18q15 -57 15 -58zM649 199q-8 -2 -114 -2q-4 0 -31 10q-15 -3 -47 8q-23 2 -56 2q-103 62 -174 115q4 0 13 0.5t25 1.5t28 2q14 1 27.5 2t19.5 1.5t8 0.5q74 0 156 -39q96 -41 145 -102zM344 -25 q-91 62 -127 93q0 3 -3 34t-7 58q-6 58 -6 67v66q92 -50 135 -80q1 -11 3 -29l5 -32v-177zM711 823v33q0 68 -17 184q-3 16 0 47q1 10 2 22.5t1.5 19t0.5 10.5q0 37 -16 53q-27 6 -43 6q-56 13 -125 10l-10 -6v-379q196 -9 196 -10zM662 907q-52 20 -123 49q0 5 -4 91 q-1 19 -2 35.5t-2 25.5l-1 8v43q14 17 45 17q58 0 78 -23l9 -119v-127zM662 854q-80 0 -80 -2q-3 1 -9.5 4.5t-11.5 6.5t-6 3q-2 0 -2 -10l-6 49h22q25 0 93 -51zM121 1458l-21 -616l262 -170l-8 639zM528 1190l9 -258l149 -58l-10 291zM444 668l11 -316l219 -133v418z M164 352l24 -291l181 -94l-11 238z" />
<glyph unicode=":" horiz-adv-x="784" d="M719 834q-40 300 -57 495q-3 30 -72 78q-16 12 -107 61q-6 4 -22 18t-29.5 25t-17.5 11q-217 0 -267 -4q-42 -22 -57 -43l49 -240q20 -131 17 -250q245 -190 258 -190q7 0 43 13t43 13q3 0 78 -10q60 -8 77 -8q49 0 64 31zM709 281q-26 11 -138 102q-82 70 -157 70 q-8 0 -38.5 -5.5t-37.5 -5.5q-8 0 -27.5 14.5t-27.5 14.5q-28 0 -43 -49q-15 -41 -15 -74q0 -18 8 -125q2 -32 5 -67.5t4.5 -52.5t1.5 -23q0 -20 133 -82q74 -35 74 -84h258v367zM575 1339q-109 -16 -112 -16q-1 0 -41 -4q-36 -4 -39 -4q-41 0 -221 149q20 0 67 6q58 7 60 7 q77 0 129 -27q51 -22 157 -111zM655 866q-67 -6 -223 0q-19 297 -26 346q-9 66 204 84q48 -339 45 -381v-49zM387 946q0 -7 -6 -31.5t-6 -29.5q-106 83 -156 119q-11 127 -33 323q-14 0 -14 21v47q10 -7 100 -54q65 -30 74 -57q41 -96 41 -338zM592 283h-127q-14 0 -62 45 q-58 55 -79 67q8 0 34 6.5t33 6.5q110 0 201 -125zM674 35q0 -17 -21 -76h-94q-35 0 -45 2q-47 143 -47 217l4 58q13 10 21 2q50 16 96 16q34 0 74 -29q1 -8 2 -22.5t3 -41t3 -46.5l2 -38t1.5 -29t0.5 -13zM449 12q-90 50 -150 74q0 49 -20 119l12 166q83 -53 112 -121 q21 -46 27 -123q6 -83 19 -115zM129 1460l47 -467l230 -162l-35 457zM258 403l4 -333l205 -117l-18 299z" />
<glyph unicode=";" horiz-adv-x="747" d="M631 1315q-205 136 -295 209q-8 4 -47 4q-4 0 -86 -10q-82 -11 -117 -15v-397q24 -16 50.5 -34t59.5 -40t52 -35q100 -65 110 -65q9 0 23 12t18 12h10q10 -1 32 -2t48 -2q59 -2 134 -2q-9 144 8 365zM647 469h-18l-318 252h-112q-49 -2 -105 -2v-66q0 -7 7.5 -27t7.5 -24 q3 -45 10 -235q2 -62 4.5 -144t3.5 -102q0 -47 -2 -70q3 -50 20 -61q234 -172 244 -180q29 -19 60 -19q6 0 25 12.5t20 12.5q22 0 59 -2q44 -3 59 12q16 154 13 221q19 146 22 422zM518 1329q-3 -12 -20 -12q-6 0 -21 2t-32.5 4.5t-22.5 3.5q-12 16 -23 39q-6 -6 -6 -25 q-115 66 -211 127q74 19 119 19q12 0 92 -62q70 -56 125 -96zM582 1274q0 -4 -0.5 -20t-1.5 -49t-2 -68q-2 -63 2 -138q-111 9 -144 9q-14 193 -16 282q31 -4 72 -2l57 4q12 0 33 -18zM395 1075q0 -7 -6 -47q-6 -38 -6 -53q-21 13 -65.5 38.5t-65.5 39.5q-127 83 -127 96 q0 4 0.5 18.5t1.5 44t2 60.5q6 108 6 166q186 -103 240 -148q1 -6 4 -44t6 -72q10 -95 10 -99zM483 537q-62 3 -149 47q-14 8 -65.5 33.5t-78.5 41.5q43 29 95 29q11 0 84 -61q85 -73 114 -90zM606 367q0 -64 -8 -205q-12 -202 -27 -279q-6 -26 -43 -26q-4 0 -31 4t-36 4 l8 627q124 -43 127 -46q10 -10 10 -79zM428 322l-18 -465q-52 40 -127.5 97t-98.5 75q-1 32 -20 352q-14 203 -14 225l12 25q51 -27 136.5 -70.5t117.5 -60.5q0 -33 6 -103q6 -67 6 -75zM115 1475l-13 -342l297 -177l2 347zM129 672l21 -649l284 -203l10 661z" />
<glyph unicode="&#x3c;" horiz-adv-x="1042" d="M963 102q0 19 -482 519q0 33 303 514q62 87 115 151q-6 16 -38.5 47.5t-76 67t-47.5 39.5q-181 85 -215 131h-41q-103 -215 -313 -584q-21 -40 -82 -121q-53 -77 -53 -80q0 -8 78 -143q15 -42 18 -57q117 -222 246 -418q41 -66 194 -154q148 -86 207 -86q10 0 98 82 q89 83 89 92zM690 1399q0 -8 -18 -35q-13 -25 -29 -49q-33 -66 -83 -170t-68 -139q-105 -196 -216 -363q-114 86 -184 150l412 720h22q15 3 88 -49q76 -52 76 -65zM913 113q-23 -34 -133 -127q-47 61 -200 250q-127 154 -200 257.5t-73 122.5q0 16 35 60q9 13 35 43 q25 49 72 102q3 18 6 35q91 182 125 238q137 268 155 305q39 -31 113 -105l-426 -663q0 -7 2 -13q125 -93 276 -278q14 14 17 14q6 -6 -6 -18q94 -88 202 -223zM705 16h-13q-6 -2 -20 -2q-8 0 -84 43q-92 53 -127 68q-4 5 -9.5 12.5t-9 13t-6.5 9.5q-90 126 -102 159 q-111 185 -213 388q85 -45 192 -179q103 -142 133 -182q178 -228 259 -330zM487 1548l-426 -757l230 -193l436 819z" />
<glyph unicode="=" horiz-adv-x="1468" d="M1366 844q-17 60 -20 168q0 97 -11 139q-9 35 -41 49q-76 44 -153 84q-59 33 -144 33l-837 61q-33 0 -78 -28q45 -98 20 -316q49 -42 101 -76q61 -40 76 -40q7 0 12 5t12 5t16 -6t15 -12l6 -7q87 3 379 -14q52 -2 264 -19q166 -12 178 -12q17 0 72 -14q63 -13 86 -13 q27 0 47 13zM1393 -49q-24 59 -33 147q-2 43 -6 133q-29 11 -68.5 27.5t-50.5 20.5q-135 75 -234 75q-7 0 -36 -4t-37 -4l-621 60q-131 0 -188 -5q-31 -3 -72 -24q37 -173 37 -273q61 -49 162 -116q103 -68 114 -68l912 8q10 0 10 -8t10 -8q8 0 31.5 4t30.5 4q20 0 39 31z M1253 1163q-51 0 -168 6q-114 9 -118 9q-7 0 -19.5 5t-19.5 5h-484q-123 0 -258 135l678 -49q236 0 389 -111zM1305 893h-123h-88q-8 0 -64 12q-60 13 -67 13q-33 0 -43 -17q-14 17 -78 17q-22 0 -191 14q-51 4 -116.5 9t-107 8t-67.5 5q-6 54 -11.5 102.5t-8 68t-2.5 20.5 q-27 -27 -27 -82q0 -27 2 -62q3 -37 0 -61q-106 79 -159 111v231q29 -24 98 -76q81 -63 104 -63h635q50 -26 154 -23q77 3 139 -16q23 -127 21 -180v-31zM1323 -18q-129 -9 -291 -9q-42 0 -610 17q-10 23 -10 61q0 9 12 53q14 43 14 56v28l789 27q19 0 78 -18q0 -59 18 -215 zM1167 254q-61 0 -116 -2q-53 -2 -86 -2q-8 0 -15 -8.5t-14 -8.5h-492q-48 0 -284 127l829 -49q49 0 178 -57zM369 18q-28 -28 -39 -28q-15 0 -107 63q-93 63 -96 80q-3 44 -16 195q45 -19 135 -56t123 -51v-203zM121 1333l6 -289l225 -129l-12 261zM74 356l30 -241 l277 -162l39 260z" />
<glyph unicode="&#x3e;" horiz-adv-x="1126" d="M1065 803q0 28 -127 235q-121 191 -143 217q-60 79 -125 158q-82 111 -109 111q-5 0 -21 -6.5t-20 -6.5q-13 -2 -27.5 -4.5t-31.5 -6.5t-30 -7.5t-33.5 -10t-32 -10t-35 -12t-32.5 -11.5t-34.5 -12.5t-32.5 -11.5q-43 -13 -102 -63v-45q22 -27 250 -309 q196 -242 196 -275t-116 -198q-92 -127 -164 -224q-101 -135 -160 -233l17 -19q48 -20 83.5 -35.5t51 -22.5t14.5 -7q97 0 227 31q21 6 37 28q78 135 207 318q293 419 293 432zM1008 831q0 -19 -43 -59l-62 -49q-100 166 -274 393q-169 229 -234 326q85 39 133 39 q64 0 277 -312q203 -299 203 -338zM856 715q0 -10 -43 -56q-64 -64 -76 -77q-153 -186 -266 -332q-13 -17 -43 -56t-43 -55q-34 -38 -47 -55q-29 -33 -55 -33q-28 0 -90 47q253 378 399 578q13 15 49 51l-469 606q53 50 111 72q54 14 73 16q97 -118 172 -204 q37 -51 103.5 -141.5t91.5 -125.5q37 -50 84 -135q49 -85 49 -100zM956 707q-198 -301 -405 -611q-13 -18 -52 -34.5t-61 -16.5l-71 10q65 88 151 193q113 148 146 196q70 74 100 99q3 3 37.5 40.5t52.5 55.5q53 53 102 68z" />
<glyph unicode="?" horiz-adv-x="948" d="M891 1208l-69 48t-70 47q-83 53 -142 71q-95 30 -256 45q-188 17 -260 31v-23q-23 0 -31 -8q18 -47 21 -110q3 -138 4 -142q42 -21 121 -75q77 -50 86 -50q5 0 16.5 7.5t16.5 7.5q-4 0 12.5 -3.5t59 -10.5t98.5 -15q0 -3 3 -24t3 -29q0 -51 -45 -51h-305v-82 q0 -14 14 -160q11 -126 16 -244q166 -158 195 -174q-191 3 -191 -49q0 -2 1 -10t2 -22t2 -29q3 -57 6 -76q101 -76 147 -76q193 0 193 2v135q-78 93 -146 119q-9 16 6 37q59 -15 111 -6v293q4 0 18 3t19 3q12 0 12 -4v-9q210 -12 234 -14q3 0 15.5 -5t20.5 -5q10 0 25 18 q0 250 2 285q9 154 23 301q0 4 6 26t6 27zM788 1219q-55 13 -149 24q-105 8 -160 10q-100 8 -157 31q-107 70 -162 113q88 -11 217 -23q145 -15 205 -35q129 -69 206 -120zM707 995q-9 -58 -9 -172q-166 88 -166 133q0 4 4.5 28.5t4.5 33.5q106 -10 166 -23zM283 1100 q-12 8 -158 104v166q22 -11 82 -47q50 -26 76 -66v-157zM840 1137l-39 -541l-332 29q-6 -142 0 -299q-15 0 -34 1.5t-32.5 3t-15.5 1.5q-5 22 -16 61l8 369q35 6 65 6q49 0 115 -14q76 -13 96 -13q32 0 76 -8q7 74 17 172t12 117q-4 4 -9 7.5t-8 5.5t-4 3q-314 44 -409 56 q-15 121 -17 151q41 -11 246 -26q169 -12 262 -54q19 3 19 -28zM672 780q-89 12 -119 15q-6 1 -117 8q-62 3 -100 33q-50 32 -82 49q98 10 201 10q58 0 94 -25q110 -83 123 -90zM348 346q-73 57 -121 105q-3 62 -18 227q-12 138 -12 147q0 33 18 33q90 -48 119 -67v-230 q0 -7 6 -78q8 -63 8 -80v-57zM422 188q-22 4 -43.5 8.5t-43.5 8.5t-32 6q24 18 43 18q14 0 76 -41zM496 80q0 -27 -19 -27l-76 -6v94h45q50 0 50 -61zM362 41q-12 6 -45 6q-7 0 -75 45q-3 24 -9 39l9 70q50 -30 120 -45v-115zM94 1405l4 -219l211 -117l-6 197zM518 1051 l-4 -131l197 -152l16 256zM180 895l23 -436l159 -152l7 484zM217 221l10 -141l162 -68l-6 156z" />
<glyph unicode="@" horiz-adv-x="1308" d="M1239 270q-21 46 -33 49q-40 4 -45 5q-234 133 -319 206q76 13 92 13l252 -15l2 6q2 5 4 13t2 14q0 18 -8 78q-6 67 -6 76v229q0 13 -10.5 76t-10.5 98q0 56 8 111q-140 99 -204 121q-73 25 -392 -7q-179 -15 -260 -18q-176 -6 -190 -6q-50 0 -62 -2q-34 -21 -34 -47 q0 -10 30 -160q33 -167 43 -236q57 -358 90 -620q110 -103 191 -184h860q-9 191 0 200zM1034 1257l-794 -57q-8 0 -64 29l-82 45l699 49q83 0 147 -18q47 -22 94 -48zM948 727q-49 15 -72.5 31.5t-21.5 34.5q3 9 -6 96q-47 50 -166 133q15 -6 96 -6q1 0 8.5 -0.5t23 -1.5 t32.5 -2q78 -4 84 -4q6 -34 11.5 -65.5t8 -44t2.5 -13.5v-158zM766 915q-3 -15 -10 -20q-32 4 -60 4q-14 0 -35.5 -1t-38.5 -2l-16 -1q-41 0 -190 94q0 7 2 17t4 17l2 7q82 15 174 0q0 -11 -8 -16q11 -8 82 -43q55 -25 94 -56zM942 672q-46 -15 -65 -15l-134 -6q0 28 -8 80 q36 19 58 19q14 0 149 -78zM1186 117h-762q-30 300 -51 413q0 5 -70 310q-53 235 -47 321q143 17 199 19q300 34 645 34q24 -18 24 -79v-91q17 -100 17 -106v-371q-344 9 -355 8q-96 -8 -157 -8q0 56 -8 135q-11 110 -15 156q43 9 205 0v-70q-1 -1 -61 -10q-45 -6 -60 -24 q3 -25 8.5 -72t6.5 -64h155h109q5 0 26 21q-5 63 -8 223q-3 128 -29 182q-113 4 -282 17q-57 5 -104 8.5t-66.5 5.5t-18.5 2q-5 0 -30.5 -7t-30.5 -7q-37 0 -57 -14q9 -62 26.5 -188t26.5 -189q36 -236 102 -400q3 -12 43 -12q7 0 41 4t39 4q11 0 201 15q51 4 104 8.5 t73.5 6t23.5 1.5t137 -25v-157zM584 653l-13 -49q-55 60 -116 109l-31 194v25q89 -44 125 -66zM1071 332q-291 -23 -278 -25q-7 0 -11.5 7.5t-11.5 7.5q-15 0 -40.5 -9.5t-41.5 -9.5q-21 0 -86 10l-14 -14h-27q-17 28 -59 180q-33 126 -33 144q0 2 2 2q9 0 51 -31 q42 -26 49 -37q2 -7 6 -17t5 -12q22 -16 39 -16q15 0 59 8t59 8q27 0 47 -4q109 -93 285 -192zM383 131q-25 21 -72 64q-42 39 -63 71q-16 28 -31 103q-12 82 -18 125q-15 105 -39 249q-21 142 -49 238q1 6 2 20t2 19q-31 180 -35 209q62 -12 65 -15q41 -15 54 -47 q61 -258 84 -413q9 -43 18.5 -86.5t20 -87.5t14.5 -64q14 -71 33 -211q14 -115 14 -139v-35zM49 1274l152 -1004l219 -180l-191 1081zM403 967l48 -297l170 -138l-43 340zM641 1047l330 -400l-27 383z" />
<glyph unicode="A" horiz-adv-x="1439" d="M1352 1315q0 20 -205 170q-208 155 -238 160q-77 16 -270 38q-165 19 -184 19h-1q-1 0 -4.5 -0.5t-8.5 -0.5t-12.5 -0.5t-16 -1t-20 -1t-23.5 -0.5q-70 -5 -117 -2q-2 -11 -37.5 -20.5t-36.5 -10.5l-84 -1262q0 -11 144 -210q144 -197 168 -197q5 0 6.5 1t1.5 3t2.5 3 t7.5 1q7 0 31.5 -21t31.5 -22q161 -16 218 -29q34 198 43 261q20 -13 180 -154q133 -115 155 -115q25 0 31 2q110 0 143 2q4 0 23.5 -7t28.5 -7q6 0 10.5 2.5t6 4.5t5 7t4.5 6v1029q0 28 8 176q9 166 9 176zM1235 1354q-30 6 -156 6q-23 0 -104 8q-102 10 -103 10 q-8 0 -28 -9t-25 -9q-7 0 -47 6q-36 8 -61 8l-17 -3q-16 -3 -28 -5q-15 4 -25 -4q-41 8 -85 -8l-3 -2q-25 0 -279 284q130 13 279 13q27 0 156 -17q151 -21 221 -51q74 -31 160 -106q141 -117 145 -121zM1298 -20h-194q-8 21 -23 176q-11 115 -41 159q-83 13 -235 13 q-8 0 -44 -6.5t-40 -6.5q-18 -14 -23 -20q0 -38 -10 -143q-4 -39 -8.5 -73.5t-8 -57t-3.5 -25.5l-148 12l25 1288q27 -3 49 25q129 12 117 12q127 0 440 -12q67 -3 135 -35q12 -156 12 -162v-1144zM535 1303q-26 -51 -29 -127q-10 -178 -24.5 -431t-18.5 -331 q-12 -234 -12 -365q-31 25 -56 31l-172 215q-73 101 -73 186q0 1 1 11.5t3.5 35t5.5 50.5q9 94 12 141q14 295 14 323q6 40 29 170l18 373q10 -9 36 -34t55 -52t59 -55q138 -128 152 -141zM1036 14q-6 6 -284 256q150 3 258 -6q13 -89 26 -250zM1001 981q-23 13 -86 16 q-18 1 -50 3.5t-46 3.5q-5 0 -28.5 8t-28.5 8q-36 -22 -57 -199q-17 -150 -17 -223q0 -55 31 -55q84 0 254 -17q4 46 4 226q0 134 24 229zM938 963q-5 -85 -8 -142t-5.5 -99t-3.5 -61t-1 -18q-74 63 -179 154l29 168q102 0 136.5 -0.5t31.5 -1.5zM885 590q-84 11 -133 8 l-5 63l-2 70l49.5 -49.5t39 -39.5t27.5 -27.5t18 -18.5zM203 1622l-84 -1214l354 -424l66 1347zM758 987l-23 -221l215 -217l21 403zM729 293l358 -352l-57 338z" />
<glyph unicode="B" horiz-adv-x="1320" d="M1249 340q0 2 -12 37q9 88 0 100q-56 63 -121 113q-108 81 -117 90q180 34 242 43v516q0 36 -137 127q-27 18 -170 111q-27 27 -68 75q-41 50 -59 56q-49 14 -82 16q-28 3 -57 0l-33 -4q-2 0 -21 -0.5t-61 -1.5t-90 -2q-46 -1 -87.5 -2t-61 -1.5t-21.5 -0.5h-25 q-3 0 -11.5 0.5t-25 1.5t-32.5 2q-15 1 -31.5 2t-25 1.5t-11.5 0.5q-17 0 -37 -19.5t-20 -33.5q0 -8 7 -47t7 -47q0 -41 -2 -84q-2 -35 -2 -78q9 -255 12 -379q11 -348 25 -619q149 -155 203 -219q68 -88 100 -141q47 -20 51 -21q3 -19 6 -32q16 -13 64 -13l678 -8 q5 83 9.5 171t7.5 136t5 89t3 55t1 10zM1106 1292q-27 -12 -74 -12q-43 0 -100 8t-82 8q-3 0 -8 -0.5t-15.5 -1.5t-19.5 -2t-20 -2l-16.5 -1.5t-8.5 -0.5q-8 0 -49 -6q-11 -1 -23 -2t-18.5 -1.5t-9.5 -0.5q-13 0 -54 14q-44 15 -53 15q-7 0 -36 -5.5t-36 -5.5 q-27 0 -319 267q108 -15 121 -15q37 0 233 8q66 3 123.5 5.5t83 4t27.5 1.5q19 0 94 -72q34 -35 69 -72q101 -66 191 -131zM1124 510q-80 0 -114 -12v2q-1 1 -1.5 4t-1 8t-1 11t-1.5 13t-1.5 15t-1 16.5t-1 18t-0.5 18.5q93 -75 123 -94zM1186 133l-27 -209q-12 0 -172 4 q-78 2 -119 2q-7 0 -17 5.5t-17 5.5h-121h-181l-45 1134q-5 26 -2 86q2 55 2 90q9 0 48 5.5t47 5.5q7 0 30.5 -9.5t30.5 -9.5t29.5 -5t29.5 -5l480 -2v-461l-25 -20q-179 -12 -213 -27v-256q22 -14 60 -14q90 0 182 -2v-318zM477 143q0 -8 -6 -57q-6 -46 -6 -74 q-7 12 -156 142q-108 91 -135 184q-53 183 -53 541q0 154 8 290q3 45 6 102l2 36l6 82q6 82 4 114q147 -93 187 -127q108 -94 108 -184q0 -14 -5 -63t-5 -62v-395q45 -414 45 -529zM999 858v94q0 8 -8 29.5t-8 24.5q-15 109 -22 116q-61 3 -120 6.5t-83.5 5t-26.5 1.5 q0 -9 -4 -21q-33 -33 -33 -164q0 -50 11 -92q2 0 100 -4q65 -3 100 0l9 -2q9 -2 20.5 -4t19.5 -2q21 3 45 12zM999 70v217q-21 34 -102 55q-67 20 -131 20q-13 0 -25 -81q-12 -70 -12 -88q0 -62 29 -115q30 0 112 -15q77 -14 88 -14q20 0 41 21zM934 956q-125 52 -178 117 q38 7 84 4q77 -6 86 -6q0 -63 8 -115zM891 905q-139 0 -141 -2v96q86 -53 141 -94zM936 260l-12 -94q-1 1 -140 131q35 12 103 12q25 0 49 -49zM881 113q-16 16 -43 16q-48 0 -48 4q0 1 1 3l2 3q4 4 4 8q0 5 -13 11v61q74 -68 97 -106zM106 1577l15 -1264l393 -395l-51 1346 zM748 1102l-17 -49l248 -164l-29 203zM770 322l180 -226l29 195z" />
<glyph unicode="C" horiz-adv-x="1167" d="M1090 1251q-15 12 -172 160q-104 98 -181 145q-32 16 -153 13l-19 16q-334 53 -334 55q-8 0 -45 4.5t-45 4.5q-11 0 -32 -15q-23 -18 -35 -22l45 -744q0 -187 -21 -436q1 -2 10 -23t29.5 -68t42.5 -99q54 -124 135 -199q5 -5 22 -38.5t25 -41.5q40 -32 113 -29h602 q-13 23 -16 80q-3 35 0 101q4 94 4 100q13 35 14 39q-115 83 -262 344l-4 -2q-4 -2 -11 -4t-14 -2q-8 0 -49 24q0 24 -6 95q-1 18 -2 35.5t-1.5 26.5t-0.5 11q0 3 0.5 11.5t1.5 24.5t2 30q2 15 3.5 32.5t2.5 28.5t2 17q22 22 58 22h24h11q12 -1 38 -2t56 -2q68 -2 151 -2 l6 94v8q5 133 5 207zM973 1262q-33 2 -355 2q-92 0 -145 20q-38 33 -65 68q-56 58 -131.5 135.5t-94.5 97.5h92q-1 0 21 -4.5t72 -14t116 -22.5l142 -18q88 -12 129 -45q43 -28 110 -101q52 -58 109 -118zM1034 1159q0 -7 -6 -72q-4 -82 -4 -92q-39 0 -70 -2t-67 -2 q-13 0 -54.5 3t-52.5 3q-52 0 -100 -28v-742q8 -14 22 -14q3 0 16.5 0.5t39.5 1.5t53 2t53 2t39.5 1.5t16.5 0.5h28q45 0 58 8q2 -6 2 -239h-574v647q0 26 8 125q9 114 9 121v319q0 26 14 29q20 -4 170 -4q8 0 45.5 -9.5t44.5 -9.5q307 0 309 -2v-47zM963 287 q-158 -19 -193 -19q-38 0 -35 146q3 83 -4 139q49 -20 129 -115q71 -91 103 -151zM416 1237l-31 -1204q-10 30 -53 82q-12 14 -29 34.5t-28 33.5t-19 22q-90 214 -92 270v84v223q0 37 2 107v153q0 81 -14 218q-15 138 -15 143v129q54 -17 174 -158q56 -66 105 -137z M104 1602l15 -1176l287 -465l38 1303z" />
<glyph unicode="D" horiz-adv-x="1339" d="M1282 166q-31 50 -47 166q-7 76 -10 168q-5 126 4 385q1 20 6.5 69t5.5 58q0 42 -18 63q-53 21 -125 90q-53 56 -109 109q-18 18 -41 35q-31 27 -33 37q-67 93 -127 153q-35 51 -51 60q-177 131 -188 131q-2 0 -55 -11q-51 -9 -62 -12q-59 -7 -149 -4q-92 3 -148 -4 q-15 -1 -42 -31t-32 -31q80 -1253 72 -1304q-6 -47 2 -55q37 -69 135 -160q130 -124 164 -166q26 -29 23 -72q5 0 27.5 -9t27.5 -9q15 -2 30 -0.5t32.5 5t19.5 3.5q23 0 154 20q52 9 270 9q19 54 102 157q83 105 162 150zM895 1278q-34 0 -86 -8q-56 -6 -80 -6 q-133 0 -262 12q-38 60 -150 166q-66 62 -186 164q60 0 227 10l82.5 5.5t53 3.5t14.5 1q107 0 311 -229q58 -87 76 -119zM1208 184q0 -11 -51 -53q-64 -55 -82 -76q-10 -15 -30.5 -43.5t-28.5 -40.5q-42 -54 -72 -57q-137 -20 -256 -20q-25 0 -31 2q-39 -10 -127 -13 l-67 1213q0 6 2.5 11t5 7t5.5 4l3 2q-6 64 -6 101h213l141 2q4 0 35 9t41 9q45 0 158 -94q116 -96 119 -127q-3 -276 -11 -440q10 -196 11 -207q0 -32 14 -103t14 -86zM463 127q0 -9 -6 -68q-4 -78 -4 -86q-12 15 -162 144q-94 79 -103 141q-32 172 -59 942q-2 53 -5 130 t-5 127.5t-4 86.5q75 -30 168 -104q118 -93 133 -176q47 -288 47 -1137zM1001 416q-16 236 -20 391q-29 19 -168 125q-98 76 -111 76q-8 0 -15 -3t-11 -5l-4 -3q-4 -199 -4 -204q0 -42 -9 -48q-6 -3 -6 -16q0 -1 2.5 -21t9 -70.5t13.5 -107.5q28 -216 31 -292q22 -31 30 -31 q162 147 262 209zM940 743q0 -73 -4 -151q-3 -76 -8 -88q-10 14 -107 110q-59 59 -102 117q-4 4 -4 82q0 69 12 131q24 -28 119 -98q81 -62 94 -103zM922 436q-131 -111 -168 -139q-1 12 -23 152q-14 88 -14 106v100q168 -161 205 -219zM152 258l333 -387l-18 1405l-354 346 zM709 983l-13 -274l271 -275l-2 354z" />
<glyph unicode="E" horiz-adv-x="1200" d="M1137 -158q0 156 -2 207q-5 105 -10 108l-7 -1h-20q-17 0 -111 94q-105 108 -164 180l15 14q92 -18 139 -18q44 0 55 20q17 146 17 162v140q-47 21 -121 86q-94 87 -131 124q23 0 82 9q52 8 90 8q37 0 67 -10q0 1 3 4t11 10t15 14q-3 67 2 156q6 126 6 156h-12 q-6 2 -21 2q-10 0 -204 188t-220 188q-440 0 -526 -57q11 -281 8 -469q-3 -268 0 -403q-2 -36 -4 -71t-4 -63.5t-3.5 -54.5t-2.5 -46t-2 -37.5t-2 -29.5t-1.5 -20.5t-0.5 -11.5v-4q0 -63 31 -105q132 -174 200 -252q37 -57 76 -114q77 -103 119 -103q3 0 8 0.5t14.5 1.5 t18.5 2q27 3 39 0h1h1l1 -1h1h1h1h1l1 -1h1h2l56 -12h-2q26 0 152 -4t135 -4q106 0 201 18zM930 1309q-46 0 -60 6l-24 -27q-22 19 -60 19q-8 0 -45 -4.5t-49 -4.5q-32 0 -102 -6q-20 -1 -38.5 -2t-27.5 -1.5t-10 -0.5q-24 0 -338 311l379 29q71 0 225 -151 q133 -133 150 -168zM913 770h-10q-10 -1 -31.5 -2t-46.5 -2q-64 -3 -100 2q-13 87 2 170q9 -9 44.5 -30.5t41.5 -28.5q16 -17 38 -41t37 -40t25 -28zM1065 111v-232q-64 0 -119 -2h-86l-33 -8q-4 0 -40.5 9t-45.5 9h-104q-1 0 -47 4q-47 7 -51 7q-21 44 -29 98l-12 110 q-3 87 0 134q-13 18 -17 39q-18 636 0 698q0 1 15 106q14 98 14 158q172 22 248 19h243v-240q-26 5 -155 -4q-17 -2 -86 4q-57 8 -68 8q-14 0 -30 -16v-234q0 -30 32 -55q34 0 119 -6q22 -1 42.5 -2t31 -1.5t12.5 -0.5h84q3 -152 0 -232q-191 21 -268 27q-24 -229 -35 -383 q12 -12 55 -23q45 -10 53 -10q13 0 46 8q10 2 22.5 5t18 4.5t8.5 1.5h182zM1001 158l-38 8l-209 -19q-7 52 -4 125q1 35 2 68t1.5 49t0.5 19q154 -135 247 -250zM471 -78q-79 127 -184 254q-97 115 -115 154q-41 80 -41 213l23 1005q200 -197 297 -284q3 -12 0 -43l-2 -20 t-2 -16.5t-1 -8.5v-531q0 -445 25 -723zM127 1606l-27 -1227l389 -510l-12 1407z" />
<glyph unicode="F" horiz-adv-x="1173" d="M1090 893q-32 90 -33 92q-9 121 -6 199q-166 264 -404 375q-75 37 -266 40q34 -1 -3 -2h-185q-24 0 -62 -14q-47 -21 -47 -47l37 -944l-1 -14q0 -13 -1 -43.5t-2 -65.5q-4 -160 -4 -178q0 -65 10 -117q41 -98 57 -127q28 -54 146 -190q128 -146 157 -146q8 0 14 5t13 5 q8 0 38.5 -8.5t35.5 -7.5h129q-9 9 0 21v180q0 271 24 373q64 6 162 0q126 -9 162 -9q0 4 5 26.5t5 31.5q0 7 -3.5 18t-7.5 19l-3 8q-9 93 2 225q-33 33 -62 49q-55 41 -114 105q-23 23 -99 112l185 6q42 -26 53 -26q16 0 39 17t29 32zM936 1210q-42 -10 -57 -10 q-76 0 -226 6t-147 6q-27 0 -184 154q-91 94 -156 166q34 6 70 6q39 0 124 -10t93 -10l30 8q93 0 164 -45q38 -22 127 -111q88 -85 154 -135q8 -11 8 -25zM965 614q-99 -12 -287 -12q0 9 0.5 25t1.5 46t2 54q6 94 6 143q21 0 29 -4q177 -188 248 -252zM1010 936 q-19 -16 -90 -16q-46 0 -129 6q-73 8 -101 8q-7 0 -59 -25v-223q2 -8 -8 -53q-9 -41 -9 -49q0 -37 54 -37h247q14 0 72 18l23 -20v-203q-20 -14 -74 -14q-40 3 -84 6q-5 0 -15.5 0.5t-29.5 1.5t-35 2q-78 4 -88 4q-15 -21 -22 -35q-3 -57 -9 -268q-4 -242 -4 -281 q-103 15 -149 0l-29 838v580l537 -31q-21 -9 -11 -25q8 -139 13 -184zM434 -162q-46 37 -69 70q-5 5 -27.5 24t-32.5 29q-43 40 -57 68q-67 127 -72 172q-15 323 -12 403q4 110 4 191q0 181 -12 313l-6 365q182 -181 276 -273v-487q0 -27 -2 -68t-2 -92q0 -5 6 -35t6 -37 v-643zM111 1552l47 -1419l303 -387l-4 1462z" />
<glyph unicode="G" horiz-adv-x="1654" d="M1554 -182q0 6 -16 100q-11 67 -16 125q-5 89 -13 209.5t-12.5 201.5t-7.5 138q-3 31 -131 115q-134 87 -158 170v-3l23 9q45 0 250 -27q0 22 -2 84.5t-3 93.5q-4 160 -4 178q-121 74 -180 121q-10 6 -94 90q-63 63 -109 84q-59 24 -163 29q-25 1 -78 4t-78 4 q-15 2 -41 6t-71 11t-81 12q-123 18 -133 18q-8 0 -28 -8t-25 -8q-19 0 -10 12q-90 4 -135 8q-20 2 -38.5 3.5t-26.5 2.5t-9 1q-62 0 -98 -31l34 -838q19 -114 19 -170v-268q0 -146 20 -166q94 -85 271 -203q155 -104 176 -104l614 -27l62 -4q13 -1 26.5 -2t20.5 -1.5 t10 -0.5q2 0 12 -0.5t29 -1.5t39 -2q71 -6 80 -6q75 21 75 41zM1321 1239q-64 12 -102 12q-7 0 -28 -8t-26 -8q-77 0 -145 2t-156 2q-53 0 -194 -12q-40 -3 -76.5 -6.5t-51.5 -5t-16 -1.5q-20 0 -164 138q-148 142 -190 192q143 -10 410 -26l227 -13q156 -9 240 -43 q59 -21 137 -96q125 -118 135 -127zM1393 616q-77 -12 -193 -12q-9 0 -45 31q-46 40 -63 47q-61 28 -138 96q-114 99 -116 101q212 6 276 12q0 -21 2 -29q134 -134 277 -246zM1122 389q-10 8 -28 25t-53.5 51.5t-63.5 60.5q-101 98 -129 115q0 49 2 74q-3 48 -21 86 q102 -66 168 -123q11 -7 35 -21.5t35 -21.5q58 -40 55 -70v-176zM1483 -158l-897 29q6 2 10 14q3 6 0 31q-2 23 -2 57q-8 151 -8 250v232q0 183 -33 374q-9 58 -17 110.5t-11 73t-3 21.5q0 6 3.5 11t8 7.5t8.5 4.5l5 2q-12 74 -15 108q44 13 138 13q44 0 301 8q260 8 301 8 q127 0 139 -63q3 -36 8 -106.5t8 -106.5l-612 26q-9 0 -15 -0.5t-11 -1t-7.5 -3t-4.5 -3t-2.5 -6t-0.5 -7.5v-11v-13q0 -2 2 -26.5t7 -85t10 -125.5q6 -77 11.5 -151.5t10 -138.5t6.5 -89q6 -92 31 -185q55 0 94 -2h92q40 0 97 -8q67 -6 75 -6q7 0 31 -5t31 -5q19 0 37 24 q-3 75 14 213q-15 7 -88 23q-29 4 -43 10t-12 14v209q28 -7 137 -4q88 3 117 -14q52 -527 49 -658v-49zM1249 174q-140 58 -202 92q-24 14 -89 74q-59 56 -94 59l-5 89q-1 35 -1 71q67 -48 100 -67q35 -40 92.5 -108t79.5 -93q12 0 58 -6q40 -6 61 -6v-105zM1169 145 q-98 5 -268 2q-25 127 -35 213q31 -48 142 -120q15 -9 72 -43t89 -52zM547 -88q-234 172 -363 264q-6 137 -12 172l-45 983q0 9 6 70t6 92q145 -154 207 -193q90 -53 119 -131q17 -49 20 -147t17 -133q-1 -8 -2 -23.5t-2 -21.5q43 -246 43 -656v-272q0 -7 1 -8l3 4q2 2 2 0z M104 1552l35 -1386l428 -318l-61 1334zM803 860l26 -258l322 -278v262z" />
<glyph unicode="H" horiz-adv-x="1675" d="M1561 -199q-6 63 -12 117t-9 77l-2 23q0 44 6 115q8 71 8 92q6 221 -14 629q-9 190 0 387q0 14 -16 70q-163 97 -213 125q-90 79 -140 120q-142 121 -170 121q-137 0 -161 -4t-39 -4q-13 0 -54 4t-49 4q-56 0 -78 -32q31 -48 31 -107q0 -32 -8 -51q-9 7 -102 106 q-61 64 -111 88q-24 12 -78 15q-27 2 -94 2l-55 -4q-7 0 -13.5 -4t-13.5 -4q-9 0 -38.5 21.5t-35.5 23.5q-15 -15 -12 -39l4 -37l-12 -15q0 -1 1 -12t3.5 -36.5t5.5 -55.5q13 -107 10 -143q-9 -198 25 -584q32 -378 29 -584q2 -4 4.5 -8.5t3.5 -6.5t2 -3q63 -55 155 -134 t147.5 -126.5t92.5 -81.5q15 -12 59 -12q15 0 78 8q73 6 107 6q62 0 121 -12v75q0 8 -9.5 40.5t-9.5 39.5q0 17 15 23q183 -115 311 -183q11 -7 45 -34q28 -25 39 -25q5 0 100 6q132 4 146 4zM1417 1311q-5 0 -25 -6.5t-28 -6.5q-91 0 -168 50q-93 51 -231 133 q-131 79 -185 139h140q91 0 118 -21q153 -123 217 -182q89 -61 162 -106zM1538 690h-16v33h16v-33zM1229 1253l-2 -21q-2 -22 -6.5 -72t-8.5 -109q-18 -187 -12 -281q-66 25 -86 29q-100 57 -213 127q-25 229 -35 385q-12 18 -53 18q-73 52 -92 82q-21 35 -21 131 q0 16 11 45l336 -207q182 -77 182 -127zM735 1329q-40 6 -162 6q-33 0 -206 129q-97 73 -224 174q41 -3 99 0q86 7 88 7q46 0 80 -17q73 -36 165 -135q156 -164 160 -164zM1149 737q-37 0 -117 -6t-86 -6q-10 0 -47 18q-6 101 -10 123q197 -96 260 -129zM1507 315v-3 q0 -4 -1 -14t-1.5 -23t-2 -33.5t-3.5 -42.5q-6 -117 -6 -189q0 -112 12 -155h-166q-44 201 -41 272v9q1 10 1.5 24.5t1.5 30.5t1.5 33.5t0.5 29.5q0 137 -41 137q-8 0 -10 -4t-9 -4q-9 0 -13 9t-5 9q-6 -9 -6 -18q0 8 -21 8q-9 0 -14.5 -5.5t-9.5 -6.5q-9 -1 -52.5 -3 t-57.5 -3t-50 -4.5t-56.5 -7.5t-49.5 -11.5t-54 -17.5q10 -217 -4 -424q-9 6 -25 6h-61q-42 3 -51 20l-17 -18h-49l-90 1374h164q90 0 110 -57q13 -29 13 -143v-228v-8q1 -8 2 -25.5t2 -37.5q4 -86 4 -97q6 -6 49 -6h135q92 -2 213 -2q0 28 -6 86l-2 34l-1.5 25.5t-0.5 10.5 q0 18 14 164q5 63 13 143.5t10 101.5q0 13 20 13q68 0 189 -39q3 -117 12 -371l10 -242v-297zM1274 -115q-25 3 -86 45q-21 12 -141 74q-93 49 -140 102v185q107 40 293 37h29q5 -56 10 -199q3 -115 35 -244zM590 -84q-210 172 -373 326q-7 92 -13.5 183.5t-11.5 162 t-10 138.5t-9 117.5t-7 94t-5 74t-4 50.5t-2.5 29.5t-0.5 6.5v452q171 -103 352 -252q4 -4 4 -49l80 -1149v-184zM102 1604l74 -1364l451 -357l-103 1438zM844 1282l37 -383l338 -172l28 580l-565 331l-14 -188zM877 299l32 -231l406 -277l-49 578z" />
<glyph unicode="I" horiz-adv-x="1091" d="M1008 -106q-1 7 -4 19.5t-8 34t-9 40.5q-14 55 -14 69v793q0 109 -23 231q25 163 25 174q0 62 -25 107q-37 64 -225 184q-183 115 -225 115q-3 0 -14 -1t-37.5 -4t-51.5 -5q-91 -9 -102 -9q-8 0 -14.5 9.5t-14.5 9.5q-89 0 -143 -4q-5 -9 -23 -25v-243q0 -2 1.5 -13 t4 -34.5t5.5 -47.5q10 -69 14 -123q14 -710 25 -890q72 -66 165 -154q166 -175 220 -197q44 -20 65 -20q32 0 207 -12q134 -8 201 -4zM883 1339q-19 0 -80 -6q-16 -1 -33 -2t-26 -1.5t-11 -0.5q-4 0 -31.5 11.5t-37.5 11.5q-87 -3 -220 92q-36 26 -108.5 79.5t-108.5 80.5 q72 0 117 -2q71 -3 86 -3q81 0 90 -6q254 -136 363 -254zM944 -43q-14 -17 -119 -14q-23 0 -73 6q-46 6 -60 6q-11 0 -16 8q-3 4 -9 6t-15 3t-11 1h-8q-29 221 -29 562v329q0 17 -14 137q-12 132 -12 144v164q136 -17 219 -17q3 0 32 -9t39 -9q24 0 39 18zM567 -18 q-85 27 -196 129q-98 90 -168 198q-19 29 -25 90q-3 44 0 103l4 59v268q0 15 -6 117q-4 126 -2 244q-9 128 -18 207v174q57 -20 141 -80l135 -98q95 -67 105 -76q-13 -65 -11 -82q30 -504 27 -666q6 -63 14 -88v-499zM129 1608l43 -1274l195 -238l219 -153l-27 1407z" />
<glyph unicode="J" horiz-adv-x="1280" d="M1184 -23v1323q-29 39 -88 80q-9 6 -26 17.5t-31 21t-27 17.5q-84 63 -119 90q-53 15 -141 18q-144 6 -148 6l-14 15h-64q-31 0 -272 45q-18 4 -51 18q-9 4 -19 8.5t-14 6.5t-6 2h-39q10 -139 2 -234q-21 0 -31 -10q193 -199 320 -309q62 -69 106 -129q9 -9 53 -21 q23 -7 23 -37q0 -7 -7 -38t-7 -36q0 -4 0.5 -18t1.5 -41.5t2 -56.5q2 -55 -2 -113l-146 146q-78 81 -90 81q-74 0 -266 -14q-33 -17 -33 -33q0 -6 10.5 -31.5t10.5 -27.5q2 -26 5.5 -60t5.5 -56.5t3 -37.5q18 -170 18 -196q160 -154 285 -305q53 -62 74 -62q2 0 10.5 -0.5 t24.5 -1.5l32 -2q17 -1 32.5 -2t23.5 -1.5t10 -0.5h289q9 0 82 -12q68 -13 110 -17q13 -1 57 3.5t50 4.5zM1116 1303h-463q-42 -2 -96 8q-27 8 -76 57q-77 74 -92 86q-104 82 -139 117q510 -69 487 -72q102 0 135 -10q15 -10 175 -119q50 -36 69 -67zM518 1040 q-218 212 -344 312q3 3 -20 26q12 12 16 31v178q245 -198 348 -287v-260zM1137 27q-75 -10 -179 2q-46 6 -133 6q-59 -3 -135 -6q-14 -1 -27.5 -1t-21.5 -0.5t-14.5 -0.5h-8.5h-2q-6 0 -55 12q-49 15 -74 18q0 363 168 363q9 -61 9 -213q21 -27 30 -27q5 0 36 3t36 3 q18 0 86 -8q76 -6 86 -6h33l51 905q0 10 -12 19q-149 9 -172 12q-7 1 -44.5 10.5t-45.5 9.5q-5 0 -20.5 -4t-20.5 -4q-9 -52 -9 -151q-4 1 -15.5 2t-25.5 3t-30 5q-44 8 -72 12q-23 260 -23 264q34 20 50 23q10 -1 68 -4t110 -6q101 -8 184 -8q49 0 96 2q94 4 97 4v-1239z M963 723l-45 -469q-190 150 -216 172q9 33 -24 66q-37 37 -41 49q-16 62 -16 200l6 76q7 80 4 109l-8 10q41 -6 86 -6q23 0 26 6q16 75 2 147l226 -22v-338zM883 215q-2 2 -33 2q-2 0 -44.5 3t-57.5 3l-39 10v129q137 -108 174 -147zM643 467q-37 -16 -121 -16q-74 0 -82 8 q-76 66 -153 155q-24 27 -70 80.5t-70 79.5q81 19 123 19q62 0 80 -11q141 -122 293 -315zM453 111q0 -5 -5.5 -20t-5.5 -19q-9 12 -151 145q-97 87 -141 170q-54 97 -39 334v27q159 -142 168 -150q96 -87 149 -180q31 -57 31 -180q0 -22 -4 -84q-1 -9 -1 -16.5t-0.5 -12.5 t-0.5 -8.5v-4.5v-1zM150 1618l-19 -236l399 -393l9 295zM735 1108v-172h-112l-21 -389l82 -139l264 -193l35 846zM80 786l24 -413l361 -342l-4 397z" />
<glyph unicode="K" horiz-adv-x="1292" d="M1221 8q-26 132 -29 219v398l-20 10t-45.5 23t-59.5 30q-82 43 -100 57q85 69 217 146v199q3 221 10 276q1 5 6.5 20.5t5.5 18.5q-4 3 -21 18t-22.5 20t-21 18.5t-23 19t-21 16t-22 15.5t-19 11.5t-19.5 9.5t-17 5q-41 10 -174 4l-23 10l-21 -6q-29 -6 -97 -18 q0 -170 -21 -320h-18q-3 9 -9 115q-3 63 -22 82q-61 51 -86 68q-7 7 -22.5 21.5t-22.5 21.5q-36 28 -62 28q-7 0 -13 -3t-13 -3q-5 0 -27 9t-27 9q-180 11 -217 11q-39 0 -75 -25q36 -219 36 -614v-189l-2 -20q-3 -39 -6 -72q-6 -99 -6 -176q0 -111 17 -184q9 -33 153 -144 q144 -108 176 -108q5 0 22 11t21 11q25 0 64 -2h82q5 0 25.5 -10t25.5 -10q15 0 18 10q0 320 -2 320q10 0 17 -7q3 -67 -4 -116q90 -74 137 -109q100 -80 117 -125q7 0 39 -4t36 -4q120 0 185 8zM1149 1391q-78 5 -105 8q-62 6 -67 6t-10 -7t-13 -7q-23 0 -75 43 q-34 29 -80 63q180 3 209 -2q22 -3 69 -41q47 -35 72 -63zM885 1374l-8 -280q-40 43 -121 96q-23 16 -23 78q0 -4 3 16t9 69.5t13 116.5q101 -75 127 -96zM856 1051h-184q3 18 0 120h22l15 -14q92 -24 147 -106zM602 1360q-30 2 -59 5t-41 4t-15 1h-59q-11 0 -109 55 q-143 78 -161 86q13 0 44 -0.5t88.5 -1.5t110.5 -2h21q23 0 100 -71q73 -67 80 -76zM1169 45q-17 -10 -61 -10q-58 0 -117 24q-11 41 -8 174q0 110 -45 164q-34 3 -123 9q-76 8 -92 8q-3 -1 -25.5 -5.5t-35 -13.5t-9.5 -26v-267q-107 -12 -211 0q0 75 -8 187q-1 17 -2 33.5 t-2 28.5t-1.5 23t-1 18t-1 12.5t-0.5 7.5v2q0 20 8 104t8 105v282v88q0 3 5.5 17t5.5 20q2 56 4.5 130.5t3.5 88.5q3 60 -19 82h140q8 1 23 -6.5t18 -7.5l5 -85q2 -70 3 -165q0 -57 45 -57q12 0 22 2h25h205v350q6 -1 26 -12t27 -11q5 0 24 8.5t27 8.5q123 0 123 -92 q0 -46 -25 -351q-141 -96 -243 -159q11 -22 102 -70q98 -49 141 -80q13 -37 13 -55q2 -31 10 -172q1 -10 2 -40.5t3 -66.5t5 -73q6 -114 6 -121v-31zM936 109q-150 129 -180 139v114q104 3 147 -4q36 -39 33 -77v-172zM420 1141v-6q0 -6 -1 -21t-1.5 -34.5t-2 -49.5 t-3.5 -63q-11 -239 -13 -383q-7 -288 -4 -475l-209 165q-43 43 -43 146v201q0 22 2 61t2 86q0 40 3 135q2 66 2 141q0 60 -13 222q-3 42 -5.5 78t-3.5 52l-1 15v59h25q4 0 118 -63q13 -6 38.5 -18.5t39.5 -18.5q54 -28 60 -55q10 -45 10 -174zM98 1524l17 -1211l305 -239 v1269zM723 1505l-39 -297l215 -157l29 311zM735 387l21 -139l207 -205l-13 305z" />
<glyph unicode="L" horiz-adv-x="1155" d="M1102 45q9 256 -2 289q-1 0 -4 2t-9 4t-12 2q-39 0 -194 223q-35 47 -58 47q-3 0 -8.5 -0.5l-16.5 -1.5l-22 -2q-25 -2 -47 -2q-24 0 -33 86q9 292 0 301q12 211 13 238q5 45 14 100q10 75 10 76q0 11 -16 37q-23 33 -25 35q-208 178 -215 180q-23 13 -67 16q-25 3 -66 0 q-13 -1 -28 -2t-23 -1.5t-12 -0.5q-6 0 -33 10h-62q-39 3 -53 -14l-14 -307q0 -128 -10 -428q0 -13 -6.5 -47.5t-6.5 -36.5v-313q0 -51 -22 -205q21 -23 65.5 -71.5t65.5 -72.5q81 -81 143 -104q127 -47 479 -47l121 -6q130 -3 144 -2zM651 1440l-51 -2h-84q-7 0 -12 2.5 t-10.5 9.5t-6.5 8q-38 8 -45 12q-29 18 -106 82q-78 65 -113 86q21 -2 79.5 -3.5t95 -6t63.5 -14.5q20 -14 45 -39q107 -55 145 -135zM1053 66l-604 45q-13 123 -13 163q0 14 7 68t8 96v969h127q72 0 110 -14q-29 -227 -29 -580v-326q0 -5 -16 -67q-14 -55 -14 -66t11.5 -23 t21.5 -12q4 0 27 3.5t32 3.5q14 0 82 -11q15 -2 30.5 -5t22 -4t8.5 -1q46 0 172 -12q11 -4 17 12v-239zM1012 338q-27 0 -58 2q-29 2 -49 2q-16 0 -92 8q-73 8 -123 8q0 52 2 91q3 75 6 100q-6 17 -10 24h49q85 3 135 -65q92 -129 140 -170zM426 1356l-31 -1237 q-41 12 -86 39q-26 17 -108 104q-82 88 -82 107l22 247l31 1008q73 -42 143 -96q96 -72 109 -101q2 -6 2 -71zM170 1657l-76 -1317l303 -258l64 1362z" />
<glyph unicode="M" horiz-adv-x="1615" d="M1530 27l-57 1024q0 137 12 202q-78 66 -99 72q-57 26 -71 31q-94 76 -152 127q-40 25 -133 28q23 -1 -3 -2h-134l-746 52q-7 0 -38.5 -20t-42.5 -23v-43q0 -22 8 -101t8 -98v-246q0 -8 8 -35t8 -32v-220q0 -31 8 -172q9 -156 9 -168v-229q0 -61 4 -123 q271 -235 301 -235q8 0 20 12t17 12q-1 0 8.5 -2t31.5 -5.5t50 -8.5l13 2q3 0 9 1l19 1q32 3 41 -12q14 16 26 28q-12 173 -12 199q12 269 21 324q112 -81 157 -129q16 -30 21 -41q93 -12 106 -13q17 -100 17 -135q10 -7 84 -69q57 -47 88 -62q61 -32 149 -125q3 0 53 -4 q41 -6 47 -6q69 0 127 10q0 39 17 234zM1374 1276q-46 0 -137 -6t-94 -6q-16 0 -68 8t-67 8t-56 -8q-39 -8 -51 -8q-5 0 -36 10.5t-40 11.5q-26 2 -105 8t-132 9q-3 0 -13.5 5t-19.5 5q-7 0 -4 -8.5t-4 -8.5q-5 0 -30 8.5t-32 8.5q-5 0 -21 -4t-24 -4q-7 0 -23 8t-24 8 q-9 0 -106 72q-25 19 -77.5 57.5t-78.5 58.5h53q10 0 86 -12t88 -12l568 -17q132 0 182 -18q55 -23 137 -86q90 -69 129 -88zM1481 264q-9 -364 -19 -430q-98 0 -145 8q0 65 -6 197t-6 176q0 58 2 115q2 51 2 121q-3 74 -11 114q-32 3 -106 31q-99 34 -127 39 q-28 -73 -31 -184q-2 -66 -2 -195l-22 -37q-43 0 -117 19q-24 45 -29 104v14q-1 13 -2 42t-2 63q10 94 17 131q-4 5 -10.5 12t-8.5 10q-175 -24 -180 -24l-25 8q-48 0 -51 -23q-2 -70 -2 -333v-209q0 -1 -0.5 -8.5t-1.5 -23.5t-2 -34q-4 -86 -4 -92h-146l-43 1167q0 6 13 29 q4 176 4 199q53 0 100 2h76l375 -41h442zM1272 -109q-261 172 -258 209v78q29 -16 55 -16q45 0 45 104q0 35 -2 68v76q0 80 8 129q64 -15 103 -15q14 0 18 -2h8q17 -202 17 -264v-217l5 -74q1 -35 1 -76zM813 309q-32 26 -82 68t-69 57q-11 75 -13 70q0 39 15 39q6 0 8 -2 q38 16 57 14h84v-246zM395 150q0 -130 -10 -250q-112 87 -186 149q-41 35 -41 70q0 3 1.5 25.5t3 54.5t1.5 57l-25 690q-16 68 -14 101v397h29q132 -102 204 -150q12 -53 0 -174q-2 -14 4 -63q9 -47 9 -51v-455q0 -10 12 -201t12 -200zM94 1499l31 -1421l293 -230l-31 1430z M641 557l6 -158l199 -159l-8 342zM1108 565l-94 -387l-25 -104l289 -238v696z" />
<glyph unicode="N" horiz-adv-x="1497" d="M1413 -20l-70 1081l5 88q2 54 2 117q0 39 -17 53q-46 38 -135 86q-1 0 -121 59q-26 16 -114 78q-68 51 -80 51q-7 0 -47 -6q-54 -4 -56 -4q-18 0 -41 2h-39h-630l36 -645q0 -392 -10 -477q-8 -68 -8 -123q0 -29 4 -57q11 -44 152 -203q138 -156 176 -156q1 0 8.5 0.5 l22.5 1.5t32 2q39 2 82 2q16 0 59.5 -7t45.5 -7q20 0 55 18v41q0 4 -10 56l-13 61q-22 269 -14 393q6 107 -2 152h141q9 -12 11 -14q9 -327 12 -488q240 -205 258 -223q4 -18 6 -25q23 -16 37 -55q125 43 227 16q35 27 35 132zM1274 1294q-32 0 -115 6q-80 9 -84 9h-655 q-12 0 -101 80q-29 27 -151 133h1h1h1h1l2 1h1h1h1h1h1h1h1h2h1l1 1h1h1h1h1h1h1h2h1l1 1h1h1h1h1h1h1h1h1h2l1 1h1h1h1h1h1h1h1h1h1l1 1h2h1h1h1h1h1h1h1h1l1 1h1h1h1h1h1h2h1h1h1l1 1h1h1h1h1h1h1h1h1h1l1 1h1h1h1h1h1h1h1h1h1l1 1h1h2h1h1h1h1h1h1h1l1 1h1h1h1h1h1 l160 16l418 -8q42 -18 111 -63q79 -48 106 -60q75 -25 205 -123zM1374 -2q0 -34 -18 -102q-100 0 -158 -9q-7 7 -12 17q-3 266 -39 743q-3 14 -33 17q-317 15 -461 12q-6 -64 -6 -152q0 -80 10 -282q15 -200 15 -260q-6 -9 -19 -19q-98 11 -213 8v529q0 48 -8 121 q-8 76 -8 90v290q0 22 -8 95q-8 76 -8 96q0 92 88 92l798 -22q19 -36 19 -50l18 -843zM1141 -51q-11 11 -123 88q-82 59 -129 129q-2 2 -2 72q0 4 -8.5 22t-8.5 25q1 7 4 8q7 -3 7 0v176q-3 73 0 149q39 17 49 17q9 0 123 -12q32 -3 47 -21q12 -109 24 -164q20 -223 17 -307 v-182zM408 268q0 -117 -27 -258q-177 174 -242 279q-8 13 -8 110q0 71 8 172q11 143 11 177q-14 268 -35 540q-1 8 2 113q3 87 8 108q225 -206 248 -227q-2 -64 4 -229q3 -53 6 -117l2 -33v-239zM96 1561l-4 -1278q-3 -21 316 -322l-7 1307zM864 647l-14 -512l313 -264 l-26 750z" />
<glyph unicode="O" horiz-adv-x="1415" d="M1341 -57q-14 113 -16 104v197q0 12 -8 53q-6 46 -6 63l-19 930q-27 -3 -88 43l-84 64q-221 125 -303 188q-56 9 -59 10q-41 9 -49 9h-486q-5 0 -26 4t-29 4q6 0 -3 -3l-93 -22l92 -1116q0 -35 -12 -143q12 -12 71 -60q42 -34 101 -96q45 -45 129 -113q90 -70 131 -114 q8 -3 16 -6.5t11.5 -5t4.5 -1.5q17 0 33 2h37q32 0 84 -8t66 -8q18 0 75 8q67 6 78 6v0q46 -1 105 -2q102 -3 155 0q21 -12 29 -12q9 0 35 12.5t28 12.5zM1184 1294l-572 -18q-68 0 -92 18q-137 103 -356 271h522q58 3 119 -27q136 -82 182 -113q72 -41 197 -131zM1286 -18 q-24 -7 -221 -7h-332q-37 1 -63.5 2.5t-38 2.5t-10.5 2q-13 106 -29 352q-12 188 -12 225v436q0 2 -9 101q-6 102 -6 147q44 0 117 8q85 9 90 9q10 0 86 -9q68 -8 86 -8q22 0 103 8q91 9 102 9q1 0 104 -25l17 -670q-2 -94 -2 -157q0 -44 8 -117q2 -22 5 -44t4 -31t1 -11 v-223zM571 29q-112 78 -364 315q-30 403 -45 707q-1 17 -4 46.5t-8 79.5t-9 91q-15 149 -14 153v113q152 -103 354 -248q28 -22 31 -90q3 -80 8 -96q12 -41 12 -131l17 -709q5 -50 12 -127t10 -104zM1067 862q0 20 -18 35q-168 21 -248 -8q0 -96 8 -227q8 -145 8 -201 q15 -19 17 -25q133 8 217 8q0 92 2 164q4 148 4 160q0 14 2.5 36.5t5 39t2.5 18.5zM1010 858v-160q0 -104 -9 -159q-123 63 -161 110v178q8 -8 18 -8q6 18 6 31q26 16 70 16q4 0 35.5 -4t40.5 -4zM995 485h-114q-5 18 -13.5 48t-11.5 42q27 -18 74.5 -48t64.5 -42zM111 1567 l53 -1223l434 -375l-63 1280zM831 872l7 -256l192 -96l2 342z" />
<glyph unicode="P" horiz-adv-x="1220" d="M1151 449l-33 727q-50 14 -172 118q-27 24 -98 101q-54 57 -82 73q-21 15 -94 15q-287 0 -561 -4q-43 -12 -43 -25v-22q0 -6 12 -74q10 -56 14 -103q0 -5 8 -141q1 -27 2 -51.5t1.5 -36.5t0.5 -14l-10 -154q-8 -141 -8 -235q-6 -63 -12 -95v-307q153 -153 264 -282 q29 -37 29 -56q15 -18 32 -18q8 0 30.5 7t25.5 7q21 0 73 6q74 4 86 4q55 0 101 -16q3 3 9 13.5t9 13.5q-3 10 -12 45t-13 51t-8 43t-4 49q0 37 2 55q2 15 -8 68q-8 41 -8 59q0 43 -2 78q-2 37 -2 78q39 20 82 20q2 0 12.5 -0.5t31 -1.5t42.5 -2t43 -2t32 -1.5t13 -0.5 q5 0 5 8.5t5 8.5q7 0 22.5 -4.5t20.5 -4.5q15 0 62 -8t61 -8q23 0 39 19zM993 1202l-426 12q-7 0 -5 -7t-3 -7q-7 0 -21 4t-18 4q-15 0 -39 4q-21 -12 -28 -12q-38 0 -93 49q-15 13 -43.5 41t-42.5 41q-34 26 -82 63.5t-61 47.5h490q87 0 127 -19q21 -12 79 -73 q74 -77 166 -148zM1100 487h-453q-10 -8 -22 -14v-31q36 -453 41 -458q6 -6 6 -19v-41q-156 -6 -250 0l-16 553q0 20 8 111t8 106v473q147 9 266 9q248 0 391 -33zM389 825q0 -21 -8 -120q-1 -19 -4 -59t-4 -60v-619q-210 195 -248 279q-19 43 -19 209l9 100q9 106 12 186 q8 257 8 353q0 32 -6 114q-6 78 -4 82v96q45 -17 151 -114q113 -98 113 -129v-318zM915 707v245q0 27 -43 33q-92 10 -149 10q-63 0 -98 -18q31 -48 22 -133q-9 -97 2 -137h41q3 0 36 6t46 6q61 0 143 -12zM866 754q-83 71 -186 133q0 39 10 69h168q8 -8 8 -202zM797 754 q-89 0 -115 8v76q13 -9 63 -33q37 -21 52 -51zM100 1438l-10 -1196l307 -344l6 1282zM895 956l-227 19v-105l233 -143z" />
<glyph unicode="Q" horiz-adv-x="1449" d="M1372 14v37q0 11 -24 217q-25 214 -25 215v529q0 202 -12 291q-199 116 -305 200q-81 66 -111 72q-42 10 -227 10l-576 25l23 -895l-2 -25q-3 -23 -4 -39q-7 -75 -7 -116q0 -99 25 -154q42 -89 131 -178q27 -26 81.5 -77t82.5 -77q32 -29 72 -29q7 0 45 4.5t45 4.5 q92 0 129 -21q63 -42 182 -121q6 -49 14 -59q7 0 127 -8q87 -9 131 -27q0 6 10.5 16.5t16.5 10.5q-16 71 -8 194h186zM1212 1307q-171 9 -395 0q-83 -3 -112 -11l-17 17h-119h-84q-8 0 -118 96q-111 99 -158 156l573 -23q93 0 197 -72q39 -28 116.5 -81.5t116.5 -81.5z M1313 66q-33 -11 -96 -3q-63 6 -89 -14q15 -199 -10 -199q-1 0 -8 1.5t-23.5 4t-35.5 5.5q-55 8 -93 8q-31 78 7 180q-22 22 -31 25h-440v1177q14 0 14 27q11 0 27 -16q8 8 8 16q97 -17 196 -14q153 6 359 6q16 0 92 -17q18 9 88 9v-584q10 -166 18.5 -318t12 -218.5 t4.5 -75.5zM473 739l-27 -624h-30l-125 125q-75 78 -105 149q-41 89 -32 252q9 184 -4 233l-7 676q38 -28 108.5 -81t102.5 -76q119 -101 119 -217q0 -26 -6 -82q-4 -67 -2 -82q3 -118 6 -201q2 -43 2 -72zM905 -63q-108 66 -127 79q33 13 80 13q28 0 47 -19v-73zM1143 438 q0 10 -8.5 46t-8.5 42v256q0 175 -8 248q-10 10 -31 10q-5 0 -29 -11t-32 -11q-205 -11 -338 -8q-29 -3 -29 -33q0 -6 21 -162q21 -169 27 -246q10 -134 14 -250q93 -43 176 -43q20 0 35 11q-3 57 14 135h103q62 -3 94 16zM1094 823q0 10 -3 -2q-2 -9 -4 -28 q-8 -51 -14 -244q-158 149 -342 315q-17 49 -20 90q189 14 354 35q8 -48 15.5 -89.5t10.5 -58.5t3 -18zM1075 485q-3 -15 -10 -22q-109 16 -160 16q-7 0 -71 58l-95 90l-10 132v-1v53zM897 436q-10 -45 -10 -108q-88 16 -123 16q-16 135 -19 211q113 -85 152 -119zM117 1587 l16 -1122l60 -160l280 -264l4 1253zM700 985l5 -135l399 -344l-17 508zM725 590l12 -244l168 -53l25 139zM717 49l209 -170l16 154z" />
<glyph unicode="R" horiz-adv-x="1308" d="M1247 -100v80q0 45 -18 69q6 34 0 170q-10 268 -8 299q-31 31 -39 41q-17 14 -103 72q-63 42 -71 65q5 5 112 70q88 52 88 84l-24 524h-39q-16 47 -72 90q-254 181 -297 181l-588 -9q-72 0 -84 -2q-38 -49 -38 -67q0 -12 6 -39q8 -31 8 -41q6 -40 6 -270v-87 q0 -59 10 -219q4 -54 8 -105t6 -79t3 -37q1 -14 2 -42.5t2 -43.5q0 1 0 -8v-17t-0.5 -24.5t-0.5 -33t-0.5 -40.5t-0.5 -49q0 -136 6 -160q20 -71 112 -184q77 -86 150 -174q59 0 143 -8t99 -8q7 0 16 8t14 8q43 0 43 27q0 23 -6 73q-6 53 -6 74q0 37 10 57q26 -20 76 -57.5 t76 -56.5q99 -77 131 -140q43 3 106 -2l74 -6q4 0 41.5 8.5t46.5 8.5zM1077 1393q-15 0 -48.5 0.5t-96.5 1.5t-121 2q-17 0 -80 -8q-19 -2 -39 -3.5t-29 -2.5t-12 -1q-5 0 -4 7.5t-6 7.5q-3 0 -37.5 -5.5t-48.5 -5.5q-9 0 -23 1t-35 2t-38 2q-64 6 -70 6q-7 0 -13.5 -7.5 t-13.5 -7.5q-18 0 -251 205q71 6 120 -26q3 3 0 14l-4 14l475 17q136 0 375 -213zM1079 623l-8 -9l-10 13l6 8zM1192 -55q-104 2 -176 2q-6 228 -45 413q-78 2 -182.5 6t-131.5 5q-7 -7 -10 -15q-4 -132 -4 -151v-244q-107 -12 -229 0q6 178 6 328l-45 1052q294 33 444 33 q6 0 47 -12q45 -10 49 -10q2 0 10 0.5t23.5 1.5t32.5 2q16 1 33 2t26 1.5t11 0.5q20 0 63 -19q41 -18 41 -38v-451q-176 -116 -225 -139q19 -42 106 -97q103 -65 142 -110v-203q0 -9 6 -49q8 -36 8 -49v-260zM381 332q0 -1 -0.5 -3t-0.5 -5.5t-0.5 -8t-1 -10.5t-1 -14 t-1 -16.5t-1 -20t-0.5 -23.5q-4 -110 -4 -231l-57 72t-58 71q-69 92 -88 144q-10 30 -10 71q0 44 8 123l-39 596v445q43 -36 102 -86t78 -66q36 -29 33 -131q-3 -52 0 -154l4 -104zM969 -8l-277 211v119l234 -11q24 -66 32 -176q1 -11 2 -21.5t2 -19t1.5 -16t1.5 -13.5 t1.5 -11.5t1 -9t1 -5.5t0.5 -3v-1v-43zM924 1030q0 22 -6 72l-2 28t-2 22.5t-1 12.5q-15 3 -49 -6l-20 -5l-10 -3q-35 0 -82 2q-20 1 -39 2t-29 1.5t-12 0.5q-18 0 -34.5 -16.5t-16.5 -36.5q0 -13 8 -94q8 -79 8 -136q77 -32 125 -32h67h93q0 51 2 94v94zM883 911 q-76 45 -213 156v59q9 -15 18 -18q114 15 178 18q19 -37 17 -49v-166zM821 887q-86 9 -137 18q3 37 -14 105q58 -47 151 -123zM96 1561l45 -1287l258 -340l-32 1389zM649 1133l4 -89l242 -178l12 271zM662 338l20 -164l315 -252l-36 400z" />
<glyph unicode="S" horiz-adv-x="1185" d="M1116 1141q-6 21 -16 54.5t-13 45.5q-5 138 -16 164q-14 39 -90 88q-19 12 -57 35.5t-58 34.5q-16 13 -63 57q-39 36 -53 39q-67 17 -177 20q-113 4 -190 2l-102 -4h4q-5 0 -38 -7t-38 -7q-73 0 -111 14l-4 -3q-5 -2 -9.5 -7t-4.5 -12q0 -1 16 -76q18 -70 21 -98 q7 -128 20 -410q3 -115 8 -125q27 -41 97 -92q57 -37 75 -51q23 -13 68 -51q29 -26 47 -31q95 -22 96 -23l-6 -41l-82 9q-58 0 -231 12q-5 0 -23.5 5t-23.5 5q-14 0 -27 -8q-21 -15 -22 -16q-9 -261 -9 -308q0 -63 2 -67q26 -53 166 -187q131 -125 148 -125q7 0 12 4.5 t12 4.5q10 0 13 -13q1 -7 2 -13l1.5 -9t0.5 -4h448q55 -7 125 -19l1 -3q1 -3 5 -6t11 -3q20 0 38.5 17t18.5 36l-39 862q0 1 3 3t6 7t3 11q0 14 -6 35q-70 59 -145 104q-113 92 -131 125q51 11 149 8q109 -3 150 0q4 3 18 17zM1016 1403q-58 0 -107 -2h-80q-10 0 -10 -17 q-17 17 -69 17h-201q-81 0 -127 24q-93 52 -248 201q22 1 98 3.5t131 4.5q138 6 146 6q127 0 178 -26q67 -37 147 -98q29 -24 142 -113zM961 907h-107q-49 -2 -109 -2q-3 17 -18 68q-12 43 -12 53v94h53l-14 -18q81 -81 207 -195zM465 760l-141 80q-84 54 -125 114 q-10 14 -13 58v82q-10 49 -18 69q-4 66 -4 221q-3 130 -12 201q102 -72 272 -219q6 -98 27 -311q15 -195 14 -199v-96zM1055 1178q-22 -14 -56 -17q-21 -3 -55 0q-54 4 -55 4q-77 -3 -209 11q-2 -1 -8.5 -4.5t-9.5 -7.5t-3 -11q0 -8 6.5 -27t6.5 -22q23 -198 41 -238 q79 8 260 8q5 0 28.5 -8t28.5 -8l23 -436v-451q-295 26 -555 23v102q0 1 0.5 5.5t1.5 15t2 22.5q8 151 8 160q0 3 -2 29t-2 34q88 -6 336 -6q29 0 39 29q9 269 12 324q-10 7 -14 16q-256 30 -355 37q-45 380 -57 518l8 88q133 -10 221 -10q34 0 156 4q91 6 137 6h25 q19 -15 22 -16q19 -81 19 -140v-34zM836 688q0 -136 -9 -231q-50 40 -57 45q-74 46 -111 71q-92 62 -92 93q0 8 4 22.5t4 16.5h158q5 0 36 -8.5t38 -8.5h29zM807 401q-37 -3 -94 -7l-76 -7q-5 0 -29 6t-28 6q-85 3 -185 84q-159 142 -168 150q58 -6 197 -6q7 0 4 -7.5 t4 -7.5q3 0 15 3t20 3q39 0 92 -30q8 -5 34.5 -23.5t41.5 -27.5q102 -62 145 -91q21 -24 27 -45zM467 217q-2 -29 -6 -88q-4 -114 -4 -127q-79 68 -166 145q-91 85 -133 158l10 305q187 -108 272 -209q26 -33 29 -102q-1 20 -2 -3v-79zM119 1638l41 -692l338 -221l-41 657z M545 727l-2 -106l315 -228l4 309zM137 659l-8 -358l348 -332l25 414z" />
<glyph unicode="T" horiz-adv-x="1462" d="M1409 944v35q0 9 -5 26.5t-5 20.5q-1 5 -8 96q-9 64 -9 107q0 47 9 84q-166 155 -230 198q-134 79 -178 99q-40 30 -49 30q-14 0 -55 -8t-54 -8q-32 0 -207 8t-206 8q-3 0 -142 19q-132 18 -139 18q-28 0 -37 -6q-3 -4 -12.5 -12t-12.5 -16.5t-3 -26.5q0 -194 -3 -180 q-1 4 -2 30q3 -147 37 -211q33 -67 129 -145q75 -59 164 -125q2 -1 12 -6.5t13.5 -8.5t7.5 -9.5t4 -14.5q40 -6 55 -4q15 -15 19 -27q15 -138 24 -237q32 -188 35 -567q35 -31 74 -70q13 -16 41 -45.5t41 -44.5q63 -66 100 -66q1 0 11 -0.5t31 -1.5t44 -2q79 -6 117 -6 q18 0 51 10v1053q76 0 86 -10q13 0 44.5 -3t33.5 -3q1 0 18.5 2.5t61.5 8t94 11.5zM1309 1333q-36 8 -113 8q-110 0 -324 -20q-225 -21 -270 -21q-50 0 -110 17q-35 12 -93 76q-43 48 -133 125q-71 58 -108 112h63q5 0 38.5 -9.5t41.5 -10.5q331 -33 420 -33q17 0 80 8t82 8 q44 0 143 -51q74 -36 131 -76q61 -51 152 -133zM434 1247q-9 -9 0 -225q-175 76 -291 256q-37 58 -22 266v41q157 -131 198 -164q121 -103 115 -174zM1354 969h-101q-47 -2 -79 -2q-21 0 -123 24q-25 -16 -25 -47q0 -9 6 -44.5t6 -43.5v-350q0 -21 -8 -117q-8 -93 -8 -113 v-344q-21 -12 -57 -12q-12 0 -66 4q-44 8 -61 8q-9 71 -9 205v346l-1 9q0 8 -1 26.5t-2 40.5q-2 49 -2 111q0 30 6 92q9 62 9 65t-1 10.5t-2.5 23.5t-3.5 32q-4 78 -4 84q-29 20 -41 20q-5 0 -18.5 -6t-17.5 -6q-14 -2 -164 -2q-7 0 -39 11.5t-39 11.5q-8 0 -21 -7.5 t-16 -7.5v293h494q2 0 7 0.5l15 1.5t21 2t22.5 2t17.5 1.5t9 0.5q9 0 80 6q70 9 80 9q98 0 126 -25q9 -176 11 -164v-149zM788 -45q-33 13 -90 70q-59 59 -82 104q-22 36 -22 162q0 5 4.5 46t3.5 54q-23 278 -49 551h235v-987zM94 1638l-4 -368l356 -295l3 325zM522 954 l62 -825l231 -219l-4 1059z" />
<glyph unicode="U" horiz-adv-x="1634" d="M1552 -82v51q-7 261 -14 396q1 33 2 71t1.5 58t0.5 30v303v357q-21 65 -90 137q-42 46 -135 121q-7 5 -23 8q-6 0 -24.5 -2t-20.5 -2t-15.5 -0.5t-41.5 -1.5t-59 -2q-34 -2 -73 -3.5t-63.5 -2.5t-38.5 -2q-27 -27 -45 -39q41 -121 41 -617q0 -53 -14 -119q-15 9 -59 9 q-35 -3 -45 14q-1 13 -4 40t-8 72.5t-9 88.5q-14 123 -14 141q0 126 -10 211q-42 3 -68 29l-135 129q-130 118 -172 118l-131 -4q-130 -3 -195 0q-35 -56 -35 -61q0 -2 1.5 -10.5t5 -30t6.5 -41.5q15 -78 18 -109q5 -119 13 -297.5t10 -236.5q3 -46 -5 -135q-8 -93 -8 -107 l2 -250v4q160 -113 232 -182q27 -27 82.5 -83.5t83.5 -84.5q7 7 28 21q18 12 31 12h27q2 0 17.5 0.5t48 1.5t69.5 2t69.5 2t48 1.5t17.5 0.5q465 0 526 -2q22 -2 84 -12q65 -10 66 -10q6 0 10 2t5.5 4t4.5 6.5t4 5.5zM1473 1198q-156 12 -261 12q-6 0 -118 86 q-112 89 -115 99q18 0 162 4q34 2 59 3.5t35.5 2t9.5 0.5q45 0 127 -88q14 -14 101 -119zM1196 709q0 1 0 -1t-1 -8.5t-1.5 -14.5t-2 -22t-3.5 -28q-8 -60 -4 -123q2 -35 2 -123q-134 180 -180 234q-3 9 0 18q-3 13 -17 31q9 76 -2 123l-6 522q32 -25 121 -76q60 -35 78 -65 v-293q1 -4 8 -88q8 -68 8 -86zM678 1231q-63 -15 -107 -4q-17 -17 -98 -17q-12 0 -139 95q-123 90 -213 153q102 12 246 12q51 0 163 -92q97 -82 148 -147zM1513 688q0 -4 -6 -29t-6 -34q-6 -237 -6 -357v-301q-15 -3 -37 0q-27 6 -31 6l-81 -6q-80 -3 -127 0 q-217 15 -285 15q-6 0 -9 -2t-1 -5l4 -10l-21 17q-129 -17 -381 -17v166q1 2 5 12.5t7 21.5t3 17q0 4 -7.5 40.5t-7.5 45.5q0 70 6 146q3 34 -6 129q-9 109 -12 178q0 7 -10 37t-10 37v366q22 19 141 19q5 0 37 7t39 7q56 0 65 -225q8 -200 8 -592q0 -14 14 -26.5t31 -12.5 q255 0 402 -16q6 3 12 12q-2 20 -6 58l-6 57q-9 75 0 120q8 41 8 90q0 39 -10 107q-8 57 -8 86q0 5 7 23.5t7 23.5q0 200 4 262q144 3 256 -8q0 -116 8 -283q2 -35 3.5 -67t2.5 -52.5t2 -35.5t1.5 -21.5t0.5 -5.5zM1133 375q-78 4 -291 4q-20 54 -17 92v156q105 -4 119 -2 q129 -147 189 -250zM494 147q0 -42 -21 -174q-180 186 -328 277v203q-2 80 2 180q0 56 -8 340q-10 207 -10 213q-8 123 -8 143q0 30 10 68q25 -16 77 -45.5t77 -44.5q101 -59 147 -105q26 -26 29 -141q2 -81 -2 -184l-6 -63v1zM84 1444l39 -1200l377 -336l-11 1282z M956 1378l-16 -719l291 -337l-17 845z" />
<glyph unicode="V" horiz-adv-x="1574" d="M1507 1190q0 17 -26 37q-79 55 -105 69q-49 44 -170 164q-103 103 -108 103q-3 0 -8 -0.5t-15.5 -1.5t-19.5 -2q-10 -1 -19 -2t-14 -2t-6 -1q-11 0 -60 -8q-52 -6 -84 -2q-44 6 -45 8l58 -761q0 -49 -29 -78l-12 14q10 110 4 242q0 35 -12 149q-13 110 -13 150 q-139 133 -239 223q-14 13 -39 37t-39 37q-43 41 -78 51q-46 14 -137 20l-191 6q0 -7 -10 -20q10 -11 8 -15t-9 -11t-7 -13q0 -1 0.5 -11t2 -39.5t3.5 -57.5q8 -96 8 -160q0 -62 2 -111v-76v-208q0 -16 11 -220q9 -179 18 -188q110 -170 281 -354q24 -24 73 -49 q18 -11 58 -19q38 -9 47 -18q181 -152 192 -152q16 0 68 8q58 9 67 9t168 -21q156 -20 172 -20q13 0 95 73q107 97 131 115q1 21 3.5 89t4.5 118q1 37 2 69.5t1.5 47.5t0.5 16v221l4 162q2 111 2 250q-3 26 4 80q6 49 6 53zM1378 1241q-14 0 -29 2.5t-26.5 5.5t-21 6.5 t-15.5 6.5l-6 2q-4 0 -40 -4.5t-44 -4.5q-18 0 -211 156q-47 47 -76 84q94 18 158 18q26 0 143 -114q145 -142 168 -158zM1159 1237q-21 -139 -24 -180v-414q0 -25 -19 -125q-64 49 -125 125q-77 96 -69 139q4 24 4 54q0 4 -2.5 38.5t-8.5 116.5t-12 170q-22 283 -24 303 q130 -114 280 -227zM731 1307q-21 -3 -61 0q-14 1 -25.5 2t-17 1.5t-6.5 0.5q-13 0 -37 -15l-445 295q85 3 94 0q68 -10 105 -10q87 0 201 -102q32 -28 96 -86t96 -86zM1450 401q-22 -232 -27 -284q-3 -16 -90 -94q-90 -78 -104 -78q-17 0 -80 8q-71 6 -82 6q-14 0 -55 8 t-56 8q-2 0 -11 -0.5t-26.5 -1.5t-35.5 -2q-17 -1 -34.5 -2t-26.5 -1.5t-11 -0.5q-22 0 -125 86q-86 71 -115 103q-1 6 1 19.5t4 24.5l2 11v254l-41 422v3q0 2 0.5 7.5t0.5 14t0.5 20.5t1 26t1 32t0.5 38q4 192 4 217q25 19 88 19q9 0 47 -9q33 -8 47 -8q31 0 51 -10 q6 -92 16.5 -220.5t10.5 -129.5q2 -70 2 -211q3 -135 14 -209q20 -30 35 -39q52 -116 178 -233q32 29 66 98q9 21 28.5 62t28.5 61q24 24 25 26q0 254 2 381q3 189 33 383q92 3 225 -51zM1118 451q-63 -105 -92 -175q-174 171 -174 308q0 28 35 96q20 -19 112 -117 q65 -68 119 -112zM528 385l-6 -92q-4 -122 -4 -146q-100 56 -201 175q-97 110 -143 206q-13 23 -16 86q-2 31 -2 95q-9 194 -25 290l10 539q182 -103 359 -235q3 -15 0 -48q-1 -12 -2 -22.5t-1.5 -15t-0.5 -5.5v-424q0 -3 1.5 -23.5t6 -73t8.5 -105.5q4 -51 8.5 -104 t6 -73.5t1.5 -23.5zM115 1575l28 -1028l168 -248l240 -193l-21 1197zM846 1520l49 -781l-68 -229l209 -272l123 227l33 747z" />
<glyph unicode="W" horiz-adv-x="1941" d="M1864 131q0 -1 -2 20.5t-7 72.5t-10 114q-21 216 -24 328q-2 47 -2 317q-3 189 -9 236q-3 25 -43 71q-44 53 -53 66q0 1 -37 71q-35 60 -65 60q-175 0 -242 -23q-2 -47 -2 -153v-185q0 -78 -12 -295q-3 -15 -6 -18h-76l-14 12v179q3 168 -37 258q-27 59 -105 149 q-70 82 -84 82l-94 -6q-99 -6 -137 -4q-11 -18 -27 -21q-10 -23 -10 -76q0 -10 6 -65q8 -47 8 -61v-199v-184l-65 6q-33 313 -45 413q-94 54 -181 230q-20 10 -28 10q-5 0 -14.5 -3t-14.5 -3q-11 0 -145 20q-96 13 -238 29l57 -727q0 -254 9 -309q25 -67 51 -103 q190 -279 223 -293q76 -32 338 -38q-22 1 3 1q32 1 251 1l866 -29q17 31 17 49zM1733 1255q8 1 -4 1q-18 1 -150 1q-13 0 -23 19q-14 26 -32 47q-9 7 -45 37q-29 34 -54 82q65 8 177 8q18 0 73 -94q7 -14 27.5 -48t30.5 -53zM1554 1200q0 -5 -5 -28t-5 -27q-4 -192 -4 -221 v-269q-94 54 -141 115q-8 13 -8 47q0 31 2 78q1 20 2 39t1.5 29t0.5 12v313q0 2 0.5 7.5t1.5 17.5l2 24q6 47 6 64q14 -16 39 -47.5t39 -46.5q69 -87 69 -107zM1188 1229h-80q-84 -3 -111 16q-45 30 -94 90q-15 17 -43 53.5t-43 53.5q43 0 111 8t82 8q35 0 178 -229z M1511 621h-256q-3 18 0 67q7 72 7 80l16 8q16 8 22 8h46q3 -19 67 -77q94 -82 98 -86zM967 1192l-31 -494q-32 32 -64 72q-43 46 -55 96q-17 74 -20 181q-2 52 2 188q1 35 1.5 69.5t0.5 28.5q0 5 5 23t5 22q14 -9 27 -18t26.5 -21.5t21.5 -20t22 -24t18 -21.5t20 -24.5 t17 -21.5q4 -8 4 -35zM1819 119q-210 -3 -312 6q-3 0 -26 7t-31 7h-201l-819 51q0 55 -22 347v727q77 18 227 0q28 -132 49 -426q4 -176 4 -207q10 -13 31 -13q228 0 258 -6q5 6 8 13q1 5 -2.5 21.5t-3.5 19.5q0 15 4 227q6 164 6 254q0 4 7.5 22t7.5 23q10 0 24 -14 q2 3 5.5 7t5.5 6.5t3 4.5q2 0 25 5t29 5q4 0 46 -7t52 -7q41 -220 29 -377q-2 -22 -4.5 -44.5t-4 -39.5l-3 -34t-3 -29t-2.5 -23t-1.5 -18.5t-1.5 -13t-1 -7.5v-2q0 -29 33 -29q5 0 66.5 7.5t91.5 7.5q44 0 102 -10q40 -5 53 -5q33 0 33 132q0 47 -8 180q-7 128 26 334 q21 -7 89 -7q44 0 86 -22q-2 6 -4 -3l-1 -22zM594 1294q-136 13 -158 13q-5 0 -27 -7.5t-26 -7.5q-20 0 -135 109q-112 106 -127 141q292 -46 291 -49q4 0 10 -3t14 -3q4 0 6 3t9 3t57 -74q58 -88 86 -125zM924 657l-80 -6q-61 -2 -129 -2q2 2 2 199q63 3 76 -10 q88 -113 131 -181zM399 743q0 -5 -6 -25t-6 -24q-8 -113 -4 -215v-114v-148q-196 216 -231 346q-10 42 -13 103q-3 46 0 104q1 15 1.5 27.5t0.5 21v8.5l-41 666q49 -43 168 -160q69 -66 103 -78zM78 1536l47 -973l106 -198l189 -193l-27 1073zM801 1411l-21 -534l178 -230 l31 570zM1397 1444l-33 -664l192 -170l27 607z" />
<glyph unicode="X" horiz-adv-x="1339" d="M1270 -145q-1 14 -3 31.5t-6 42.5t-6 42q-8 52 -8 68v309q0 105 -4 129q-130 117 -186 191q37 24 90 58.5t70 45.5q-55 364 -58 660q-6 12 -6 14q9 21 6 24q-12 15 -35 43.5t-34 42.5q-48 54 -91 66q-56 16 -120 16q-50 0 -123 -8q-80 -6 -119 -6l-4 -12q-4 -12 -4 -15 q21 -21 24 -67v-70q52 -290 52 -293q0 -27 -3 -30h-6q-27 111 -51 213q0 57 2 75q-10 29 -22 39q-57 50 -106 93.5t-70 62.5l-21 18q-25 19 -102 19h-37q-8 0 -29 4t-24 4q-8 0 -60 10q-47 13 -49 13q-13 0 -39 -13q-33 -14 -33 -35q0 -5 1.5 -8.5t3 -5t4.5 -2.5l2 -2 q3 -23 9.5 -71.5t8.5 -65.5q15 -333 18 -492q175 -179 197 -202q-144 -105 -160 -105q-37 0 -39 -2q1 -9 6.5 -36.5t8.5 -47.5q10 -62 10 -63v-220q0 -2 0.5 -10.5t1.5 -24.5l2 -32l4 -86q301 -295 305 -295h242q9 12 12 18q-20 233 -14 334q17 -38 14 -74q-3 -54 0 -69 q227 -142 297 -189q26 -40 31 -59q181 22 250 25zM1116 1444q-6 0 -84 -4q-17 -1 -32 -2l-22.5 -1.5t-8.5 -0.5q-81 0 -115 24q-24 21 -71 63t-70 64h272q11 -19 74 -67q51 -37 57 -76zM895 1126q0 -3 -4 -42.5t-4 -53.5q-124 71 -142 117q-25 61 -40 186q-17 114 -15 129 v88q99 -89 184 -155q1 -13 3 -36t5 -58t5 -66q8 -91 8 -109zM582 1446q-31 2 -95 2q-19 0 -43.5 -1.5t-42 -3t-18.5 -1.5q-31 0 -156 88q-95 65 -129 92v18q111 -6 138 -4q139 -16 161 -28q37 -19 97 -76zM850 995q-9 0 -42.5 -5t-37.5 -5q-1 0 -41 10q-1 4 -18 49 q-15 35 -15 43q0 6 5 12.5t9 10.5l5 4q23 -20 135 -119zM1112 592l-8 -6l-12 10l8 8zM1165 526h-10l-10 19l10 4zM1217 -115h-144q-18 67 -18 217q0 136 -23 220q-84 20 -125 20q-5 0 -25 -3t-28 -3q-63 0 -219 -25q0 -20 4 -196t4 -199q-105 0 -190 14q0 10 2 62.5t2 70.5 v199q0 13 -11 92q-8 60 -8 76q0 46 117 105q49 40 70 63q41 25 57 33v20q-9 12 -14 17q-167 79 -203 98q-6 52 -27 342q-12 188 -53 295q89 15 219 0q10 -44 25 -107.5t20 -85.5q0 -46 -4 -92q14 -76 51 -155q47 -9 52 -9q26 0 73 2q17 1 55 3t52 2q0 271 -6 415 q50 29 114 29q46 0 88 -10l47 -582q0 -26 -88 -78t-88 -67q0 -11 82 -84q101 -90 140 -138v-561zM406 786h-35q-39 31 -121 93q-87 74 -109 139q-35 96 -35 250q0 10 1 29.5t2 52t2 63.5q3 90 0 143q126 -80 249 -147l-14 -16q43 -161 49 -320q3 -27 6 -98q1 -17 2 -33.5 t2 -25.5t1 -11v-119zM606 645q-74 -74 -186 -172l-4 3q-3 4 -9.5 7.5t-13.5 3.5q-9 0 -119 84q-104 85 -104 101q0 2 66 33q82 40 106 57q1 0 17 -14.5t24 -14.5q10 0 10 2q0 4 10 4q31 0 203 -94zM1018 -20q0 -5 -5 -29t-5 -29q-61 47 -160 105q-78 46 -96 67 q-31 42 -31 111q0 4 4 35.5t4 40.5q34 0 86 8t66 8q3 0 8.5 -0.5l16.5 -1.5l22 -2q54 -4 57 -4q33 -199 33 -309zM692 229h-12l-8 43h12zM414 270v-149q-2 -96 -2 -176q-37 39 -166 149q-69 60 -74 90q-14 69 -20 224q-7 125 -5 145v80q207 -139 248 -201q19 -28 19 -162z M86 1589l31 -579l139 -156l193 -111l-64 680zM334 793l-195 -127l283 -213l225 206zM127 647l6 -483l311 -262l-6 528zM700 297l15 -199l332 -241l-29 444zM666 1597l53 -460l176 -138l12 406z" />
<glyph unicode="Y" horiz-adv-x="1286" d="M1212 881q0 482 -18 620q-9 48 -80 101q-70 55 -121 55q-185 0 -248 -8q0 -7 -6 -265q-3 -178 -37 -178q-100 0 -147 21v67q0 80 12 215q-6 4 -75 82q-48 54 -84 70q-87 41 -308 41q-57 0 -73 -25q35 -304 43 -399q14 -154 16 -215q6 -42 129 -156q115 -106 137 -106 q4 0 20 7t23 7t23 -4q6 -73 6 -489v-203l10 -64q154 -95 262 -194q0 16 6 16q21 0 105 -8t106 -8q39 0 39 84l-24 356v207v2q0 1 -0.5 5.5t-0.5 11t-0.5 16t-1 20t-1 25t-0.5 30.5q-4 139 -2 170q10 10 16 7l223 -25q21 0 47 33q4 36 4 78zM1112 1520h-135l-16 14 q-55 3 -132 74q120 15 197 0q21 -6 47 -35q14 -14 39 -53zM969 1487l-4 -404l-154 93q-51 34 -51 102q0 -3 12 123q14 118 14 186q132 -97 183 -100zM477 1528q-86 22 -110 22q-5 0 -12 -8t-15 -8q-10 0 -92 49q-118 71 -137 80h57q18 3 92 -12q90 -16 131 -35 q61 -55 86 -88zM922 1063q-42 0 -134 -6q-26 -1 -48.5 -2t-33.5 -1l-10 -1q-4 0 -22 4t-25 4q-53 0 -86 8q0 66 -8 113q34 0 102 -2q69 0 107 -15q98 -56 158 -102zM1157 825q-28 0 -153 11q-30 3 -55.5 5.5t-36 3.5t-11.5 1q-33 0 -33 -27q0 -7 9 -65q3 -19 5 -38t3 -35.5 t2 -21.5q4 -54 4 -174v-239l6 -154q3 -147 0 -184q-127 0 -174 8q-16 122 -16 178v275q0 173 -15 471q-206 15 -305 24q0 275 -18 545q0 2 -6.5 23.5t-6.5 29.5t8.5 22t8.5 19q113 -10 131 -10l10 10v-444q19 -19 22 -20t29 -1l443 -24q8 8 10 14q-12 60 -12 68v190 q0 1 0.5 8.5t1.5 23t2 32.5q3 62 6 82q11 17 -10 38q124 -3 151 0v-645zM348 881q-16 -15 -26 -19q-56 46 -111 96q-67 61 -82 113q-55 192 -55 520q0 8 4 23t4 18l14 -6q14 -6 41.5 -19t59.5 -28q77 -36 108 -70q13 -10 19 -53q3 -20 6 -78q2 -67 4.5 -158t3.5 -110 q0 -3 0.5 -9.5t1.5 -18.5t2 -23q6 -37 6 -47v-131zM676 -61q-28 19 -96 59q-66 38 -99 80q-16 22 -16 123q0 29 -6 100q-1 20 -2 38.5t-1.5 28t-0.5 11.5v430h71q44 0 117 -21q16 -150 23 -233q10 -150 10 -154v-462zM55 1681l49 -628q243 -252 248 -252q1 10 0.5 77 t-2.5 232t-6 387zM764 1618l-8 -410l231 -172l17 461zM440 836l-6 -781l264 -159l-20 917z" />
<glyph unicode="Z" horiz-adv-x="1302" d="M1231 -121q-10 38 -10 115v125q-103 58 -318 182q15 15 15 12q124 -15 137 -16q12 34 22 31v1044q-129 141 -276 256q-444 18 -467 19q-44 4 -109 14q-18 2 -37 5t-26.5 4t-9.5 1q-19 0 -42.5 -14t-23.5 -27q0 -4 11.5 -30t11.5 -33v-203l-10 -21l-1 -4q21 -40 80 -84 q97 -69 101 -73q47 -44 145 -142q9 -5 45 -8.5t43 -7.5q18 -64 18 -135q-38 -13 -51 -21h-391q-2 -10 -2 -270v-213v-25q2 -10 2 -22q0 -22 6 -111q3 -70 0 -104q63 -26 174 -115q23 -19 69.5 -57t70.5 -57q18 -11 59 -11q11 0 195 -6q164 -8 192 -8h23q2 0 16 -0.5t44 -1.5 t64 -2t65 -2t45.5 -1.5t16.5 -0.5q82 0 103 18zM1010 1376q-24 21 -74 21q-31 0 -88 -8q-68 -10 -94 -7q-4 1 -25.5 -3.5t-28.5 -4.5q-1 0 -10 1t-29.5 3.5t-42.5 5.5q-94 11 -126 13q-42 3 -91 33q-150 113 -245 194q41 0 90 -8q59 -6 63 -6q17 0 80 -8q20 -2 40.5 -3.5 t29.5 -2.5t12 -1h315zM414 1325q6 -195 -2 -211q-188 151 -265 215v250q165 -120 256 -195q2 -13 6 -32.5t5 -26.5zM864 672q-198 149 -286 207q-2 22 -11 39l8 110l7 -2q8 -1 18 -2.5t16 -1.5q17 0 66 -8q56 -6 63 -6t41 -9q31 -8 48 -8q3 -30 18 -127q12 -79 12 -90v-102z M1178 -100l-748 32l10 11q-10 105 -10 274q0 210 16 338q28 25 152 25q9 0 135 -9q112 -8 135 -8q22 0 43 21q-5 90 -26 448q-17 14 -25 19q-15 1 -215 8q-96 3 -184 26q0 7 -4 101q-1 21 -2 39t-1 27l-1 8q0 63 2 81l24 25q13 -14 31 -45q2 2 8 29q3 16 8 16q6 0 70 -6 q51 -8 82 -4q4 -2 7.5 -4.5t5.5 -3.5t4 -2.5t3 -2t2 -0.5q2 0 9 1t18.5 2t22.5 2t22.5 2t17.5 1.5t9 0.5q8 0 32.5 5.5t28.5 6.5q87 6 164 -12l16 -379q0 -3 -0.5 -20t-1.5 -52.5t-2 -73.5q-1 -26 -1.5 -50t-1 -40t-1 -28t-0.5 -19v-6v-332q-32 -11 -119 -8q-84 3 -125 -14 q-3 -120 7 -217h319q34 -10 64 -25v-188zM864 612q-3 0 -26 -5t-31 -5q-4 0 -22 7t-23 7q-7 0 -15.5 -3t-15.5 -3q-98 0 -160 -4q-15 0 -73 -10q-55 -10 -58 -10q-8 0 -98 96q-110 116 -149 147q25 -2 194 11q7 0 21.5 -8.5t21.5 -8.5q4 0 10 8.5t13 8.5q125 0 190 -47 q37 -29 110.5 -90.5t110.5 -90.5zM1079 154q-121 -11 -235 -11q-30 99 -6 154q72 -46 118 -72q65 -37 123 -71zM399 553l-10 -578q-41 29 -128 87.5t-120 82.5q0 2 -6 107q-3 73 -18 108l8 455q61 -22 160 -121q103 -103 114 -141zM115 1638l4 -311l315 -260l8 301z M537 1044l18 -188l336 -221l-17 369zM111 844l-5 -703l324 -209l10 654z" />
<glyph unicode="[" horiz-adv-x="925" d="M862 164q-37 21 -55 18q-121 96 -186 154q2 74 5.5 168t5.5 156.5t3 103.5l-8 426q42 19 104 16q68 0 105 11v22q-23 135 -25 188q-121 56 -170 99q-95 88 -154 147q-46 17 -112 17q-37 0 -109 -7l-55 -6q-5 0 -27.5 6.5t-27.5 6.5h-78q-8 -39 -8 -64l55 -442v-158 q0 -3 -6 -38.5t-6 -45.5q0 -84 2 -147v-142q0 -31 -9 -200q-6 -137 0 -152q42 -98 168 -233q115 -121 129 -121q3 0 9 0.5l18 1.5t23 2q27 2 47 2l8 8h53h51q41 3 136 -12q93 -15 88 -17q9 0 26 17v215zM705 1438q-9 0 -95 -4q-19 -1 -35.5 -2t-24.5 -2h-7q-99 0 -148 24 q-36 19 -221 164q-18 14 -29 37q9 -1 162 2q97 3 158 -17q43 -14 117 -88q82 -83 123 -114zM821 143q-3 -159 -2 -161q-37 3 -94 12q-41 8 -55 8q-152 0 -205 -6q0 65 -6 197t-6 184q0 279 -13 606q0 7 -3 68t-7 114q-8 109 -8 129q0 22 14 99q53 0 137 8q88 8 101 8 q20 0 98 -16q6 -47 6 -156h-178q-11 -31 -14 -74v-999q16 -19 53 -19q172 0 182 -2zM414 -4q-134 110 -273 326q-1 5 1.5 23t2.5 20l15 815l-47 442q227 -165 284 -217q-14 -145 -16 -135l33 -596v-678zM745 184q-12 0 -57.5 2t-58.5 2q0 38 -6 103q92 -88 122 -107z M92 1663l25 -1346l309 -360l-6 1452z" />
<glyph unicode="\" horiz-adv-x="1173" d="M766 -33q0 174 -2 211q0 5 -1 13l-3 13v-1q-6 0 -60 4t-77 4q0 -9 -4.5 -43t-4.5 -37q0 -41 35 -76q1 -1 117 -88zM1118 223q0 52 -63 92q-18 9 -51.5 28t-51.5 28v73q-6 62 -43 62q-7 0 -38 -7t-35 -7q-8 0 -27 7t-23 7l-26 -6q-21 38 -21 73q0 27 4 39q92 -66 142 -98 l16 14v25q-37 21 -91 51.5t-71 40.5l-12 12v23q0 136 -18 385q-12 124 -21 182l-74 49q-49 30 -49 41q0 41 15 78q-135 105 -201 127q-68 22 -172 25q-30 1 -90.5 2t-89.5 2q-17 -170 -17 -209q0 -35 80 -109q96 -86 119 -108h24q0 6 9 18q-4 6 -11 19q-126 108 -153 135 q-28 28 -31 39q-2 8 -2 61q0 92 2 92h29q96 -63 172 -110q9 -110 6 -174q20 -345 61 -850q9 -9 95 -62q59 -35 82 -71q41 -12 94 -35q-7 -45 -4 -141q23 -19 102 -89q93 -81 113 -81q9 0 32.5 7t26.5 7h96q63 2 138 2q2 36 16 188q12 114 12 123zM496 1427q-77 0 -134 -8 q-9 -1 -17 -2t-14 -2t-11.5 -1.5t-9 -1t-6 -1l-2.5 -0.5h-1q-3 0 -43 19q-18 8 -38.5 17t-24.5 11q-20 12 -107 70h94q9 3 43 -6q37 -6 45 -6q69 0 117 -23q14 -9 51.5 -31t57.5 -35zM1077 225q-18 -185 -30 -286q-50 4 -121 4q-67 0 -121 4q0 231 2 282q-7 10 -16 13 q-143 9 -218 12l-16 502q11 95 -16 385q-12 21 -35 18q-136 0 -207 8l-6 222q220 3 235 0q16 -122 17 -148q76 -25 100 -31q6 -42 16 -107t13 -87q27 -350 39 -533q15 -12 59 -12q5 0 27.5 3t27.5 3l74 -10q10 -30 10 -76v-82q3 -61 29 -61q80 0 137 -23zM1042 279 q-60 0 -75 -5l-9 50q63 -32 84 -45zM528 268q-33 26 -90 66q-20 16 -47.5 36.5t-34.5 26.5q0 23 2 33q-53 326 -53 551v133q2 2 189 2q22 -93 22 -303v-276zM41 1548l-21 -202l263 -230l10 273zM285 1147l39 -744l227 -172l-35 891z" />
<glyph unicode="]" horiz-adv-x="872" d="M793 1442q-56 30 -132.5 69.5t-95.5 49.5q-122 79 -125 79q-178 25 -229 31q-8 1 -43.5 14t-40.5 13h-49q0 -13 -21 -31q25 -77 25 -131l-6 -35q-3 -21 4 -28q153 -134 237 -195q14 -33 11 -53q9 -7 16 -17t10.5 -24t5.5 -23.5t4 -28t3 -24.5l6 -424q0 -245 -8 -326 q-3 -32 -43 -32q-5 0 -28 -7.5t-28 -7.5q-56 0 -139 15l-16 -17q3 -126 -7 -229q123 -105 244 -172q2 -2 70 -2l340 8q0 65 -2 145q0 109 2 146q3 151 22 256zM684 1452h-14q-8 -2 -23 -2q-327 0 -383 96q-51 47 -76 60q-14 10 -37 26.5t-32 22.5q133 -17 123 -19 q129 0 233 -61zM326 1343q-11 -11 -11 -18q-23 17 -68 53.5t-67 53.5q-67 52 -67 112v70q95 -59 202 -160q3 -74 11 -111zM752 1415q12 -83 12 -198q0 -90 -8 -283q-7 -204 -11 -459q-3 -44 -10 -76q-10 -385 -10 -450q-194 -11 -344 -8q-14 57 -14 110q0 49 8 68h55 q11 0 51 -15q43 -12 51 -12q5 0 11 3t10 3l27 701v432q-10 13 -19 16q-15 0 -92 6q-64 7 -94 4q0 8 -14.5 38.5t-14.5 33.5q0 52 23 113q53 -12 98 -12q5 0 24 -5.5t23 -5.5q102 -4 238 -4zM539 680q-15 -56 -15 -88v-242v-9q-1 -9 -2 -27.5t-2 -39.5q-4 -94 -4 -106 q-110 84 -121 127q-6 27 -6 61q0 42 8 99q11 83 11 96q2 50 -2 229l-5 135v234q0 16 -14 65h143zM477 150q-34 0 -69 2t-60 2q-7 0 -65 49q-23 19 -44 36.5t-35.5 29t-17.5 14.5q6 0 72 4q14 1 27 2t19 1.5t7 0.5q49 0 82 -45q69 -86 84 -96zM338 -39q-31 16 -102 64 q-97 66 -97 84q0 108 23 141q26 -13 90 -64q69 -52 78 -65q2 -65 8 -135v-25zM84 1657l6 -162l252 -235l8 198zM354 1231v-926l187 -178l32 1079zM135 293l-12 -203l252 -174l-21 207z" />
<glyph unicode="_" horiz-adv-x="1841" d="M1802 -16q0 8 -6 32t-6 27q-9 118 2 193l-41 32q-148 72 -211 97q-173 109 -260 176q-192 14 -270 14l-904 76q-8 0 -37 -17t-36 -18v-281q41 -41 215 -155q163 -105 174 -105q8 0 9.5 4t8.5 4t30.5 -16t31.5 -16h323l639 -43q24 0 103 -8q89 -9 102 -9l113 -16 q0 2 10 11t10 18zM1618 266q-355 18 -440 33q-231 39 -256 39q-7 0 -25 -4t-25 -4q-6 0 -10.5 2t-5.5 4t-2 5l-2 3q-2 0 -29.5 3t-50.5 7q-52 8 -67 8q-3 0 -12.5 -0.5t-27 -1.5t-34.5 -2q-16 -1 -33 -2t-26 -1.5t-11 -0.5q-45 0 -72 21q-133 89 -317 194l672 -47 q3 0 18 -0.5t46 -1.5t65 -2q35 -1 66 -2t46 -1.5t17 -0.5q8 0 50.5 -9.5t53.5 -10.5h35q26 0 41 -9q197 -125 336 -219zM1737 12h-170q-8 0 -10 4t-9 4q-2 0 -13.5 1.5t-34.5 4t-46 5.5q-87 8 -137 12q-340 23 -408 23q-87 0 -159 2q-144 4 -158 4l-17 16q-8 -8 -28 -8 q-21 0 -21 242q32 -4 103 2q83 6 86 6q2 0 18 -2.5t54 -8.5t79 -12q159 -27 236 -33q76 -3 123 -6q132 -30 137 -30q87 0 166 -15q33 -2 104 -10q68 -6 105 -27v-174zM487 281q0 -55 -20 -158l-5 -3q-4 -2 -11.5 -4.5t-14.5 -2.5q-53 0 -194 100q-127 87 -150 113 q-1 4 -8 53q-4 50 -4 51q0 6 6 53t6 72q37 -17 110.5 -53t110.5 -53q174 -91 174 -168zM72 588l-13 -287l445 -244l-15 318z" />
<glyph unicode="`" horiz-adv-x="718" d="M668 926v465q-10 6 -115 114q-71 74 -123 101q-57 29 -158 49q-110 22 -163 22q7 0 -3 -3l-26 -7v-29l16 -14q-35 -15 -35 -35q0 -13 8.5 -63t8.5 -64v-217l321 -303q9 1 17.5 2t15 2t12 1.5t9 1t6.5 1l3 0.5h1q21 0 205 -24zM563 1430l-47 -13q-10 17 -20 17 q-7 0 -33 -8.5t-33 -8.5q-26 0 -151 88q-25 19 -158 111h31q48 0 133 -21q85 -17 127 -39q27 -15 75 -63q47 -47 76 -63zM616 967q-61 11 -159 43q0 19 -11 127q-8 71 -8 125v114q52 -3 178 0v-409zM412 1008q-240 173 -281 262q-14 25 -14 88q0 53 2 96t2 96q31 -3 98 -51 q58 -47 92 -72q24 -16 90 -55q-3 -28 2 -67q9 -50 9 -68v-229zM94 1589l4 -334l334 -301l-12 437z" />
<glyph unicode="a" horiz-adv-x="1439" d="M1352 1315q0 20 -205 170q-208 155 -238 160q-77 16 -270 38q-165 19 -184 19h-1q-1 0 -4.5 -0.5t-8.5 -0.5t-12.5 -0.5t-16 -1t-20 -1t-23.5 -0.5q-70 -5 -117 -2q-2 -11 -37.5 -20.5t-36.5 -10.5l-84 -1262q0 -11 144 -210q144 -197 168 -197q5 0 6.5 1t1.5 3t2.5 3 t7.5 1q7 0 31.5 -21t31.5 -22q161 -16 218 -29q34 198 43 261q20 -13 180 -154q133 -115 155 -115q25 0 31 2q110 0 143 2q4 0 23.5 -7t28.5 -7q6 0 10.5 2.5t6 4.5t5 7t4.5 6v1029q0 28 8 176q9 166 9 176zM1235 1354q-30 6 -156 6q-23 0 -104 8q-102 10 -103 10 q-8 0 -28 -9t-25 -9q-7 0 -47 6q-36 8 -61 8l-17 -3q-16 -3 -28 -5q-15 4 -25 -4q-41 8 -85 -8l-3 -2q-25 0 -279 284q130 13 279 13q27 0 156 -17q151 -21 221 -51q74 -31 160 -106q141 -117 145 -121zM1298 -20h-194q-8 21 -23 176q-11 115 -41 159q-83 13 -235 13 q-8 0 -44 -6.5t-40 -6.5q-18 -14 -23 -20q0 -38 -10 -143q-4 -39 -8.5 -73.5t-8 -57t-3.5 -25.5l-148 12l25 1288q27 -3 49 25q129 12 117 12q123 0 440 -12q67 -3 135 -35q12 -156 12 -162v-1144zM535 1303q-26 -51 -29 -127q-10 -178 -24.5 -431t-18.5 -331 q-12 -234 -12 -365q-31 25 -56 31l-172 215q-73 101 -73 186q0 1 1 11.5t3.5 35t5.5 50.5q9 94 12 141q14 295 14 323q6 40 29 170l18 373q10 -9 36 -34t55 -52t59 -55q138 -128 152 -141zM1036 14q-6 6 -284 256q150 3 258 -6q13 -89 26 -250zM1001 981q-23 13 -86 16 q-18 1 -50 3.5t-46 3.5q-5 0 -28.5 8t-28.5 8q-36 -22 -57 -199q-17 -150 -17 -223q0 -55 31 -55q84 0 254 -17q4 46 4 226q0 134 24 229zM938 963q-5 -85 -8 -142t-5.5 -99t-3.5 -61t-1 -18q-74 63 -179 154l29 168q102 0 136.5 -0.5t31.5 -1.5zM885 590q-84 11 -133 8 l-5 63l-2 70l49.5 -49.5t39 -39.5t27.5 -27.5t18 -18.5zM203 1622l-84 -1214l354 -424l66 1347zM758 987l-23 -221l215 -217l21 403zM729 293l358 -352l-57 338z" />
<glyph unicode="b" horiz-adv-x="1320" d="M1249 340q0 2 -12 37q9 88 0 100q-56 63 -121 113q-108 81 -117 90q180 34 242 43v516q0 36 -137 127q-27 18 -170 111q-27 27 -68 75q-41 50 -59 56q-49 14 -82 16q-28 3 -57 0l-33 -4q-2 0 -21 -0.5t-61 -1.5t-90 -2q-46 -1 -87.5 -2t-61 -1.5t-21.5 -0.5h-25 q-3 0 -11.5 0.5t-25 1.5t-32.5 2q-15 1 -31.5 2t-25 1.5t-11.5 0.5q-17 0 -37 -19.5t-20 -33.5q0 -8 7 -47t7 -47q0 -41 -2 -84q-2 -35 -2 -78q9 -255 12 -379q11 -348 25 -619q149 -155 203 -219q68 -88 100 -141q47 -20 51 -21q3 -19 6 -32q16 -13 64 -13l678 -8 q5 83 9.5 171t7.5 136t5 89t3 55t1 10zM1106 1292q-27 -12 -74 -12q-43 0 -100 8t-82 8q-3 0 -8 -0.5t-15.5 -1.5t-19.5 -2t-20 -2l-16.5 -1.5t-8.5 -0.5q-8 0 -49 -6q-11 -1 -23 -2t-18.5 -1.5t-9.5 -0.5q-13 0 -54 14q-44 15 -53 15q-7 0 -36 -5.5t-36 -5.5 q-27 0 -319 267q108 -15 121 -15q37 0 233 8q66 3 123.5 5.5t83 4t27.5 1.5q19 0 94 -72q34 -35 69 -72q101 -66 191 -131zM1124 510q-80 0 -114 -12v2q-1 1 -1.5 4t-1 8t-1 11t-1.5 13t-1.5 15t-1 16.5t-1 18t-0.5 18.5q93 -75 123 -94zM1186 133l-27 -209q-12 0 -172 4 q-78 2 -119 2q-7 0 -17 5.5t-17 5.5h-121h-181l-45 1134q-5 26 -2 86q2 55 2 90q9 0 48 5.5t47 5.5q7 0 30.5 -9.5t30.5 -9.5t29.5 -5t29.5 -5l480 -2v-461l-25 -20q-179 -12 -213 -27v-256q22 -14 60 -14q90 0 182 -2v-318zM477 143q0 -8 -6 -57q-6 -46 -6 -74 q-7 12 -156 142q-108 91 -135 184q-53 183 -53 541q0 154 8 290q3 45 6 102l2 36l6 82q6 82 4 114q147 -93 187 -127q108 -94 108 -184q0 -14 -5 -63t-5 -62v-395q45 -414 45 -529zM999 858v94q0 8 -8 29.5t-8 24.5q-15 109 -22 116q-61 3 -120 6.5t-83.5 5t-26.5 1.5 q0 -9 -4 -21q-33 -33 -33 -164q0 -50 11 -92q2 0 100 -4q65 -3 100 0l9 -2q9 -2 20.5 -4t19.5 -2q21 3 45 12zM999 70v217q-21 34 -102 55q-67 20 -131 20q-13 0 -25 -81q-12 -70 -12 -88q0 -62 29 -115q30 0 112 -15q77 -14 88 -14q20 0 41 21zM934 956q-125 52 -178 117 q38 7 84 4q77 -6 86 -6q0 -63 8 -115zM891 905q-139 0 -141 -2v96q86 -53 141 -94zM936 260l-12 -94q-1 1 -140 131q35 12 103 12q25 0 49 -49zM881 113q-16 16 -43 16q-48 0 -48 4q0 1 1 3l2 3q4 4 4 8q0 5 -13 11v61q74 -68 97 -106zM106 1577l15 -1264l393 -395l-51 1346 zM748 1102l-17 -49l248 -164l-29 203zM770 322l180 -226l29 195z" />
<glyph unicode="c" horiz-adv-x="1167" d="M1090 1251q-15 12 -172 160q-104 98 -181 145q-32 16 -153 13l-19 16q-334 53 -334 55q-8 0 -45 4.5t-45 4.5q-11 0 -32 -15q-23 -18 -35 -22l45 -744q0 -187 -21 -436q1 -2 10 -23t29.5 -68t42.5 -99q54 -124 135 -199q5 -5 22 -38.5t25 -41.5q40 -32 113 -29h602 q-13 23 -16 80q-3 35 0 101q4 94 4 100q13 35 14 39q-115 83 -262 344l-4 -2q-4 -2 -11 -4t-14 -2q-8 0 -49 24q0 24 -6 95q-1 18 -2 35.5t-1.5 26.5t-0.5 11q0 3 0.5 11.5t1.5 24.5t2 30q2 15 3.5 32.5t2.5 28.5t2 17q22 22 58 22h24h11q12 -1 38 -2t56 -2q68 -2 151 -2 l6 94v8q5 133 5 207zM973 1262q-33 2 -355 2q-92 0 -145 20q-38 33 -65 68q-56 58 -131.5 135.5t-94.5 97.5h92q-1 0 21 -4.5t72 -14t116 -22.5l142 -18q88 -12 129 -45q43 -28 110 -101q52 -58 109 -118zM1034 1159q0 -7 -6 -72q-4 -82 -4 -92q-39 0 -70 -2t-67 -2 q-13 0 -54.5 3t-52.5 3q-52 0 -100 -28v-742q8 -14 22 -14q3 0 16.5 0.5t39.5 1.5t53 2t53 2t39.5 1.5t16.5 0.5h28q45 0 58 8q2 -6 2 -239h-574v647q0 26 8 125q9 114 9 121v319q0 26 14 29q20 -4 170 -4q8 0 45.5 -9.5t44.5 -9.5q307 0 309 -2v-47zM963 287 q-158 -19 -193 -19q-38 0 -35 146q3 83 -4 139q49 -20 129 -115q71 -91 103 -151zM416 1237l-31 -1204q-10 30 -53 82q-12 14 -29 34.5t-28 33.5t-19 22q-90 214 -92 270v84v223q0 37 2 107v153q0 81 -14 218q-15 138 -15 143v129q54 -17 174 -158q56 -66 105 -137z M104 1602l15 -1176l287 -465l38 1303z" />
<glyph unicode="d" horiz-adv-x="1339" d="M1282 166q-31 50 -47 166q-7 76 -10 168q-5 126 4 385q1 20 6.5 69t5.5 58q0 42 -18 63q-53 21 -125 90q-53 56 -109 109q-18 18 -41 35q-31 27 -33 37q-67 93 -127 153q-35 51 -51 60q-177 131 -188 131q-2 0 -55 -11q-51 -9 -62 -12q-59 -7 -149 -4q-92 3 -148 -4 q-15 -1 -42 -31t-32 -31q80 -1253 72 -1304q-6 -47 2 -55q37 -69 135 -160q130 -124 164 -166q26 -29 23 -72q5 0 27.5 -9t27.5 -9q15 -2 30 -0.5t32.5 5t19.5 3.5q23 0 154 20q52 9 270 9q19 54 102 157q83 105 162 150zM895 1278q-34 0 -86 -8q-56 -6 -80 -6 q-133 0 -262 12q-38 60 -150 166q-66 62 -186 164q60 0 227 10l82.5 5.5t53 3.5t14.5 1q107 0 311 -229q58 -87 76 -119zM1208 184q0 -11 -51 -53q-64 -55 -82 -76q-10 -15 -30.5 -43.5t-28.5 -40.5q-42 -54 -72 -57q-137 -20 -256 -20q-25 0 -31 2q-39 -10 -127 -13 l-67 1213q0 6 2.5 11t5 7t5.5 4l3 2q-6 64 -6 101h213l141 2q4 0 35 9t41 9q45 0 158 -94q116 -96 119 -127q-3 -276 -11 -440q10 -196 11 -207q0 -32 14 -103t14 -86zM463 127q0 -9 -6 -68q-4 -78 -4 -86q-12 15 -162 144q-94 79 -103 141q-32 172 -59 942q-2 53 -5 130 t-5 127.5t-4 86.5q75 -30 168 -104q118 -93 133 -176q47 -288 47 -1137zM1001 416q-16 236 -20 391q-29 19 -168 125q-98 76 -111 76q-8 0 -15 -3t-11 -5l-4 -3q-4 -199 -4 -204q0 -42 -9 -48q-6 -3 -6 -16q0 -1 2.5 -21t9 -70.5t13.5 -107.5q28 -216 31 -292q22 -31 30 -31 q162 147 262 209zM940 743q0 -73 -4 -151q-3 -76 -8 -88q-10 14 -107 110q-59 59 -102 117q-4 4 -4 82q0 69 12 131q24 -28 119 -98q81 -62 94 -103zM922 436q-131 -111 -168 -139q-1 12 -23 152q-14 88 -14 106v100q168 -161 205 -219zM152 258l333 -387l-18 1405l-354 346 zM709 983l-13 -274l271 -275l-2 354z" />
<glyph unicode="e" horiz-adv-x="1200" d="M1137 -158q0 156 -2 207q-5 105 -10 108l-7 -1h-20q-17 0 -111 94q-105 108 -164 180l15 14q92 -18 139 -18q44 0 55 20q17 146 17 162v140q-47 21 -121 86q-94 87 -131 124q23 0 82 9q52 8 90 8q37 0 67 -10q0 1 3 4t11 10t15 14q-3 67 2 156q6 126 6 156h-12 q-6 2 -21 2q-10 0 -204 188t-220 188q-440 0 -526 -57q11 -281 8 -469q-3 -268 0 -403q-2 -36 -4 -71t-4 -63.5t-3.5 -54.5t-2.5 -46t-2 -37.5t-2 -29.5t-1.5 -20.5t-0.5 -11.5v-4q0 -63 31 -105q132 -174 200 -252q37 -57 76 -114q77 -103 119 -103q3 0 8 0.5t14.5 1.5 t18.5 2q27 3 39 0h1h1l1 -1h1h1h1h1l1 -1h1h2l56 -12h-2q26 0 152 -4t135 -4q106 0 201 18zM930 1309q-46 0 -60 6l-24 -27q-22 19 -60 19q-8 0 -45 -4.5t-49 -4.5q-32 0 -102 -6q-20 -1 -38.5 -2t-27.5 -1.5t-10 -0.5q-24 0 -338 311l379 29q71 0 225 -151 q133 -133 150 -168zM913 770h-10q-10 -1 -31.5 -2t-46.5 -2q-64 -3 -100 2q-13 87 2 170q9 -9 44.5 -30.5t41.5 -28.5q16 -17 38 -41t37 -40t25 -28zM1065 111v-232q-64 0 -119 -2h-86l-33 -8q-4 0 -40.5 9t-45.5 9h-104q-1 0 -47 4q-47 7 -51 7q-21 44 -29 98l-12 110 q-3 87 0 134q-13 18 -17 39q-18 636 0 698q0 1 15 106q14 98 14 158q172 22 248 19h243v-240q-26 5 -155 -4q-17 -2 -86 4q-57 8 -68 8q-14 0 -30 -16v-234q0 -30 32 -55q34 0 119 -6q22 -1 42.5 -2t31 -1.5t12.5 -0.5h84q3 -152 0 -232q-191 21 -268 27q-24 -229 -35 -383 q12 -12 55 -23q45 -10 53 -10q13 0 46 8q10 2 22.5 5t18 4.5t8.5 1.5h182zM1001 158l-38 8l-209 -19q-7 52 -4 125q1 35 2 68t1.5 49t0.5 19q154 -135 247 -250zM471 -78q-79 127 -184 254q-97 115 -115 154q-41 80 -41 213l23 1005q200 -197 297 -284q3 -12 0 -43l-2 -20 t-2 -16.5t-1 -8.5v-531q0 -445 25 -723zM127 1606l-27 -1227l389 -510l-12 1407z" />
<glyph unicode="f" horiz-adv-x="1173" d="M1090 893q-32 90 -33 92q-9 121 -6 199q-166 264 -404 375q-75 37 -266 40q34 -1 -3 -2h-185q-24 0 -62 -14q-47 -21 -47 -47l37 -944l-1 -14q0 -13 -1 -43.5t-2 -65.5q-4 -160 -4 -178q0 -65 10 -117q41 -98 57 -127q28 -54 146 -190q128 -146 157 -146q8 0 14 5t13 5 q8 0 38.5 -8.5t35.5 -7.5h129q-9 9 0 21v180q0 271 24 373q64 6 162 0q126 -9 162 -9q0 4 5 26.5t5 31.5q0 7 -3.5 18t-7.5 19l-3 8q-9 93 2 225q-33 33 -62 49q-55 41 -114 105q-23 23 -99 112l185 6q42 -26 53 -26q16 0 39 17t29 32zM936 1210q-42 -10 -57 -10 q-76 0 -226 6t-147 6q-27 0 -184 154q-91 94 -156 166q34 6 70 6q39 0 124 -10t93 -10l30 8q93 0 164 -45q38 -22 127 -111q88 -85 154 -135q8 -11 8 -25zM965 614q-99 -12 -287 -12q0 9 0.5 25t1.5 46t2 54q6 94 6 143q21 0 29 -4q177 -188 248 -252zM1010 936 q-19 -16 -90 -16q-46 0 -129 6q-73 8 -101 8q-7 0 -59 -25v-223q2 -8 -8 -53q-9 -41 -9 -49q0 -37 54 -37h247q14 0 72 18l23 -20v-203q-20 -14 -74 -14q-40 3 -84 6q-5 0 -15.5 0.5t-29.5 1.5t-35 2q-78 4 -88 4q-15 -21 -22 -35q-3 -57 -9 -268q-4 -242 -4 -281 q-103 15 -149 0l-29 838v580l537 -31q-21 -9 -11 -25q8 -139 13 -184zM434 -162q-46 37 -69 70q-5 5 -27.5 24t-32.5 29q-43 40 -57 68q-67 127 -72 172q-15 323 -12 403q4 110 4 191q0 181 -12 313l-6 365q182 -181 276 -273v-487q0 -27 -2 -68t-2 -92q0 -5 6 -35t6 -37 v-643zM111 1552l47 -1419l303 -387l-4 1462z" />
<glyph unicode="g" horiz-adv-x="1654" d="M1554 -182q0 6 -16 100q-11 67 -16 125q-5 89 -13 209.5t-12.5 201.5t-7.5 138q-3 31 -131 115q-134 87 -158 170v-3l23 9q45 0 250 -27q0 22 -2 84.5t-3 93.5q-4 160 -4 178q-121 74 -180 121q-10 6 -94 90q-63 63 -109 84q-59 24 -163 29q-25 1 -78 4t-78 4 q-15 2 -41 6t-71 11t-81 12q-123 18 -133 18q-8 0 -28 -8t-25 -8q-19 0 -10 12q-90 4 -135 8q-20 2 -38.5 3.5t-26.5 2.5t-9 1q-62 0 -98 -31l34 -838q19 -114 19 -170v-268q0 -146 20 -166q94 -85 271 -203q155 -104 176 -104l614 -27l62 -4q13 -1 26.5 -2t20.5 -1.5 t10 -0.5q2 0 12 -0.5t29 -1.5t39 -2q71 -6 80 -6q75 21 75 41zM1321 1239q-64 12 -102 12q-7 0 -28 -8t-26 -8q-77 0 -145 2t-156 2q-53 0 -194 -12q-40 -3 -76.5 -6.5t-51.5 -5t-16 -1.5q-20 0 -164 138q-148 142 -190 192q143 -10 410 -26l227 -13q156 -9 240 -43 q59 -21 137 -96q125 -118 135 -127zM1393 616q-77 -12 -193 -12q-9 0 -45 31q-46 40 -63 47q-61 28 -138 96q-114 99 -116 101q212 6 276 12q0 -21 2 -29q134 -134 277 -246zM1122 389q-10 8 -28 25t-53.5 51.5t-63.5 60.5q-101 98 -129 115q0 49 2 74q-3 48 -21 86 q102 -66 168 -123q11 -7 35 -21.5t35 -21.5q58 -40 55 -70v-176zM1483 -158l-897 29q6 2 10 14q3 6 0 31q-2 23 -2 57q-8 151 -8 250v232q0 183 -33 374q-9 58 -17 110.5t-11 73t-3 21.5q0 6 3.5 11t8 7.5t8.5 4.5l5 2q-12 74 -15 108q44 13 138 13q44 0 301 8q260 8 301 8 q127 0 139 -63q3 -36 8 -106.5t8 -106.5l-612 26q-9 0 -15 -0.5t-11 -1t-7.5 -3t-4.5 -3t-2.5 -6t-0.5 -7.5v-11v-13q0 -2 2 -26.5t7 -85t10 -125.5q6 -77 11.5 -151.5t10 -138.5t6.5 -89q6 -92 31 -185q55 0 94 -2h92q40 0 97 -8q67 -6 75 -6q7 0 31 -5t31 -5q19 0 37 24 q-3 75 14 213q-15 7 -88 23q-29 4 -43 10t-12 14v209q28 -7 137 -4q88 3 117 -14q52 -527 49 -658v-49zM1249 174q-140 58 -202 92q-24 14 -89 74q-59 56 -94 59l-5 89q-1 35 -1 71q67 -48 100 -67q35 -40 92.5 -108t79.5 -93q12 0 58 -6q40 -6 61 -6v-105zM1169 145 q-98 5 -268 2q-25 127 -35 213q31 -48 142 -120q15 -9 72 -43t89 -52zM547 -88q-234 172 -363 264q-6 137 -12 172l-45 983q0 9 6 70t6 92q145 -154 207 -193q90 -53 119 -131q17 -49 20 -147t17 -133q-1 -8 -2 -23.5t-2 -21.5q43 -246 43 -656v-272q0 -7 1 -8l3 4q2 2 2 0z M104 1552l35 -1386l428 -318l-61 1334zM803 860l26 -258l322 -278v262z" />
<glyph unicode="h" horiz-adv-x="1675" d="M1561 -199q-6 63 -12 117t-9 77l-2 23q0 44 6 115q8 71 8 92q6 221 -14 629q-9 190 0 387q0 14 -16 70q-163 97 -213 125q-90 79 -140 120q-142 121 -170 121q-137 0 -161 -4t-39 -4q-13 0 -54 4t-49 4q-56 0 -78 -32q31 -48 31 -107q0 -32 -8 -51q-9 7 -102 106 q-61 64 -111 88q-24 12 -78 15q-27 2 -94 2l-55 -4q-7 0 -13.5 -4t-13.5 -4q-9 0 -38.5 21.5t-35.5 23.5q-15 -15 -12 -39l4 -37l-12 -15q0 -1 1 -12t3.5 -36.5t5.5 -55.5q13 -107 10 -143q-9 -198 25 -584q32 -378 29 -584q2 -4 4.5 -8.5t3.5 -6.5t2 -3q63 -55 155 -134 t147.5 -126.5t92.5 -81.5q15 -12 59 -12q15 0 78 8q73 6 107 6q62 0 121 -12v75q0 8 -9.5 40.5t-9.5 39.5q0 17 15 23q183 -115 311 -183q11 -7 45 -34q28 -25 39 -25q5 0 100 6q132 4 146 4zM1417 1311q-5 0 -25 -6.5t-28 -6.5q-91 0 -168 50q-93 51 -231 133 q-131 79 -185 139h140q91 0 118 -21q153 -123 217 -182q89 -61 162 -106zM1538 690h-16v33h16v-33zM1229 1253l-2 -21q-2 -22 -6.5 -72t-8.5 -109q-18 -187 -12 -281q-66 25 -86 29q-100 57 -213 127q-25 229 -35 385q-12 18 -53 18q-73 52 -92 82q-21 35 -21 131 q0 16 11 45l336 -207q182 -77 182 -127zM735 1329q-40 6 -162 6q-33 0 -206 129q-97 73 -224 174q41 -3 99 0q86 7 88 7q46 0 80 -17q73 -36 165 -135q156 -164 160 -164zM1149 737q-37 0 -117 -6t-86 -6q-10 0 -47 18q-6 101 -10 123q197 -96 260 -129zM1507 315v-3 q0 -4 -1 -14t-1.5 -23t-2 -33.5t-3.5 -42.5q-6 -117 -6 -189q0 -112 12 -155h-166q-44 201 -41 272v9q1 10 1.5 24.5t1.5 30.5t1.5 33.5t0.5 29.5q0 137 -41 137q-8 0 -10 -4t-9 -4q-9 0 -13 9t-5 9q-6 -9 -6 -18q0 8 -21 8q-9 0 -14.5 -5.5t-9.5 -6.5q-9 -1 -52.5 -3 t-57.5 -3t-50 -4.5t-56.5 -7.5t-49.5 -11.5t-54 -17.5q10 -217 -4 -424q-9 6 -25 6h-61q-42 3 -51 20l-17 -18h-49l-90 1374h164q90 0 110 -57q13 -29 13 -143v-228v-8q1 -8 2 -25.5t2 -37.5q4 -86 4 -97q6 -6 49 -6h135q92 -2 213 -2q0 28 -6 86l-2 34l-1.5 25.5t-0.5 10.5 q0 18 14 164q5 63 13 143.5t10 101.5q0 13 20 13q68 0 189 -39q3 -117 12 -371l10 -242v-297zM1274 -115q-25 3 -86 45q-21 12 -141 74q-93 49 -140 102v185q107 40 293 37h29q5 -56 10 -199q3 -115 35 -244zM590 -84q-210 172 -373 326q-7 92 -13.5 183.5t-11.5 162 t-10 138.5t-9 117.5t-7 94t-5 74t-4 50.5t-2.5 29.5t-0.5 6.5v452q171 -103 352 -252q4 -4 4 -49l80 -1149v-184zM102 1604l74 -1364l451 -357l-103 1438zM844 1282l37 -383l338 -172l28 580l-565 331l-14 -188zM877 299l32 -231l406 -277l-49 578z" />
<glyph unicode="i" horiz-adv-x="1091" d="M1008 -106q-1 7 -4 19.5t-8 34t-9 40.5q-14 55 -14 69v793q0 109 -23 231q25 163 25 174q0 62 -25 107q-37 64 -225 184q-183 115 -225 115q-3 0 -14 -1t-37.5 -4t-51.5 -5q-91 -9 -102 -9q-8 0 -14.5 9.5t-14.5 9.5q-89 0 -143 -4q-5 -9 -23 -25v-243q0 -2 1.5 -13 t4 -34.5t5.5 -47.5q10 -69 14 -123q12 -721 25 -890q72 -66 165 -154q166 -175 220 -197q44 -20 65 -20q32 0 207 -12q134 -8 201 -4zM883 1339q-19 0 -80 -6q-16 -1 -33 -2t-26 -1.5t-11 -0.5q-4 0 -31.5 11.5t-37.5 11.5q-87 -3 -220 92q-36 26 -108.5 79.5t-108.5 80.5 q72 0 117 -2q71 -3 86 -3q81 0 90 -6q254 -136 363 -254zM944 -43q-14 -17 -119 -14q-23 0 -73 6q-46 6 -60 6q-11 0 -16 8q-3 4 -9 6t-15 3t-11 1h-8q-29 221 -29 562v329q0 17 -14 137q-12 132 -12 144v164q136 -17 219 -17q3 0 32 -9t39 -9q24 0 39 18zM567 -18 q-85 27 -196 129q-98 90 -168 198q-19 29 -25 90q-3 44 0 103l4 59v268q0 15 -6 117q-4 126 -2 244q-9 128 -18 207v174q57 -20 141 -80l135 -98q95 -67 105 -76q-13 -65 -11 -82q30 -504 27 -666q6 -63 14 -88v-499zM129 1608l43 -1274l195 -238l219 -153l-27 1407z" />
<glyph unicode="j" horiz-adv-x="1280" d="M1184 -23v1323q-29 39 -88 80q-9 6 -26 17.5t-31 21t-27 17.5q-84 63 -119 90q-53 15 -141 18q-144 6 -148 6l-14 15h-64q-31 0 -272 45q-18 4 -51 18q-9 4 -19 8.5t-14 6.5t-6 2h-39q10 -139 2 -234q-21 0 -31 -10q193 -199 320 -309q62 -69 106 -129q9 -9 53 -21 q23 -7 23 -37q0 -7 -7 -38t-7 -36q0 -4 0.5 -18t1.5 -41.5t2 -56.5q2 -55 -2 -113l-146 146q-78 81 -90 81q-74 0 -266 -14q-33 -17 -33 -33q0 -6 10.5 -31.5t10.5 -27.5q2 -26 5.5 -60t5.5 -56.5t3 -37.5q18 -170 18 -196q160 -154 285 -305q53 -62 74 -62q2 0 10.5 -0.5 t24.5 -1.5l32 -2q17 -1 32.5 -2t23.5 -1.5t10 -0.5h289q9 0 82 -12q68 -13 110 -17q13 -1 57 3.5t50 4.5zM1116 1303h-463q-42 -2 -96 8q-27 8 -76 57q-77 74 -92 86q-104 82 -139 117q510 -69 487 -72q102 0 135 -10q15 -10 175 -119q50 -36 69 -67zM518 1040 q-218 212 -344 312q3 3 -20 26q12 12 16 31v178q245 -198 348 -287v-260zM1137 27q-75 -10 -179 2q-46 6 -133 6q-59 -3 -135 -6q-14 -1 -27.5 -1t-21.5 -0.5t-14.5 -0.5h-8.5h-2q-6 0 -55 12q-49 15 -74 18q0 363 168 363q9 -61 9 -213q21 -27 30 -27q5 0 36 3t36 3 q18 0 86 -8q76 -6 86 -6h33l51 905q0 10 -12 19q-149 9 -172 12q-7 1 -44.5 10.5t-45.5 9.5q-5 0 -20.5 -4t-20.5 -4q-9 -52 -9 -151q-4 1 -15.5 2t-25.5 3t-30 5q-44 8 -72 12q-23 260 -23 264q34 20 50 23q10 -1 68 -4t110 -6q101 -8 184 -8q49 0 96 2q94 4 97 4v-1239z M963 723l-45 -469q-190 150 -216 172q9 33 -24 66q-37 37 -41 49q-16 62 -16 200l6 76q7 80 4 109l-8 10q41 -6 86 -6q23 0 26 6q16 75 2 147l226 -22v-338zM883 215q-2 2 -33 2q-2 0 -44.5 3t-57.5 3l-39 10v129q137 -108 174 -147zM643 467q-37 -16 -121 -16q-74 0 -82 8 q-76 66 -153 155q-24 27 -70 80.5t-70 79.5q81 19 123 19q62 0 80 -11q141 -122 293 -315zM453 111q0 -5 -5.5 -20t-5.5 -19q-9 12 -151 145q-97 87 -141 170q-54 97 -39 334v27q159 -142 168 -150q96 -87 149 -180q31 -57 31 -180q0 -22 -4 -84q-1 -9 -1 -16.5t-0.5 -12.5 t-0.5 -8.5v-4.5v-1zM150 1618l-19 -236l399 -393l9 295zM735 1108v-172h-112l-21 -389l82 -139l264 -193l35 846zM80 786l24 -413l361 -342l-4 397z" />
<glyph unicode="k" horiz-adv-x="1292" d="M1221 8q-26 132 -29 219v398l-20 10t-45.5 23t-59.5 30q-82 43 -100 57q85 69 217 146v199q3 221 10 276q1 5 6.5 20.5t5.5 18.5q-4 3 -21 18t-22.5 20t-21 18.5t-23 19t-21 16t-22 15.5t-19 11.5t-19.5 9.5t-17 5q-41 10 -174 4l-23 10l-21 -6q-29 -6 -97 -18 q0 -170 -21 -320h-18q-3 9 -9 115q-3 63 -22 82q-61 51 -86 68q-7 7 -22.5 21.5t-22.5 21.5q-36 28 -62 28q-7 0 -13 -3t-13 -3q-5 0 -27 9t-27 9q-180 11 -217 11q-39 0 -75 -25q36 -219 36 -614v-189l-2 -20q-3 -39 -6 -72q-6 -99 -6 -176q0 -111 17 -184q9 -33 153 -144 q144 -108 176 -108q5 0 22 11t21 11q25 0 64 -2h82q5 0 25.5 -10t25.5 -10q15 0 18 10q0 320 -2 320q10 0 17 -7q3 -67 -4 -116q90 -74 137 -109q100 -80 117 -125q7 0 39 -4t36 -4q120 0 185 8zM1149 1391q-78 5 -105 8q-62 6 -67 6t-10 -7t-13 -7q-23 0 -75 43 q-34 29 -80 63q180 3 209 -2q22 -3 69 -41q47 -35 72 -63zM885 1374l-8 -280q-40 43 -121 96q-23 16 -23 78q0 -4 3 16t9 69.5t13 116.5q101 -75 127 -96zM856 1051h-184q3 18 0 120h22l15 -14q92 -24 147 -106zM602 1360q-30 2 -59 5t-41 4t-15 1h-59q-11 0 -109 55 q-143 78 -161 86q13 0 44 -0.5t88.5 -1.5t110.5 -2h21q23 0 100 -71q73 -67 80 -76zM1169 45q-17 -10 -61 -10q-58 0 -117 24q-11 41 -8 174q0 110 -45 164q-34 3 -123 9q-76 8 -92 8q-3 -1 -25.5 -5.5t-35 -13.5t-9.5 -26v-267q-107 -12 -211 0q0 75 -8 187q-1 17 -2 33.5 t-2 28.5t-1.5 23t-1 18t-1 12.5t-0.5 7.5v2q0 20 8 104t8 105v282v88q0 3 5.5 17t5.5 20q2 56 4.5 130.5t3.5 88.5q3 60 -19 82h140q8 1 23 -6.5t18 -7.5l5 -85q2 -70 3 -165q0 -57 45 -57q12 0 22 2h25h205v350q6 -1 26 -12t27 -11q5 0 24 8.5t27 8.5q123 0 123 -92 q0 -46 -25 -351q-141 -96 -243 -159q11 -22 102 -70q98 -49 141 -80q13 -37 13 -55q2 -31 10 -172q1 -10 2 -40.5t3 -66.5t5 -73q6 -114 6 -121v-31zM936 109q-150 129 -180 139v114q104 3 147 -4q36 -39 33 -77v-172zM420 1141v-6q0 -6 -1 -21t-1.5 -34.5t-2 -49.5 t-3.5 -63q-11 -239 -13 -383q-7 -288 -4 -475l-209 165q-43 43 -43 146v201q0 22 2 61t2 86q0 40 3 135q2 66 2 141q0 60 -13 222q-3 42 -5.5 78t-3.5 52l-1 15v59h25q4 0 118 -63q13 -6 38.5 -18.5t39.5 -18.5q54 -28 60 -55q10 -45 10 -174zM98 1524l17 -1211l305 -239 v1269zM723 1505l-39 -297l215 -157l29 311zM735 387l21 -139l207 -205l-13 305z" />
<glyph unicode="l" horiz-adv-x="1155" d="M1102 45q9 256 -2 289q-1 0 -4 2t-9 4t-12 2q-39 0 -194 223q-35 47 -58 47q-3 0 -8.5 -0.5l-16.5 -1.5l-22 -2q-25 -2 -47 -2q-24 0 -33 86q9 292 0 301q12 211 13 238q5 45 14 100q10 75 10 76q0 11 -16 37q-23 33 -25 35q-208 178 -215 180q-23 13 -67 16q-25 3 -66 0 q-13 -1 -28 -2t-23 -1.5t-12 -0.5q-6 0 -33 10h-62q-39 3 -53 -14l-14 -307q0 -128 -10 -428q0 -13 -6.5 -47.5t-6.5 -36.5v-313q0 -51 -22 -205q21 -23 65.5 -71.5t65.5 -72.5q81 -81 143 -104q127 -47 479 -47l121 -6q130 -3 144 -2zM651 1440l-51 -2h-84q-7 0 -12 2.5 t-10.5 9.5t-6.5 8q-38 8 -45 12q-29 18 -106 82q-78 65 -113 86q21 -2 79.5 -3.5t95 -6t63.5 -14.5q20 -14 45 -39q107 -55 145 -135zM1053 66l-604 45q-13 123 -13 163q0 14 7 68t8 96v969h127q72 0 110 -14q-29 -227 -29 -580v-326q0 -5 -16 -67q-14 -55 -14 -66t11.5 -23 t21.5 -12q4 0 27 3.5t32 3.5q14 0 82 -11q15 -2 30.5 -5t22 -4t8.5 -1q46 0 172 -12q11 -4 17 12v-239zM1012 338q-27 0 -58 2q-29 2 -49 2q-16 0 -92 8q-73 8 -123 8q0 52 2 91q3 75 6 100q-6 17 -10 24h49q85 3 135 -65q92 -129 140 -170zM426 1356l-31 -1237 q-41 12 -86 39q-26 17 -108 104q-82 88 -82 107l22 247l31 1008q73 -42 143 -96q96 -72 109 -101q2 -6 2 -71zM170 1657l-76 -1317l303 -258l64 1362z" />
<glyph unicode="m" horiz-adv-x="1615" d="M1530 27l-57 1024q0 137 12 202q-78 66 -99 72q-57 26 -71 31q-94 76 -152 127q-40 25 -133 28q23 -1 -3 -2h-134l-746 52q-7 0 -38.5 -20t-42.5 -23v-43q0 -22 8 -101t8 -98v-246q0 -8 8 -35t8 -32v-220q0 -31 8 -172q9 -156 9 -168v-229q0 -61 4 -123 q271 -235 301 -235q8 0 20 12t17 12q-1 0 8.5 -2t31.5 -5.5t50 -8.5l13 2q3 0 9 1l19 1q32 3 41 -12q14 16 26 28q-12 173 -12 199q12 269 21 324q112 -81 157 -129q16 -30 21 -41q93 -12 106 -13q17 -100 17 -135q10 -7 84 -69q57 -47 88 -62q61 -32 149 -125q3 0 53 -4 q41 -6 47 -6q69 0 127 10q0 39 17 234zM1374 1276q-46 0 -137 -6t-94 -6q-16 0 -68 8t-67 8t-56 -8q-39 -8 -51 -8q-5 0 -36 10.5t-40 11.5q-26 2 -105 8t-132 9q-3 0 -13.5 5t-19.5 5q-7 0 -4 -8.5t-4 -8.5q-5 0 -30 8.5t-32 8.5q-5 0 -21 -4t-24 -4q-7 0 -23 8t-24 8 q-9 0 -106 72q-25 19 -77.5 57.5t-78.5 58.5h53q10 0 86 -12t88 -12l568 -17q132 0 182 -18q55 -23 137 -86q90 -69 129 -88zM1481 264q-9 -364 -19 -430q-98 0 -145 8q0 65 -6 197t-6 176q0 58 2 115q2 51 2 121q-3 74 -11 114q-32 3 -106 31q-99 34 -127 39 q-28 -73 -31 -184q-2 -66 -2 -195l-22 -37q-43 0 -117 19q-24 45 -29 104v14q-1 13 -2 42t-2 63q10 94 17 131q-4 5 -10.5 12t-8.5 10q-175 -24 -180 -24l-25 8q-48 0 -51 -23q-2 -70 -2 -333v-209q0 -1 -0.5 -8.5t-1.5 -23.5t-2 -34q-4 -86 -4 -92h-146l-43 1167q0 6 13 29 q4 176 4 199q53 0 100 2h76l375 -41h442zM1272 -109q-261 172 -258 209v78q29 -16 55 -16q45 0 45 104q0 35 -2 68v76q0 80 8 129q64 -15 103 -15q14 0 18 -2h8q17 -202 17 -264v-217l5 -74q1 -35 1 -76zM813 309q-32 26 -82 68t-69 57q-11 75 -13 70q0 39 15 39q6 0 8 -2 q38 16 57 14h84v-246zM395 150q0 -130 -10 -250q-112 87 -186 149q-41 35 -41 70q0 3 1.5 25.5t3 54.5t1.5 57l-25 690q-16 68 -14 101v397h29q132 -102 204 -150q12 -53 0 -174q-2 -14 4 -63q9 -47 9 -51v-455q0 -10 12 -201t12 -200zM94 1499l31 -1421l293 -230l-31 1430z M641 557l6 -158l199 -159l-8 342zM1108 565l-94 -387l-25 -104l289 -238v696z" />
<glyph unicode="n" horiz-adv-x="1497" d="M1413 -20l-70 1081l5 88q2 54 2 117q0 39 -17 53q-46 38 -135 86q-1 0 -121 59q-26 16 -114 78q-68 51 -80 51q-7 0 -47 -6q-54 -4 -56 -4q-18 0 -41 2h-39h-630l36 -645q0 -392 -10 -477q-8 -68 -8 -123q0 -29 4 -57q11 -44 152 -203q138 -156 176 -156q1 0 8.5 0.5 l22.5 1.5t32 2q39 2 82 2q16 0 59.5 -7t45.5 -7q20 0 55 18v41q0 4 -10 56l-13 61q-22 269 -14 393q6 107 -2 152h141q9 -12 11 -14q9 -327 12 -488q240 -205 258 -223q4 -18 6 -25q23 -16 37 -55q125 43 227 16q35 27 35 132zM1274 1294q-32 0 -115 6q-80 9 -84 9h-655 q-12 0 -101 80q-29 27 -151 133h1h1h1h1l2 1h1h1h1h1h1h1h1h2h1l1 1h1h1h1h1h1h1h2h1l1 1h1h1h1h1h1h1h1h1h2l1 1h1h1h1h1h1h1h1h1h1l1 1h2h1h1h1h1h1h1h1h1l1 1h1h1h1h1h1h2h1h1h1l1 1h1h1h1h1h1h1h1h1h1l1 1h1h1h1h1h1h1h1h1h1l1 1h1h2h1h1h1h1h1h1h1l1 1h1h1h1h1h1 l160 16l418 -8q42 -18 111 -63q79 -48 106 -60q75 -25 205 -123zM1374 -2q0 -34 -18 -102q-100 0 -158 -9q-7 7 -12 17q-3 266 -39 743q-3 14 -33 17q-317 15 -461 12q-6 -64 -6 -152q0 -80 10 -282q15 -200 15 -260q-6 -9 -19 -19q-98 11 -213 8v529q0 48 -8 121 q-8 76 -8 90v290q0 22 -8 95q-8 76 -8 96q0 92 88 92l798 -22q19 -36 19 -50l18 -843zM1141 -51q-11 11 -123 88q-82 59 -129 129q-2 2 -2 72q0 4 -8.5 22t-8.5 25q1 7 4 8q7 -3 7 0v176q-3 73 0 149q39 17 49 17q9 0 123 -12q32 -3 47 -21q12 -109 24 -164q20 -223 17 -307 v-182zM408 268q0 -117 -27 -258q-177 174 -242 279q-8 13 -8 110q0 71 8 172q11 143 11 177q-14 268 -35 540q-1 8 2 113q3 87 8 108q225 -206 248 -227q-2 -64 4 -229q3 -53 6 -117l2 -33v-239zM96 1561l-4 -1278q-3 -21 316 -322l-7 1307zM864 647l-14 -512l313 -264 l-26 750z" />
<glyph unicode="o" horiz-adv-x="1415" d="M1341 -57q-14 113 -16 104v197q0 12 -8 53q-6 46 -6 63l-19 930q-27 -3 -88 43l-84 64q-221 125 -303 188q-56 9 -59 10q-41 9 -49 9h-486q-5 0 -26 4t-29 4q6 0 -3 -3l-93 -22l92 -1116q0 -35 -12 -143q12 -12 71 -60q42 -34 101 -96q45 -45 129 -113q90 -70 131 -114 q8 -3 16 -6.5t11.5 -5t4.5 -1.5q17 0 33 2h37q32 0 84 -8t66 -8q18 0 75 8q67 6 78 6v0q46 -1 105 -2q102 -3 155 0q21 -12 29 -12q9 0 35 12.5t28 12.5zM1184 1294l-572 -18q-68 0 -92 18q-137 103 -356 271h522q58 3 119 -27q136 -82 182 -113q72 -41 197 -131zM1286 -18 q-24 -7 -221 -7h-332q-37 1 -63.5 2.5t-38 2.5t-10.5 2q-13 106 -29 352q-12 188 -12 225v436q0 2 -9 101q-6 102 -6 147q44 0 117 8q85 9 90 9q10 0 86 -9q68 -8 86 -8q22 0 103 8q91 9 102 9q1 0 104 -25l17 -670q-2 -94 -2 -157q0 -44 8 -117q2 -22 5 -44t4 -31t1 -11 v-223zM571 29q-112 78 -364 315q-30 403 -45 707q-1 17 -4 46.5t-8 79.5t-9 91q-15 149 -14 153v113q152 -103 354 -248q28 -22 31 -90q3 -80 8 -96q12 -41 12 -131l17 -709q5 -50 12 -127t10 -104zM1067 862q0 20 -18 35q-168 21 -248 -8q0 -96 8 -227q8 -145 8 -201 q15 -19 17 -25q133 8 217 8q0 92 2 164q4 148 4 160q0 14 2.5 36.5t5 39t2.5 18.5zM1010 858v-160q0 -104 -9 -159q-123 63 -161 110v178q8 -8 18 -8q6 18 6 31q26 16 70 16q4 0 35.5 -4t40.5 -4zM995 485h-114q-5 18 -13.5 48t-11.5 42q27 -18 74.5 -48t64.5 -42zM111 1567 l53 -1223l434 -375l-63 1280zM831 872l7 -256l192 -96l2 342z" />
<glyph unicode="p" horiz-adv-x="1220" d="M1151 449l-33 727q-50 14 -172 118q-27 24 -98 101q-54 57 -82 73q-21 15 -94 15q-287 0 -561 -4q-43 -12 -43 -25v-22q0 -6 12 -74q10 -56 14 -103q0 -5 8 -141q1 -27 2 -51.5t1.5 -36.5t0.5 -14l-10 -154q-8 -141 -8 -235q-6 -63 -12 -95v-307q153 -153 264 -282 q29 -37 29 -56q15 -18 32 -18q8 0 30.5 7t25.5 7q21 0 73 6q74 4 86 4q55 0 101 -16q3 3 9 13.5t9 13.5q-3 10 -12 45t-13 51t-8 43t-4 49q0 37 2 55q2 15 -8 68q-8 41 -8 59q0 43 -2 78q-2 37 -2 78q39 20 82 20q2 0 12.5 -0.5t31 -1.5t42.5 -2t43 -2t32 -1.5t13 -0.5 q5 0 5 8.5t5 8.5q7 0 22.5 -4.5t20.5 -4.5q15 0 62 -8t61 -8q23 0 39 19zM993 1202l-426 12q-7 0 -5 -7t-3 -7q-7 0 -21 4t-18 4q-15 0 -39 4q-21 -12 -28 -12q-38 0 -93 49q-15 13 -43.5 41t-42.5 41q-34 26 -82 63.5t-61 47.5h490q87 0 127 -19q21 -12 79 -73 q74 -77 166 -148zM1100 487h-453q-10 -8 -22 -14v-31q36 -453 41 -458q6 -6 6 -19v-41q-156 -6 -250 0l-16 553q0 20 8 111t8 106v473q147 9 266 9q248 0 391 -33zM389 825q0 -21 -8 -120q-1 -19 -4 -59t-4 -60v-619q-210 195 -248 279q-19 43 -19 209l9 100q9 106 12 186 q8 257 8 353q0 32 -6 114q-6 78 -4 82v96q45 -17 151 -114q113 -98 113 -129v-318zM915 707v245q0 27 -43 33q-92 10 -149 10q-63 0 -98 -18q31 -48 22 -133q-9 -97 2 -137h41q3 0 36 6t46 6q61 0 143 -12zM866 754q-83 71 -186 133q0 39 10 69h168q8 -8 8 -202zM797 754 q-89 0 -115 8v76q13 -9 63 -33q37 -21 52 -51zM100 1438l-10 -1196l307 -344l6 1282zM895 956l-227 19v-105l233 -143z" />
<glyph unicode="q" horiz-adv-x="1449" d="M1372 14v37q0 11 -24 217q-25 214 -25 215v529q0 202 -12 291q-199 116 -305 200q-81 66 -111 72q-42 10 -227 10l-576 25l23 -895l-2 -25q-3 -23 -4 -39q-7 -75 -7 -116q0 -99 25 -154q42 -89 131 -178q27 -26 81.5 -77t82.5 -77q32 -29 72 -29q7 0 45 4.5t45 4.5 q92 0 129 -21q63 -42 182 -121q6 -49 14 -59q7 0 127 -8q87 -9 131 -27q0 6 10.5 16.5t16.5 10.5q-16 71 -8 194h186zM1212 1307q-171 9 -395 0q-83 -3 -112 -11l-17 17h-119h-84q-8 0 -118 96q-111 99 -158 156l573 -23q93 0 197 -72q39 -28 116.5 -81.5t116.5 -81.5z M1313 66q-33 -11 -96 -3q-63 6 -89 -14q15 -199 -10 -199q-1 0 -8 1.5t-23.5 4t-35.5 5.5q-55 8 -93 8q-31 78 7 180q-22 22 -31 25h-440v1177q14 0 14 27q11 0 27 -16q8 8 8 16q97 -17 196 -14q153 6 359 6q16 0 92 -17q18 9 88 9v-584q10 -166 18.5 -318t12 -218.5 t4.5 -75.5zM473 739l-27 -624h-30l-125 125q-75 78 -105 149q-41 89 -32 252q9 184 -4 233l-7 676q38 -28 108.5 -81t102.5 -76q119 -101 119 -217q0 -26 -6 -82q-4 -67 -2 -82q3 -118 6 -201q2 -43 2 -72zM905 -63q-108 66 -127 79q33 13 80 13q28 0 47 -19v-73zM1143 438 q0 10 -8.5 46t-8.5 42v256q0 175 -8 248q-10 10 -31 10q-5 0 -29 -11t-32 -11q-205 -11 -338 -8q-29 -3 -29 -33q0 -6 21 -162q21 -169 27 -246q10 -134 14 -250q93 -43 176 -43q20 0 35 11q-3 57 14 135h103q62 -3 94 16zM1094 823q0 10 -3 -2q-2 -9 -4 -28 q-8 -51 -14 -244q-158 149 -342 315q-17 49 -20 90q189 14 354 35q8 -48 15.5 -89.5t10.5 -58.5t3 -18zM1075 485q-3 -15 -10 -22q-109 16 -160 16q-7 0 -71 58l-95 90l-10 132v-1v53zM897 436q-10 -45 -10 -108q-88 16 -123 16q-16 135 -19 211q113 -85 152 -119zM117 1587 l16 -1122l60 -160l280 -264l4 1253zM700 985l5 -135l399 -344l-17 508zM725 590l12 -244l168 -53l25 139zM717 49l209 -170l16 154z" />
<glyph unicode="r" horiz-adv-x="1308" d="M1247 -100v80q0 45 -18 69q6 34 0 170q-10 268 -8 299q-31 31 -39 41q-17 14 -103 72q-63 42 -71 65q5 5 112 70q88 52 88 84l-24 524h-39q-16 47 -72 90q-254 181 -297 181l-588 -9q-72 0 -84 -2q-38 -49 -38 -67q0 -12 6 -39q8 -31 8 -41q6 -40 6 -270v-87 q0 -59 10 -219q4 -54 8 -105t6 -79t3 -37q1 -14 2 -42.5t2 -43.5q0 1 0 -8v-17t-0.5 -24.5t-0.5 -33t-0.5 -40.5t-0.5 -49q0 -136 6 -160q20 -71 112 -184q77 -86 150 -174q59 0 143 -8t99 -8q7 0 16 8t14 8q43 0 43 27q0 23 -6 73q-6 53 -6 74q0 37 10 57q26 -20 76 -57.5 t76 -56.5q99 -77 131 -140q43 3 106 -2l74 -6q4 0 41.5 8.5t46.5 8.5zM1077 1393q-15 0 -48.5 0.5t-96.5 1.5t-121 2q-17 0 -80 -8q-19 -2 -39 -3.5t-29 -2.5t-12 -1q-5 0 -4 7.5t-6 7.5q-3 0 -37.5 -5.5t-48.5 -5.5q-9 0 -23 1t-35 2t-38 2q-64 6 -70 6q-7 0 -13.5 -7.5 t-13.5 -7.5q-18 0 -251 205q71 6 120 -26q3 3 0 14l-4 14l475 17q136 0 375 -213zM1079 623l-8 -9l-10 13l6 8zM1192 -55q-104 2 -176 2q-6 228 -45 413q-78 2 -182.5 6t-131.5 5q-7 -7 -10 -15q-4 -132 -4 -151v-244q-107 -12 -229 0q6 178 6 328l-45 1052q294 33 444 33 q6 0 47 -12q45 -10 49 -10q2 0 10 0.5t23.5 1.5t32.5 2q16 1 33 2t26 1.5t11 0.5q20 0 63 -19q41 -18 41 -38v-451q-176 -116 -225 -139q19 -42 106 -97q103 -65 142 -110v-203q0 -9 6 -49q8 -36 8 -49v-260zM381 332q0 -1 -0.5 -3t-0.5 -5.5t-0.5 -8t-1 -10.5t-1 -14 t-1 -16.5t-1 -20t-0.5 -23.5q-4 -110 -4 -231l-57 72t-58 71q-69 92 -88 144q-10 30 -10 71q0 44 8 123l-39 596v445q43 -36 102 -86t78 -66q36 -29 33 -131q-3 -52 0 -154l4 -104zM969 -8l-277 211v119l234 -11q24 -66 32 -176q1 -11 2 -21.5t2 -19t1.5 -16t1.5 -13.5 t1.5 -11.5t1 -9t1 -5.5t0.5 -3v-1v-43zM924 1030q0 22 -6 72l-2 28t-2 22.5t-1 12.5q-15 3 -49 -6l-20 -5l-10 -3q-35 0 -82 2q-20 1 -39 2t-29 1.5t-12 0.5q-18 0 -34.5 -16.5t-16.5 -36.5q0 -13 8 -94q8 -79 8 -136q77 -32 125 -32h67h93q0 51 2 94v94zM883 911 q-76 45 -213 156v59q9 -15 18 -18q114 15 178 18q19 -37 17 -49v-166zM821 887q-86 9 -137 18q3 37 -14 105q58 -47 151 -123zM96 1561l45 -1287l258 -340l-32 1389zM649 1133l4 -89l242 -178l12 271zM662 338l20 -164l315 -252l-36 400z" />
<glyph unicode="s" horiz-adv-x="1185" d="M1116 1141q-6 21 -16 54.5t-13 45.5q-5 138 -16 164q-14 39 -90 88q-19 12 -57 35.5t-58 34.5q-16 13 -63 57q-39 36 -53 39q-67 17 -177 20q-113 4 -190 2l-102 -4h4q-5 0 -38 -7t-38 -7q-73 0 -111 14l-4 -3q-5 -2 -9.5 -7t-4.5 -12q0 -1 16 -76q18 -70 21 -98 q7 -128 20 -410q3 -115 8 -125q27 -41 97 -92q57 -37 75 -51q23 -13 68 -51q29 -26 47 -31q95 -22 96 -23l-6 -41l-82 9q-58 0 -231 12q-5 0 -23.5 5t-23.5 5q-14 0 -27 -8q-21 -15 -22 -16q-9 -261 -9 -308q0 -63 2 -67q26 -53 166 -187q131 -125 148 -125q7 0 12 4.5 t12 4.5q10 0 13 -13q1 -7 2 -13l1.5 -9t0.5 -4h448q55 -7 125 -19l1 -3q1 -3 5 -6t11 -3q20 0 38.5 17t18.5 36l-39 862q0 1 3 3t6 7t3 11q0 14 -6 35q-70 59 -145 104q-113 92 -131 125q51 11 149 8q109 -3 150 0q4 3 18 17zM1016 1403q-58 0 -107 -2h-80q-10 0 -10 -17 q-17 17 -69 17h-201q-81 0 -127 24q-93 52 -248 201q22 1 98 3.5t131 4.5q138 6 146 6q127 0 178 -26q67 -37 147 -98q29 -24 142 -113zM961 907h-107q-49 -2 -109 -2q-3 17 -18 68q-12 43 -12 53v94h53l-14 -18q81 -81 207 -195zM465 760l-141 80q-84 54 -125 114 q-10 14 -13 58v82q-10 49 -18 69q-4 66 -4 221q-3 130 -12 201q102 -72 272 -219q6 -98 27 -311q15 -195 14 -199v-96zM1055 1178q-22 -14 -56 -17q-21 -3 -55 0q-54 4 -55 4q-77 -3 -209 11q-2 -1 -8.5 -4.5t-9.5 -7.5t-3 -11q0 -8 6.5 -27t6.5 -22q23 -198 41 -238 q79 8 260 8q5 0 28.5 -8t28.5 -8l23 -436v-451q-295 26 -555 23v102q0 1 0.5 5.5t1.5 15t2 22.5q8 151 8 160q0 3 -2 29t-2 34q88 -6 336 -6q29 0 39 29q9 269 12 324q-10 7 -14 16q-256 30 -355 37q-45 380 -57 518l8 88q133 -10 221 -10q34 0 156 4q91 6 137 6h25 q19 -15 22 -16q19 -81 19 -140v-34zM836 688q0 -136 -9 -231q-50 40 -57 45q-74 46 -111 71q-92 62 -92 93q0 8 4 22.5t4 16.5h158q5 0 36 -8.5t38 -8.5h29zM807 401q-37 -3 -94 -7l-76 -7q-5 0 -29 6t-28 6q-85 3 -185 84q-159 142 -168 150q58 -6 197 -6q7 0 4 -7.5 t4 -7.5q3 0 15 3t20 3q39 0 92 -30q8 -5 34.5 -23.5t41.5 -27.5q102 -62 145 -91q21 -24 27 -45zM467 217q-2 -29 -6 -88q-4 -114 -4 -127q-79 68 -166 145q-91 85 -133 158l10 305q187 -108 272 -209q26 -33 29 -102q-1 20 -2 -3v-79zM119 1638l41 -692l338 -221l-41 657z M545 727l-2 -106l315 -228l4 309zM137 659l-8 -358l348 -332l25 414z" />
<glyph unicode="t" horiz-adv-x="1462" d="M1409 944v35q0 9 -5 26.5t-5 20.5q-1 5 -8 96q-9 64 -9 107q0 47 9 84q-166 155 -230 198q-134 79 -178 99q-40 30 -49 30q-14 0 -55 -8t-54 -8q-32 0 -207 8t-206 8q-3 0 -142 19q-132 18 -139 18q-28 0 -37 -6q-3 -4 -12.5 -12t-12.5 -16.5t-3 -26.5q0 -194 -3 -180 q-1 4 -2 30q3 -147 37 -211q33 -67 129 -145q75 -59 164 -125q2 -1 12 -6.5t13.5 -8.5t7.5 -9.5t4 -14.5q40 -6 55 -4q15 -15 19 -27q15 -138 24 -237q32 -188 35 -567q35 -31 74 -70q13 -16 41 -45.5t41 -44.5q63 -66 100 -66q1 0 11 -0.5t31 -1.5t44 -2q79 -6 117 -6 q18 0 51 10v1053q76 0 86 -10q13 0 44.5 -3t33.5 -3q1 0 18.5 2.5t61.5 8t94 11.5zM1309 1333q-36 8 -113 8q-110 0 -324 -20q-225 -21 -270 -21q-50 0 -110 17q-35 12 -93 76q-43 48 -133 125q-71 58 -108 112h63q5 0 38.5 -9.5t41.5 -10.5q331 -33 420 -33q17 0 80 8t82 8 q44 0 143 -51q74 -36 131 -76q61 -51 152 -133zM434 1247q-9 -9 0 -225q-175 76 -291 256q-37 58 -22 266v41q157 -131 198 -164q121 -103 115 -174zM1354 969h-101q-47 -2 -79 -2q-21 0 -123 24q-25 -16 -25 -47q0 -9 6 -44.5t6 -43.5v-350q0 -21 -8 -117q-8 -93 -8 -113 v-344q-21 -12 -57 -12q-12 0 -66 4q-44 8 -61 8q-9 71 -9 205v346l-1 9q0 8 -1 26.5t-2 40.5q-2 49 -2 111q0 30 6 92q9 62 9 65t-1 10.5t-2.5 23.5t-3.5 32q-4 78 -4 84q-29 20 -41 20q-5 0 -18.5 -6t-17.5 -6q-14 -2 -164 -2q-7 0 -39 11.5t-39 11.5q-8 0 -21 -7.5 t-16 -7.5v293h494q2 0 7 0.5l15 1.5t21 2t22.5 2t17.5 1.5t9 0.5q9 0 80 6q70 9 80 9q98 0 126 -25q9 -176 11 -164v-149zM788 -45q-33 13 -90 70q-59 59 -82 104q-22 36 -22 162q0 5 4.5 46t3.5 54q-23 278 -49 551h235v-987zM94 1638l-4 -368l356 -295l3 325zM522 954 l62 -825l231 -219l-4 1059z" />
<glyph unicode="u" horiz-adv-x="1634" d="M1552 -82v51q-7 261 -14 396q1 33 2 71t1.5 58t0.5 30v303v357q-21 65 -90 137q-42 46 -135 121q-7 5 -23 8q-6 0 -24.5 -2t-20.5 -2t-15.5 -0.5t-41.5 -1.5t-59 -2q-34 -2 -73 -3.5t-63.5 -2.5t-38.5 -2q-27 -27 -45 -39q41 -121 41 -617q0 -53 -14 -119q-15 9 -59 9 q-35 -3 -45 14q-1 13 -4 40t-8 72.5t-9 88.5q-14 123 -14 141q0 126 -10 211q-42 3 -68 29l-135 129q-130 118 -172 118l-131 -4q-130 -3 -195 0q-35 -56 -35 -61q0 -2 1.5 -10.5t5 -30t6.5 -41.5q15 -78 18 -109q5 -119 13 -297.5t10 -236.5q3 -46 -5 -135q-8 -93 -8 -107 l2 -250v4q160 -113 232 -182q27 -27 82.5 -83.5t83.5 -84.5q7 7 28 21q18 12 31 12h27q2 0 17.5 0.5t48 1.5t69.5 2t69.5 2t48 1.5t17.5 0.5q465 0 526 -2q22 -2 84 -12q65 -10 66 -10q6 0 10 2t5.5 4t4.5 6.5t4 5.5zM1473 1198q-156 12 -261 12q-6 0 -118 86 q-112 89 -115 99q18 0 162 4q34 2 59 3.5t35.5 2t9.5 0.5q45 0 127 -88q14 -14 101 -119zM1196 709q0 1 0 -1t-1 -8.5t-1.5 -14.5t-2 -22t-3.5 -28q-8 -60 -4 -123q2 -35 2 -123q-134 180 -180 234q-3 9 0 18q-3 13 -17 31q9 76 -2 123l-6 522q32 -25 121 -76q60 -35 78 -65 v-293q1 -4 8 -88q8 -68 8 -86zM678 1231q-63 -15 -107 -4q-17 -17 -98 -17q-12 0 -139 95q-123 90 -213 153q102 12 246 12q51 0 163 -92q97 -82 148 -147zM1513 688q0 -4 -6 -29t-6 -34q-6 -237 -6 -357v-301q-15 -3 -37 0q-27 6 -31 6l-81 -6q-80 -3 -127 0 q-217 15 -285 15q-6 0 -9 -2t-1 -5l4 -10l-21 17q-129 -17 -381 -17v166q1 2 5 12.5t7 21.5t3 17q0 4 -7.5 40.5t-7.5 45.5q0 70 6 146q3 34 -6 129q-9 109 -12 178q0 7 -10 37t-10 37v366q22 19 141 19q5 0 37 7t39 7q56 0 65 -225q8 -200 8 -592q0 -14 14 -26.5t31 -12.5 q255 0 402 -16q6 3 12 12q-2 20 -6 58l-6 57q-9 75 0 120q8 41 8 90q0 39 -10 107q-8 57 -8 86q0 5 7 23.5t7 23.5q0 200 4 262q144 3 256 -8q0 -116 8 -283q2 -35 3.5 -67t2.5 -52.5t2 -35.5t1.5 -21.5t0.5 -5.5zM1133 375q-78 4 -291 4q-20 54 -17 92v156q105 -4 119 -2 q129 -147 189 -250zM494 147q0 -42 -21 -174q-180 186 -328 277v203q-2 80 2 180q0 56 -8 340q-10 207 -10 213q-8 123 -8 143q0 30 10 68q25 -16 77 -45.5t77 -44.5q101 -59 147 -105q26 -26 29 -141q2 -81 -2 -184l-6 -63v1zM84 1444l39 -1200l377 -336l-11 1282z M956 1378l-16 -719l291 -337l-17 845z" />
<glyph unicode="v" horiz-adv-x="1574" d="M1507 1190q0 17 -26 37q-79 55 -105 69q-49 44 -170 164q-103 103 -108 103q-3 0 -8 -0.5t-15.5 -1.5t-19.5 -2q-10 -1 -19 -2t-14 -2t-6 -1q-11 0 -60 -8q-52 -6 -84 -2q-44 6 -45 8l58 -761q0 -49 -29 -78l-12 14q10 110 4 242q0 35 -12 149q-13 110 -13 150 q-139 133 -239 223q-14 13 -39 37t-39 37q-43 41 -78 51q-46 14 -137 20l-191 6q0 -7 -10 -20q10 -11 8 -15t-9 -11t-7 -13q0 -1 0.5 -11t2 -39.5t3.5 -57.5q8 -96 8 -160q0 -62 2 -111v-76v-208q0 -16 11 -220q9 -179 18 -188q110 -170 281 -354q24 -24 73 -49 q18 -11 58 -19q38 -9 47 -18q181 -152 192 -152q16 0 68 8q58 9 67 9t168 -21q156 -20 172 -20q13 0 95 73q107 97 131 115q1 21 3.5 89t4.5 118q1 37 2 69.5t1.5 47.5t0.5 16v221l4 162q2 111 2 250q-3 26 4 80q6 49 6 53zM1378 1241q-14 0 -29 2.5t-26.5 5.5t-21 6.5 t-15.5 6.5l-6 2q-4 0 -40 -4.5t-44 -4.5q-18 0 -211 156q-47 47 -76 84q94 18 158 18q26 0 143 -114q145 -142 168 -158zM1159 1237q-21 -139 -24 -180v-414q0 -25 -19 -125q-64 49 -125 125q-77 96 -69 139q4 24 4 54q0 4 -2.5 38.5t-8.5 116.5t-12 170q-22 283 -24 303 q130 -114 280 -227zM731 1307q-21 -3 -61 0q-14 1 -25.5 2t-17 1.5t-6.5 0.5q-13 0 -37 -15l-445 295q85 3 94 0q68 -10 105 -10q87 0 201 -102q32 -28 96 -86t96 -86zM1450 401q-22 -232 -27 -284q-3 -16 -90 -94q-90 -78 -104 -78q-17 0 -80 8q-71 6 -82 6q-14 0 -55 8 t-56 8q-2 0 -11 -0.5t-26.5 -1.5t-35.5 -2q-17 -1 -34.5 -2t-26.5 -1.5t-11 -0.5q-22 0 -125 86q-86 71 -115 103q-1 6 1 19.5t4 24.5l2 11v254l-41 422v3q0 2 0.5 7.5t0.5 14t0.5 20.5t1 26t1 32t0.5 38q4 192 4 217q25 19 88 19q9 0 47 -9q33 -8 47 -8q31 0 51 -10 q6 -92 16.5 -220.5t10.5 -129.5q2 -70 2 -211q3 -135 14 -209q20 -30 35 -39q52 -116 178 -233q32 29 66 98q9 21 28.5 62t28.5 61q24 24 25 26q0 254 2 381q3 189 33 383q92 3 225 -51zM1118 451q-63 -105 -92 -175q-174 171 -174 308q0 28 35 96q20 -19 112 -117 q65 -68 119 -112zM528 385l-6 -92q-4 -122 -4 -146q-100 56 -201 175q-97 110 -143 206q-13 23 -16 86q-2 31 -2 95q-9 194 -25 290l10 539q182 -103 359 -235q3 -15 0 -48q-1 -12 -2 -22.5t-1.5 -15t-0.5 -5.5v-424q0 -3 1.5 -23.5t6 -73t8.5 -105.5q4 -51 8.5 -104 t6 -73.5t1.5 -23.5zM115 1575l28 -1028l168 -248l240 -193l-21 1197zM846 1520l49 -781l-68 -229l209 -272l123 227l33 747z" />
<glyph unicode="w" horiz-adv-x="1941" d="M1864 131q0 -1 -2 20.5t-7 72.5t-10 114q-21 216 -24 328q-2 47 -2 317q-3 189 -9 236q-3 25 -43 71q-44 53 -53 66q0 1 -37 71q-35 60 -65 60q-175 0 -242 -23q-2 -47 -2 -153v-185q0 -78 -12 -295q-3 -15 -6 -18h-76l-14 12v179q3 168 -37 258q-27 59 -105 149 q-70 82 -84 82l-94 -6q-99 -6 -137 -4q-11 -18 -27 -21q-10 -23 -10 -76q0 -10 6 -65q8 -47 8 -61v-199v-184l-65 6q-33 313 -45 413q-94 54 -181 230q-20 10 -28 10q-5 0 -14.5 -3t-14.5 -3q-11 0 -145 20q-96 13 -238 29l57 -727q0 -254 9 -309q25 -67 51 -103 q190 -279 223 -293q76 -32 338 -38q-22 1 3 1q32 1 251 1l866 -29q17 31 17 49zM1733 1255q8 1 -4 1q-18 1 -150 1q-13 0 -23 19q-14 26 -32 47q-9 7 -45 37q-29 34 -54 82q65 8 177 8q18 0 73 -94q7 -14 27.5 -48t30.5 -53zM1554 1200q0 -5 -5 -28t-5 -27q-4 -192 -4 -221 v-269q-94 54 -141 115q-8 13 -8 47q0 31 2 78q1 20 2 39t1.5 29t0.5 12v313q0 2 0.5 7.5t1.5 17.5l2 24q6 47 6 64q14 -16 39 -47.5t39 -46.5q69 -87 69 -107zM1188 1229h-80q-84 -3 -111 16q-45 30 -94 90q-15 17 -43 53.5t-43 53.5q43 0 111 8t82 8q35 0 178 -229z M1511 621h-256q-3 18 0 67q7 72 7 80l16 8q16 8 22 8h46q3 -19 67 -77q94 -82 98 -86zM967 1192l-31 -494q-32 32 -64 72q-43 46 -55 96q-17 74 -20 181q-2 52 2 188q1 35 1.5 69.5t0.5 28.5q0 5 5 23t5 22q14 -9 27 -18t26.5 -21.5t21.5 -20t22 -24t18 -21.5t20 -24.5 t17 -21.5q4 -8 4 -35zM1819 119q-210 -3 -312 6q-3 0 -26 7t-31 7h-201l-819 51q0 55 -22 347v727q77 18 227 0q28 -132 49 -426q4 -176 4 -207q10 -13 31 -13q228 0 258 -6q5 6 8 13q1 5 -2.5 21.5t-3.5 19.5q0 15 4 227q6 164 6 254q0 4 7.5 22t7.5 23q10 0 24 -14 q2 3 5.5 7t5.5 6.5t3 4.5q2 0 25 5t29 5q4 0 46 -7t52 -7q41 -220 29 -377q-2 -22 -4.5 -44.5t-4 -39.5l-3 -34t-3 -29t-2.5 -23t-1.5 -18.5t-1.5 -13t-1 -7.5v-2q0 -29 33 -29q5 0 66.5 7.5t91.5 7.5q44 0 102 -10q40 -5 53 -5q33 0 33 132q0 47 -8 180q-7 128 26 334 q21 -7 89 -7q44 0 86 -22q-2 6 -4 -3l-1 -22zM594 1294q-136 13 -158 13q-5 0 -27 -7.5t-26 -7.5q-20 0 -135 109q-112 106 -127 141q292 -46 291 -49q4 0 10 -3t14 -3q4 0 6 3t9 3t57 -74q58 -88 86 -125zM924 657l-80 -6q-61 -2 -129 -2q2 2 2 199q63 3 76 -10 q88 -113 131 -181zM399 743q0 -5 -6 -25t-6 -24q-8 -113 -4 -215v-114v-148q-196 216 -231 346q-10 42 -13 103q-3 46 0 104q1 15 1.5 27.5t0.5 21v8.5l-41 666q49 -43 168 -160q69 -66 103 -78zM78 1536l47 -973l106 -198l189 -193l-27 1073zM801 1411l-21 -534l178 -230 l31 570zM1397 1444l-33 -664l192 -170l27 607z" />
<glyph unicode="x" horiz-adv-x="1339" d="M1270 -145q-1 14 -3 31.5t-6 42.5t-6 42q-8 52 -8 68v309q0 105 -4 129q-130 117 -186 191q37 24 90 58.5t70 45.5q-55 364 -58 660q-6 12 -6 14q9 21 6 24q-12 15 -35 43.5t-34 42.5q-48 54 -91 66q-56 16 -120 16q-50 0 -123 -8q-80 -6 -119 -6l-4 -12q-4 -12 -4 -15 q21 -21 24 -67v-70q52 -290 52 -293q0 -27 -3 -30h-6q-27 111 -51 213q0 57 2 75q-10 29 -22 39q-57 50 -106 93.5t-70 62.5l-21 18q-25 19 -102 19h-37q-8 0 -29 4t-24 4q-8 0 -60 10q-47 13 -49 13q-13 0 -39 -13q-33 -14 -33 -35q0 -5 1.5 -8.5t3 -5t4.5 -2.5l2 -2 q3 -23 9.5 -71.5t8.5 -65.5q15 -333 18 -492q175 -179 197 -202q-144 -105 -160 -105q-37 0 -39 -2q1 -9 6.5 -36.5t8.5 -47.5q10 -62 10 -63v-220q0 -2 0.5 -10.5t1.5 -24.5l2 -32l4 -86q301 -295 305 -295h242q9 12 12 18q-20 233 -14 334q17 -38 14 -74q-3 -54 0 -69 q227 -142 297 -189q26 -40 31 -59q181 22 250 25zM1116 1444q-6 0 -84 -4q-17 -1 -32 -2l-22.5 -1.5t-8.5 -0.5q-81 0 -115 24q-24 21 -71 63t-70 64h272q11 -19 74 -67q51 -37 57 -76zM895 1126q0 -3 -4 -42.5t-4 -53.5q-124 71 -142 117q-25 61 -40 186q-17 114 -15 129 v88q99 -89 184 -155q1 -13 3 -36t5 -58t5 -66q8 -91 8 -109zM582 1446q-31 2 -95 2q-19 0 -43.5 -1.5t-42 -3t-18.5 -1.5q-31 0 -156 88q-95 65 -129 92v18q111 -6 138 -4q139 -16 161 -28q37 -19 97 -76zM850 995q-9 0 -42.5 -5t-37.5 -5q-1 0 -41 10q-1 4 -18 49 q-15 35 -15 43q0 6 5 12.5t9 10.5l5 4q23 -20 135 -119zM1112 592l-8 -6l-12 10l8 8zM1165 526h-10l-10 19l10 4zM1217 -115h-144q-18 67 -18 217q0 136 -23 220q-84 20 -125 20q-5 0 -25 -3t-28 -3q-63 0 -219 -25q0 -20 4 -196t4 -199q-105 0 -190 14q0 10 2 62.5t2 70.5 v199q0 13 -11 92q-8 60 -8 76q0 46 117 105q49 40 70 63q41 25 57 33v20q-9 12 -14 17q-167 79 -203 98q-6 52 -27 342q-12 188 -53 295q89 15 219 0q10 -44 25 -107.5t20 -85.5q0 -46 -4 -92q14 -76 51 -155q47 -9 52 -9q26 0 73 2q17 1 55 3t52 2q0 271 -6 415 q50 29 114 29q46 0 88 -10l47 -582q0 -26 -88 -78t-88 -67q0 -11 82 -84q101 -90 140 -138v-561zM406 786h-35q-39 31 -121 93q-87 74 -109 139q-35 96 -35 250q0 10 1 29.5t2 52t2 63.5q3 90 0 143q126 -80 249 -147l-14 -16q43 -161 49 -320q3 -27 6 -98q1 -17 2 -33.5 t2 -25.5t1 -11v-119zM606 645q-74 -74 -186 -172l-4 3q-3 4 -9.5 7.5t-13.5 3.5q-9 0 -119 84q-104 85 -104 101q0 2 66 33q82 40 106 57q1 0 17 -14.5t24 -14.5q10 0 10 2q0 4 10 4q31 0 203 -94zM1018 -20q0 -5 -5 -29t-5 -29q-61 47 -160 105q-78 46 -96 67 q-31 42 -31 111q0 4 4 35.5t4 40.5q34 0 86 8t66 8q3 0 8.5 -0.5l16.5 -1.5l22 -2q54 -4 57 -4q33 -199 33 -309zM692 229h-12l-8 43h12zM414 270v-149q-2 -96 -2 -176q-37 39 -166 149q-69 60 -74 90q-34 176 -25 369v80q207 -139 248 -201q19 -28 19 -162zM86 1589 l31 -579l139 -156l193 -111l-64 680zM334 793l-195 -127l283 -213l225 206zM127 647l6 -483l311 -262l-6 528zM700 297l15 -199l332 -241l-29 444zM666 1597l53 -460l176 -138l12 406z" />
<glyph unicode="y" horiz-adv-x="1286" d="M1212 881q0 482 -18 620q-9 48 -80 101q-70 55 -121 55q-185 0 -248 -8q0 -7 -6 -265q-3 -178 -37 -178q-100 0 -147 21v67q0 80 12 215q-6 4 -75 82q-48 54 -84 70q-87 41 -308 41q-57 0 -73 -25q35 -304 43 -399q14 -154 16 -215q6 -42 129 -156q115 -106 137 -106 q4 0 20 7t23 7t23 -4q6 -73 6 -489v-203l10 -64q154 -95 262 -194q0 16 6 16q21 0 105 -8t106 -8q39 0 39 84l-24 356v207v2q0 1 -0.5 5.5t-0.5 11t-0.5 16t-1 20t-1 25t-0.5 30.5q-4 139 -2 170q10 10 16 7l223 -25q21 0 47 33q4 36 4 78zM1112 1520h-135l-16 14 q-55 3 -132 74q120 15 197 0q21 -6 47 -35q14 -14 39 -53zM969 1487l-4 -404l-154 93q-51 34 -51 102q0 -3 12 123q14 118 14 186q132 -97 183 -100zM477 1528q-86 22 -110 22q-5 0 -12 -8t-15 -8q-10 0 -92 49q-118 71 -137 80h57q18 3 92 -12q90 -16 131 -35 q61 -55 86 -88zM922 1063q-42 0 -134 -6q-26 -1 -48.5 -2t-33.5 -1l-10 -1q-4 0 -22 4t-25 4q-53 0 -86 8q0 66 -8 113q34 0 102 -2q69 0 107 -15q98 -56 158 -102zM1157 825q-28 0 -153 11q-30 3 -55.5 5.5t-36 3.5t-11.5 1q-33 0 -33 -27q0 -7 9 -65q3 -19 5 -38t3 -35.5 t2 -21.5q4 -54 4 -174v-239l6 -154q3 -147 0 -184q-127 0 -174 8q-16 122 -16 178v275q0 173 -15 471q-206 15 -305 24q0 275 -18 545q0 2 -6.5 23.5t-6.5 29.5t8.5 22t8.5 19q113 -10 131 -10l10 10v-444q19 -19 22 -20t29 -1l443 -24q8 8 10 14q-12 60 -12 68v190 q0 1 0.5 8.5t1.5 23t2 32.5q3 62 6 82q11 17 -10 38q124 -3 151 0v-645zM348 881q-16 -15 -26 -19q-56 46 -111 96q-67 61 -82 113q-55 192 -55 520q0 8 4 23t4 18l14 -6q14 -6 41.5 -19t59.5 -28q77 -36 108 -70q13 -10 19 -53q3 -20 6 -78q2 -67 4.5 -158t3.5 -110 q0 -3 0.5 -9.5t1.5 -18.5t2 -23q6 -37 6 -47v-131zM676 -61q-28 19 -96 59q-66 38 -99 80q-16 22 -16 123q0 29 -6 100q-1 20 -2 38.5t-1.5 28t-0.5 11.5v430h71q44 0 117 -21q16 -150 23 -233q10 -150 10 -154v-462zM55 1681l49 -628q243 -252 248 -252q1 10 0.5 77 t-2.5 232t-6 387zM764 1618l-8 -410l231 -172l17 461zM440 836l-6 -781l264 -159l-20 917z" />
<glyph unicode="z" horiz-adv-x="1302" d="M1231 -121q-10 38 -10 115v125q-103 58 -318 182q15 15 15 12q124 -15 137 -16q12 34 22 31v1044q-129 141 -276 256q-444 18 -467 19q-44 4 -109 14q-18 2 -37 5t-26.5 4t-9.5 1q-19 0 -42.5 -14t-23.5 -27q0 -4 11.5 -30t11.5 -33v-203l-10 -21l-1 -4q21 -40 80 -84 q97 -69 101 -73q47 -44 145 -142q9 -5 45 -8.5t43 -7.5q18 -64 18 -135q-38 -13 -51 -21h-391q-2 -10 -2 -270v-213v-25q2 -10 2 -22q0 -22 6 -111q3 -70 0 -104q63 -26 174 -115q23 -19 69.5 -57t70.5 -57q18 -11 59 -11q11 0 195 -6q164 -8 192 -8h23q2 0 16 -0.5t44 -1.5 t64 -2t65 -2t45.5 -1.5t16.5 -0.5q82 0 103 18zM1010 1376q-24 21 -74 21q-31 0 -88 -8q-68 -10 -94 -7q-4 1 -25.5 -3.5t-28.5 -4.5q-1 0 -10 1t-29.5 3.5t-42.5 5.5q-94 11 -126 13q-42 3 -91 33q-150 113 -245 194q41 0 90 -8q59 -6 63 -6q17 0 80 -8q20 -2 40.5 -3.5 t29.5 -2.5t12 -1h315zM414 1325q6 -195 -2 -211q-188 151 -265 215v250q165 -120 256 -195q2 -13 6 -32.5t5 -26.5zM864 672q-198 149 -286 207q-2 22 -11 39l8 110l7 -2q8 -1 18 -2.5t16 -1.5q17 0 66 -8q56 -6 63 -6t41 -9q31 -8 48 -8q3 -30 18 -127q12 -79 12 -90v-102z M1178 -100l-748 32l10 11q-10 105 -10 274q0 210 16 338q28 25 152 25q9 0 135 -9q112 -8 135 -8q22 0 43 21q-5 90 -26 448q-17 14 -25 19q-15 1 -215 8q-96 3 -184 26q0 7 -4 101q-1 21 -2 39t-1 27l-1 8q0 63 2 81l24 25q13 -14 31 -45q2 2 8 29q3 16 8 16q6 0 70 -6 q51 -8 82 -4q4 -2 7.5 -4.5t5.5 -3.5t4 -2.5t3 -2t2 -0.5q2 0 9 1t18.5 2t22.5 2t22.5 2t17.5 1.5t9 0.5q8 0 32.5 5.5t28.5 6.5q87 6 164 -12l16 -379q0 -3 -0.5 -20t-1.5 -52.5t-2 -73.5q-1 -26 -1.5 -50t-1 -40t-1 -28t-0.5 -19v-6v-332q-32 -11 -119 -8q-84 3 -125 -14 q-3 -120 7 -217h319q34 -10 64 -25v-188zM864 612q-3 0 -26 -5t-31 -5q-4 0 -22 7t-23 7q-7 0 -15.5 -3t-15.5 -3q-98 0 -160 -4q-15 0 -73 -10q-55 -10 -58 -10q-8 0 -98 96q-110 116 -149 147q25 -2 194 11q7 0 21.5 -8.5t21.5 -8.5q4 0 10 8.5t13 8.5q125 0 190 -47 q37 -29 110.5 -90.5t110.5 -90.5zM1079 154q-121 -11 -235 -11q-30 99 -6 154q72 -46 118 -72q65 -37 123 -71zM399 553l-10 -578q-41 29 -128 87.5t-120 82.5q0 2 -6 107q-3 73 -18 108l8 455q61 -22 160 -121q103 -103 114 -141zM115 1638l4 -311l315 -260l8 301z M537 1044l18 -188l336 -221l-17 369zM111 844l-5 -703l324 -209l10 654z" />
<glyph unicode="{" horiz-adv-x="1042" d="M963 102q0 19 -482 519q0 33 303 514q62 87 115 151q-6 16 -38.5 47.5t-76 67t-47.5 39.5q-181 85 -215 131h-41q-103 -215 -313 -584q-21 -40 -82 -121q-53 -77 -53 -80q0 -8 78 -143q15 -42 18 -57q117 -222 246 -418q41 -66 194 -154q148 -86 207 -86q10 0 98 82 q89 83 89 92zM690 1399q0 -8 -18 -35q-13 -25 -29 -49q-33 -66 -83 -170t-68 -139q-105 -196 -216 -363q-114 86 -184 150l412 720h22q15 3 88 -49q76 -52 76 -65zM913 113q-23 -34 -133 -127q-47 61 -200 250q-127 154 -200 257.5t-73 122.5q0 16 35 60q9 13 35 43 q25 49 72 102q3 18 6 35q91 182 125 238q137 268 155 305q39 -31 113 -105l-426 -663q0 -7 2 -13q125 -93 276 -278q14 14 17 14q6 -6 -6 -18q94 -88 202 -223zM705 16h-13q-6 -2 -20 -2q-8 0 -84 43q-92 53 -127 68q-4 5 -9.5 12.5t-9 13t-6.5 9.5q-90 126 -102 159 q-111 185 -213 388q85 -45 192 -179q103 -142 133 -182q178 -228 259 -330zM487 1548l-426 -757l230 -193l436 819z" />
<glyph unicode="}" horiz-adv-x="1126" d="M1065 803q0 28 -127 235q-121 191 -143 217q-60 79 -125 158q-82 111 -109 111q-5 0 -21 -6.5t-20 -6.5q-13 -2 -27.5 -4.5t-31.5 -6.5t-30 -7.5t-33.5 -10t-32 -10t-35 -12t-32.5 -11.5t-34.5 -12.5t-32.5 -11.5q-43 -13 -102 -63v-45q22 -27 250 -309 q196 -242 196 -275t-116 -198q-92 -127 -164 -224q-101 -135 -160 -233l17 -19q48 -20 83.5 -35.5t51 -22.5t14.5 -7q97 0 227 31q21 6 37 28q78 135 207 318q293 419 293 432zM1008 831q0 -19 -43 -59l-62 -49q-100 166 -274 393q-169 229 -234 326q85 39 133 39 q64 0 277 -312q203 -299 203 -338zM856 715q0 -10 -43 -56q-64 -64 -76 -77q-153 -186 -266 -332q-13 -17 -43 -56t-43 -55q-34 -38 -47 -55q-29 -33 -55 -33q-28 0 -90 47q253 378 399 578q13 15 49 51l-469 606q53 50 111 72q54 14 73 16q97 -118 172 -204 q37 -51 103.5 -141.5t91.5 -125.5q37 -50 84 -135q49 -85 49 -100zM956 707q-198 -301 -405 -611q-13 -18 -52 -34.5t-61 -16.5l-71 10q65 88 151 193q113 148 146 196q70 74 100 99q3 3 37.5 40.5t52.5 55.5q53 53 102 68z" />
<glyph unicode="&#xa1;" horiz-adv-x="606" d="M481 1577q-32 9 -32 14q12 16 -3 31q-23 3 -67 47q-48 48 -80 62q-72 32 -217 26q2 -19 -2 -112l-6 -80q0 -39 98 -127q86 -80 104 -84q70 -7 99 -4q8 -1 40.5 -10t37.5 -9t22 17q-9 84 6 229zM553 995q0 21 -23 37q-104 68 -176 117q-10 3 -41 6q-5 0 -15.5 -0.5 t-29.5 -1.5t-35 -2q-22 0 -43 12l11 15q9 0 0 6t-21 6q-44 -41 -65 -53q0 -9 -4.5 -47.5t-4.5 -42.5v-209l-45 -598q0 -10 103 -119q96 -99 127 -121q20 20 22 20q13 0 66 -6t78 -6q42 0 57 12v23l-5 22q-2 17 -7 50q-2 10 2 51q1 12 2 23t1.5 16t0.5 6q0 9 -2 51.5t-2 50.5 q0 34 16 240v162q0 2 2 17t6.5 50t8.5 72zM424 1585q-128 -3 -258 133q12 -3 55 -6q39 -3 49 -8q89 -62 154 -119zM442 1556q2 -20 -2 -88q-1 -18 -2 -40t-1.5 -33.5t-0.5 -16.5q-21 -3 -55 0q-46 6 -55 6q-13 0 -25 -4v121q0 23 12.5 43.5t26.5 20.5q2 0 44.5 -4.5 t57.5 -4.5zM287 1561q0 -3 -1.5 -9t-4.5 -19t-5 -24q-8 -36 -8 -65q0 -15 4 -35q-53 29 -102 78q-64 61 -64 100q0 31 15 119q9 -7 102 -84q64 -52 64 -61zM494 1012l-179 -11q-101 79 -157 129h22q81 6 164 -20q101 -58 150 -98zM506 977l-39 -924h-166q0 10 -7 50t-7 44 v172l6 121q3 129 2 140q-2 69 -4.5 161t-3.5 115l-4 82l-13 -20l4 -9q0 7 -1 -1q-1 -4 -7 -52q1 8 2 -4v-72v-377q0 -121 -16 -315q3 -9 8 -14q-166 144 -166 211l53 807q35 -27 80 -62q44 -29 72 -67q69 17 154 14h53zM106 1741l-32 -176l194 -193l47 207zM131 1122 l-55 -866l203 -207l24 938z" />
<glyph unicode="&#xa8;" horiz-adv-x="1067" d="M1026 1343q0 113 -37 177q-27 52 -90 106q-61 55 -80 55l-82 -4q-72 -3 -102 2v-55q0 -3 1 -15t4 -42t5 -56q9 -90 14 -151q171 -154 203 -154q8 0 15.5 10.5t15.5 10.5q78 0 119 -8q14 49 14 124zM498 1401q0 5 -9.5 21.5t-9.5 31.5q0 21 10 66q-88 117 -247 235h-54 q-63 0 -108 10l-27 -26l33 -31q-24 -15 -39 -18q-4 -50 -4 -93q0 -13 6 -81q8 -68 8 -107q48 -22 154 -92q83 -57 96 -57l70 6q61 3 108 -6q13 57 13 141zM909 1516q-4 0 -28.5 -7.5t-34.5 -7.5q-31 0 -64 45q-21 27 -51 70h80q66 -73 98 -100zM971 1272q-38 10 -103 10 q0 96 -12 154q49 24 64 24q30 0 51 -24v-164zM813 1313q-74 60 -100 76q-9 137 -13 155q73 -53 113 -108v-123zM401 1528q0 -15 -24 -15q-75 0 -152 68q-22 19 -65 59.5t-64 59.5q24 -6 68 0q40 3 53 -2q43 -15 107 -76q43 -43 77 -94zM432 1325q-28 0 -57 -2h-66 q-17 98 -22 147q67 12 135 -2q-2 -16 10 -143zM252 1366q-3 3 -12.5 8.5t-26.5 16t-33 20.5q-48 28 -71 51v146q105 -68 131 -119q8 -13 8 -53v-17q0 -29 4 -53zM68 1677l-11 -268l228 -109l-4 207zM662 1618l-3 -258l191 -109l-31 222z" />
<glyph unicode="&#xaa;" horiz-adv-x="1030" d="M956 1380q0 12 -147 123q-146 110 -176 117q-54 13 -193 29q-106 14 -133 14l-63 -4q-70 -4 -84 -2q-2 -4 -14 -9t-26 -9t-16 -5l-59 -925q0 -12 105 -156q104 -143 120 -143q5 0 7.5 3t7.5 3t23.5 -15t23.5 -16q134 -15 151 -20q6 38 18 102.5t15 87.5q44 -36 131 -113 q96 -84 113 -84h22q18 1 41 1.5t38.5 1t25.5 1.5q2 0 16.5 -6t20.5 -6q3 0 20 17v755q0 9 6 129t6 129zM870 1409q-28 4 -114 4q-8 0 -76 6q-65 6 -74 6q-5 0 -20 -6t-19 -6q-13 0 -78 10q-12 -3 -26 -4t-19 -4q-37 2 -65 -8q-14 0 -203 207q76 8 203 8q22 0 110 -10 q93 -13 158 -39q46 -19 117 -76q29 -25 56 -47t38 -31t12 -10zM915 397h-141q-5 19 -16 129q-9 92 -29 117q-62 10 -172 10q-82 0 -82 -47q0 -12 2 -22v-27q0 -53 -14 -145l-33 3q-42 3 -74 5l19 946q20 -3 35 18l77 9q91 0 322 -9q45 -3 98 -24q8 -104 8 -119v-844z M367 1370q-20 -36 -23 -92q-1 -28 2 -297q3 -185 -12 -299q0 -110 -12 -178q-6 -28 -15.5 -51t-15.5 -32t-6 -5q-6 45 -9 73q-23 30 -131 150q-61 64 -61 125l61 813q63 -58 111 -104q22 -22 111 -103zM725 424q-142 130 -207 186q123 3 189 -4q9 -72 18 -182zM700 1137 q-64 12 -133 16q-3 0 -20.5 5.5t-20.5 4.5q-28 -16 -43 -141q-12 -94 -12 -172q0 -41 23 -41q75 0 186 -12q4 54 4 170q3 115 16 170zM653 1122q-14 -175 -14 -239q-30 27 -74 64.5t-55 47.5q12 64 20 129q123 0 123 -2zM614 844q-65 9 -96 6l-5 53q-1 22 -1 45l36.5 -36.5 t28.5 -29t19.5 -20.5t13.5 -14zM145 1577l-73 -883l250 -280l53 952z" />
<glyph unicode="&#xad;" horiz-adv-x="1011" d="M954 444q0 8 -3 31.5t-3 26.5q-6 113 0 194q-6 8 -13 20l-7 11q-39 38 -105 98q-77 96 -131 174q-116 17 -135 17l-451 74q-4 0 -11 -7t-15.5 -17t-9.5 -11v-279q22 -49 106 -158q79 -104 88 -104q3 0 3 4q1 4 5 4t15.5 -16.5t15.5 -16.5h162l319 -40q6 0 52 -9 q41 -8 51 -8q-1 0 4.5 -2t19.5 -5.5t33 -8.5l2 4q3 4 5.5 10.5t2.5 13.5zM860 727q-170 17 -219 31q-121 41 -127 41q-4 0 -13.5 -4t-13.5 -4q-5 0 -7 6l-3 6q-7 1 -37.5 10.5t-33.5 9.5q-4 0 -37 -4t-37 -4q-20 0 -35 21q-67 88 -158 192l334 -47q2 0 9.5 -0.5t23.5 -1.5 t33 -2t32.5 -2t22.5 -1.5t8 -0.5q4 0 26.5 -9t26.5 -10h19q14 -3 18 -10q133 -168 168 -217zM922 473h-86q-5 3 -5 4q1 2 -3 3q-9 3 -48 9q-18 3 -40.5 8.5t-28.5 6.5q-149 20 -205 20q-6 0 -80 4q-70 4 -78 4l-8 17q-3 -8 -14 -8t-11 239q10 -2 95 11q1 0 8.5 -2.5l27 -9 t41.5 -13.5q82 -26 115 -31q41 -6 64 -6l67 -31q46 0 84 -14q31 -8 51 -10q34 -6 54 -29v-172zM295 739q0 -47 -6 -102q-3 -54 -8 -59t-11 -5q-25 0 -98 99q-58 81 -74 114q0 3 -0.5 9.5l-1.5 19.5t-2 25q-2 25 -2 51q0 22 2 53q4 62 4 70q18 -18 55 -53.5t56 -53.5 q86 -89 86 -168zM90 1049l-20 -273l231 -260l12 287z" />
<glyph unicode="&#xb4;" horiz-adv-x="411" d="M350 1233v231l-57 58q-35 35 -64 51q-68 35 -159 35q4 0 -1 -1q-5 -2 -14 -3v-15l8 -8q-16 -10 -16 -16q0 -7 4 -32t4 -32v-108l160 -152l33 4q10 0 102 -12zM297 1485l-23 -6q-3 8 -10 8q-4 0 -16.5 -4t-16.5 -4q-11 0 -75 43l-80 55h16q66 0 129 -29q57 -44 76 -63z M324 1253q-28 5 -78 21q-1 8 -3.5 36t-4.5 52.5t-2 38.5v57q27 -3 88 0v-205zM221 1274q-118 84 -139 131q-6 15 -6 43v49q2 20 2 47q58 -30 94 -61q8 -5 16.5 -10.5t17 -10t11.5 -6.5q-1 -9 1.5 -37t2.5 -30v-115zM68 1567v-168l163 -144l-6 211z" />
<glyph unicode="&#xb7;" horiz-adv-x="446" d="M381 1249v232q-6 4 -59 57q-31 34 -62 51q-72 35 -160 35q4 0 -1 -2l-13 -2v-16l8 -7q-16 -10 -16 -18q0 -7 4 -30.5t4 -30.5v-111l160 -152l33 5q2 0 14 -1.5t37 -4t51 -5.5zM328 1501l-23 -6q-3 8 -10 8q-4 0 -17 -4t-16 -4q-12 0 -76 43l-80 55h17q71 0 129 -30 q61 -47 76 -62zM354 1270q-25 2 -80 20q0 14 -4 63t-4 62v60q27 -3 88 0v-205zM252 1290q-117 81 -139 129q-9 15 -9 45q0 26 2 49v48q63 -35 97 -62q11 -7 27.5 -16t17.5 -10q-3 -15 0 -35q4 -32 4 -35v-113zM96 1579l2 -164l162 -147l2 227z" />
<glyph unicode="&#xba;" horiz-adv-x="784" d="M702 637l-12 271l-10 300q-9 116 -12 176q-20 24 -123 97q-110 78 -125 78q-3 0 -21 -7q-46 -4 -139 -4q-4 0 -21.5 5.5t-21.5 5.5l-84 4q-95 4 -113 2q-1 -1 -3 -4.5t-3 -4.5q18 -188 21 -276q14 -196 20 -250q4 -82 4 -98q0 -59 11 -70q154 -184 219 -252 q12 -12 18 -12q4 0 12.5 5t12.5 5l344 4q26 3 26 25zM616 1399q-9 0 -42.5 -6.5t-36.5 -6.5t-30.5 3.5t-31.5 3.5t-20.5 -5.5t-20.5 -5.5h-127q-39 0 -57 11q-61 52 -64 55q-106 89 -108 96q65 -10 110 -10q22 0 64 -6q112 -3 170 0q20 0 70 -33q49 -37 124 -96zM668 643 l-207 -16q-4 0 -7.5 5t-7.5 5t-26.5 -5t-26.5 -5l-4 6h-67q-18 186 -33 297q-20 230 -17 321v111h117q16 1 32 1t23 0.5t17 0.5t8 0q5 0 63 6q52 8 62 8q1 0 51 -16q14 -192 14 -211zM285 662q-58 56 -115 112q-79 79 -82 113q-20 121 -31 327q-10 193 -8 205v107 q13 -10 117 -70q62 -38 86 -90q16 -43 16 -119q0 -43 -6 -98q-1 -17 -2 -29.5t-1.5 -17.5t-0.5 -4v-144q0 -46 12 -145q15 -95 15 -147zM573 821l-20 391q-38 3 -152 0v-43q0 -5 21 -186q7 -79 10 -186q10 -13 25 -13q106 0 106 2q10 23 10 35zM545 1044q2 -48 -2 -131 l-4 -61q-14 10 -84 59q-31 205 -29 215v68l25 2h36q36 0 45 -12q10 -70 13 -140zM539 821q0 1 -9 0.5t-27 -2t-44 -4.5v55q46 -26 80 -49zM31 1546l35 -680l231 -233l-23 747z" />
<glyph unicode="&#xbf;" horiz-adv-x="866" d="M655 1225v215q-25 14 -60 34t-58 33t-39 23q-95 26 -201 26q-37 0 -57 -10v-207q186 -125 217 -125q6 0 13.5 4t13.5 8l5 3q17 -7 56 -4q78 -19 82 -19q9 0 28 19zM803 174q0 5 -1.5 10.5t-3.5 8.5t-3.5 5t-1.5 3q-40 0 -58 12q-58 34 -134 80t-77 47q17 2 90 -4 q61 -3 91 2v686q0 20 -29 96q-105 54 -121 58q-174 36 -233 36q-15 0 -58 -55q27 -83 27 -203q0 -110 -21 -192q-25 -14 -84 -14q-135 0 -141 -2q25 -170 25 -330q0 -128 -15 -254q11 -9 97 -74q54 -43 100 -53q26 8 24 10q88 -3 297 -22q52 -5 97.5 -10t64 -7t19.5 -2 q49 0 49 168zM557 1444q-15 5 -57 2l-47 -4q-28 0 -91 63q62 -8 93 -14q60 -8 102 -47zM606 1255l-78 9q-49 6 -65 -7q9 88 6 152h137v-154zM428 1399l-10 -119q-114 71 -137 84v127h26q14 0 53 -33q2 -1 68 -59zM590 1112l-96 -12q-4 0 -123 55h59q26 3 160 -43zM451 643 q-40 46 -115 111q-14 14 -14 65v2q0 2 0.5 7t0.5 12t0.5 17.5t1 23t1 28.5t0.5 33q6 126 6 191q55 -29 119 -60v-430zM754 160q-1 -83 -11 -111q-3 0 -30 3t-35 3t-158 15q-70 6 -246 20q-13 201 -10 483v19q13 10 33 10q36 0 182 -41q29 23 29 70q0 28 -8 69q-6 50 -6 70 v203q0 31 -17 84q30 -3 168 10q19 -59 19 -84v-616q-52 3 -144 18q-74 14 -88 14q-29 0 -29 -24q0 -41 27 -152q3 -21 27 -45q27 8 104 8q92 0 193 -26zM401 621q-63 14 -100 14q-10 0 -61 31q-19 12 -37 22t-30 16.5t-15 8.5q12 0 53 6q40 6 49 6q29 0 82 -35t59 -69z M614 229q-75 0 -143 -10q-14 89 -16 121q38 -26 91 -63.5t68 -47.5zM223 96q-95 70 -117 84v520q5 -3 105 -59q9 -109 12 -106v-439zM264 1520l-8 -170l182 -111l17 166zM299 1171l-10 -411l180 -166v487zM76 729v-551l168 -121l6 572z" />
<glyph unicode="&#xc0;" horiz-adv-x="1447" d="M879 1862q0 49 -64 110q-70 64 -221 111q-133 43 -238 43q-8 0 -15.5 -2.5t-12.5 -5.5l-4 -2q-3 -12 -5 -35q-1 -15 -2 -53.5t-2 -57.5q-4 -136 -4 -260q11 -8 174 -65q162 -58 195 -58q8 0 39 11t35 10q56 -9 94 2l17 136t11 89.5t3 26.5zM1327 -305v104q0 22 -20 189 q-5 47 -10 95.5t-7 67t-2 21.5l-20 1026q-105 50 -191 113q-11 7 -88 71q-58 49 -74 54q-130 43 -315 43q-12 0 -61 -6q-13 -1 -26.5 -2t-21.5 -2t-10 -1q-3 0 -21.5 2t-60 6.5t-82.5 8.5q-67 6 -147.5 13.5t-95.5 8.5v-34q19 -29 22 -70q3 -27 0 -86q-1 -19 -2 -41.5 t-1.5 -34.5t-0.5 -18v-955q0 -12 -18 -123q-17 -114 -21 -149q77 -62 180.5 -146t110.5 -90q62 -47 76 -47q4 0 21 -0.5t52.5 -1.5t73.5 -2q39 -1 75 -2t53 -1.5t20 -0.5q45 0 45 43q0 3 -2 10.5t-6.5 26t-8.5 35.5q-16 66 -16 84q39 -23 160 -123q103 -86 112 -86h131h197z M721 1970q-59 -6 -139 27q-13 6 -55.5 26.5t-65.5 30.5q21 -5 63.5 -16.5t63.5 -16.5q87 -21 133 -51zM819 1823q0 -79 -33 -174q-41 13 -94 10q-15 136 6 268q77 -21 90 -29q31 -22 31 -75zM649 1915q-12 -158 -2 -246h-90q-37 -3 -184 72q9 255 16 276q58 -23 144.5 -57 t115.5 -45zM1049 1262q-21 0 -197 4q-24 1 -46 1.5t-36.5 1t-26 1t-17.5 0.5h-5q-2 0 -84 10q-54 7 -100 12q-49 46 -205 133q443 0 555 -41q74 -48 110 -84q8 -6 26 -18.5t26 -19.5zM1278 -254h-188q-18 335 -68 483q-41 4 -117 -4q-43 -3 -131 6l-98 11q-35 0 -35 -49 q0 -4 25 -187q24 -176 24 -186v-45q-138 -15 -258 0q-10 78 -10 194v267q0 36 8 221q3 60 5.5 116t3.5 80t1 27q0 9 8.5 40.5t8.5 35.5q1 12 2 36t2 37q0 154 -2 232q9 188 51 188q14 0 72 -6q17 -1 34.5 -2t26.5 -1.5t12 -0.5q148 0 439 -33q45 -7 125 -49l10 -749z M455 1286q-35 -173 -41 -301q-2 -17 4 -111q4 -95 -4 -178q-9 -107 -16.5 -199.5t-11 -130t-3.5 -38.5q0 -60 4 -178q6 -95 6 -115q0 -86 -35 -232q-151 119 -243 205q-2 14 -2 55q0 3 12 218q11 171 16 325q9 231 6 240q-8 63 -8 155q0 80 8 216q10 148 7 221 q32 -15 91.5 -41t82.5 -37q87 -43 127 -74zM1038 -176q0 -8 -6 -40.5t-6 -39.5q-161 119 -324 252q0 15 -6 67q-6 44 -6 56v53q6 0 36 5t40 5q8 0 24.5 -10t24.5 -10t35.5 10t36.5 10h100q51 -302 51 -358zM958 866q-3 64 -49 64q-24 0 -67 -2q-19 -1 -56.5 -2t-54.5 -2 q-56 0 -110 4v-504q1 -2 7.5 -12t12.5 -15.5t14 -5.5h80q4 0 82 -10q63 -8 82 -8q31 0 47 22q-13 183 -4 291q1 6 2 23.5t3 38.5t5 43q6 64 6 75zM887 481q-63 43 -189 125q-28 22 -28 119l4 70q3 61 -2 84h215v-398zM840 440q-111 10 -148 2q-13 64 -20 129 q119 -98 168 -131zM350 2075l-4 -338l313 -125l39 315zM123 1479l-41 -1479l297 -238l108 1522zM895 444l23 457l-259 12l-10 -292zM666 203l45 -256l350 -223l-74 458z" />
<glyph unicode="&#xc1;" horiz-adv-x="1447" d="M879 1862q0 49 -64 110q-70 64 -221 111q-133 43 -238 43q-8 0 -15.5 -2.5t-12.5 -5.5l-4 -2q-3 -12 -5 -35q-1 -15 -2 -53.5t-2 -57.5q-4 -136 -4 -260q11 -8 174 -65q162 -58 195 -58q8 0 39 11t35 10q56 -9 94 2l17 136t11 89.5t3 26.5zM1327 -305v104q0 22 -20 189 q-5 47 -10 95.5t-7 67t-2 21.5l-20 1026q-105 50 -191 113q-11 7 -88 71q-58 49 -74 54q-130 43 -315 43q-12 0 -61 -6q-13 -1 -26.5 -2t-21.5 -2t-10 -1q-3 0 -21.5 2t-60 6.5t-82.5 8.5q-67 6 -147.5 13.5t-95.5 8.5v-34q19 -29 22 -70q3 -27 0 -86q-1 -19 -2 -41.5 t-1.5 -34.5t-0.5 -18v-955q0 -12 -18 -123q-17 -114 -21 -149q77 -62 180.5 -146t110.5 -90q62 -47 76 -47q4 0 21 -0.5t52.5 -1.5t73.5 -2q39 -1 75 -2t53 -1.5t20 -0.5q45 0 45 43q0 3 -2 10.5t-6.5 26t-8.5 35.5q-16 66 -16 84q39 -23 160 -123q103 -86 112 -86h131h197z M721 1970q-59 -6 -139 27q-13 6 -55.5 26.5t-65.5 30.5q21 -5 63.5 -16.5t63.5 -16.5q87 -21 133 -51zM819 1823q0 -79 -33 -174q-41 13 -94 10q-15 136 6 268q77 -21 90 -29q31 -22 31 -75zM649 1915q-12 -158 -2 -246h-90q-37 -3 -184 72q9 255 16 276q58 -23 144.5 -57 t115.5 -45zM1049 1262q-21 0 -197 4q-24 1 -46 1.5t-36.5 1t-26 1t-17.5 0.5h-5q-2 0 -84 10q-54 7 -100 12q-49 46 -205 133q443 0 555 -41q74 -48 110 -84q8 -6 26 -18.5t26 -19.5zM1278 -254h-188q-18 335 -68 483q-41 4 -117 -4q-43 -3 -131 6l-98 11q-35 0 -35 -49 q0 -4 25 -187q24 -176 24 -186v-45q-138 -15 -258 0q-10 78 -10 194v267q0 36 8 221q3 60 5.5 116t3.5 80t1 27q0 9 8.5 40.5t8.5 35.5q1 12 2 36t2 37q0 154 -2 232q9 188 51 188q14 0 72 -6q17 -1 34.5 -2t26.5 -1.5t12 -0.5q148 0 439 -33q45 -7 125 -49l10 -749z M455 1286q-35 -173 -41 -301q-2 -17 4 -111q4 -95 -4 -178q-9 -107 -16.5 -199.5t-11 -130t-3.5 -38.5q0 -60 4 -178q6 -95 6 -115q0 -86 -35 -232q-151 119 -243 205q-2 14 -2 55q0 3 12 218q11 171 16 325q9 231 6 240q-8 63 -8 155q0 80 8 216q10 148 7 221 q32 -15 91.5 -41t82.5 -37q87 -43 127 -74zM1038 -176q0 -8 -6 -40.5t-6 -39.5q-161 119 -324 252q0 15 -6 67q-6 44 -6 56v53q6 0 36 5t40 5q8 0 24.5 -10t24.5 -10t35.5 10t36.5 10h100q51 -302 51 -358zM958 866q-3 64 -49 64q-24 0 -67 -2q-19 -1 -56.5 -2t-54.5 -2 q-56 0 -110 4v-504q1 -2 7.5 -12t12.5 -15.5t14 -5.5h80q4 0 82 -10q63 -8 82 -8q31 0 47 22q-13 183 -4 291q1 6 2 23.5t3 38.5t5 43q6 64 6 75zM887 481q-63 43 -189 125q-28 22 -28 119l4 70q3 61 -2 84h215v-398zM840 440q-111 10 -148 2q-13 64 -20 129 q119 -98 168 -131zM350 2075l-4 -338l313 -125l39 315zM123 1479l-41 -1479l297 -238l108 1522zM895 444l23 457l-259 12l-10 -292zM666 203l45 -256l350 -223l-74 458z" />
<glyph unicode="&#xc4;" horiz-adv-x="1386" d="M971 1589v205q-120 109 -148 119q-98 31 -184 31q-14 0 -36.5 -21.5t-22.5 -34.5t14 -73q16 -69 16 -97q0 -20 -2 -26q9 -6 99 -41q60 -22 57 -62h207zM444 1634q0 14 -6 72q-1 18 -3 41.5t-3 36.5t-2 20q-27 25 -78 76q-51 45 -86 45q-4 0 -96 -10q-73 -8 -96 -8 q-26 0 -39 -13v-241q170 -84 213 -84q18 0 78 8q78 10 82 10q36 0 36 47zM1290 -223l-63 764q0 195 -21 395q-3 27 0 178q3 115 -20 168q-27 12 -176 102q-109 68 -121 68q-26 0 -264 -14q-252 -15 -265 -15q-7 0 -31.5 -9t-31.5 -9t-36 5t-36 5q-80 0 -108 -31 q42 -375 47 -456q18 -706 18 -1032q19 -25 19 -29q8 8 24 8t107 -45t106 -45q10 0 49 25q2 2 52 2q111 0 209 -5q4 -2 10.5 -5.5t10.5 -5.5t7 -3q23 23 23 41q0 2 -23 133q-22 126 -22 131q0 48 6 60q65 0 80 -45q12 -27 6 -99q-6 -78 2 -100q37 -22 53 -25q66 -24 94 -65 q-9 -26 17 -49q159 15 278 2zM862 1819q-9 0 -44.5 3t-43.5 3t-43 18q-43 25 -59 33q75 -8 116 -14q40 -3 74 -43zM915 1626q-26 0 -38 -2h-29q-9 0 -27 23t-22 24v103q101 3 116 0v-148zM752 1679l-9 5q-9 4 -21 9t-20 5q-36 0 -45 59l-12 84q68 -35 107 -74v-88zM305 1835 q-101 25 -143 41q119 6 143 -41zM387 1624q-24 12 -113 0l-12 12v144q2 0 21 9t28 9q26 0 51.5 -18t24.5 -41v-115zM1081 1282q-251 -31 -643 -31q-31 0 -110 43q-32 20 -121 72l670 39q4 0 204 -123zM223 1626q-41 8 -143 64q0 47 20 161q71 -38 115 -47q-1 -10 2 -96z M1235 -178h-82q-35 -2 -63 -2q-19 0 -26 7t-26 42q-1 1 9 72q10 92 10 133q0 129 -68 129q-2 0 -13 -0.5l-33 -1.5t-46 -2q-23 -1 -45.5 -2t-34 -1.5t-14.5 -0.5q-27 0 -80 18q-25 -19 -25 -37l35 -309q-125 -24 -233 0q-21 369 -39 735q-17 292 -53 592q6 6 20 27 q34 0 119 6q81 6 90 4h516zM1008 -115q-9 5 -34 17.5t-36.5 19.5t-27.5 19t-22.5 26t-6.5 31q0 2 0.5 10t1.5 23t2 32q6 58 6 84q3 0 23.5 5.5t29.5 5.5q30 0 48 -30t16 -65v-178zM442 -152h-28q-11 0 -78 31q-23 11 -48.5 22.5t-36 16.5t-13.5 6q-31 236 -31 457v309 q0 43 -4 117q-2 39 -19 182q-15 113 -12 121v213q147 -58 195 -113q3 -51 12 -176q3 -34 5.5 -65.5t3.5 -44.5t1 -15l53 -774v-287zM971 459q3 22 0 57q-8 39 -8 45v248q0 37 -11 55q-121 29 -215 45q-32 10 -47 -24q0 -199 -2 -267q-4 -90 -8 -137q0 -19 22 -41 q198 19 269 19zM915 541q-144 69 -188 92l1 12q0 12 1 39.5t2 60.5q3 64 -4 113h94q34 3 94 -39v-278zM862 506l-53 -7q-37 -3 -72 -3q0 49 -10 79h29q16 0 106 -69zM68 1880l-9 -211l185 -74l6 224zM623 1876l22 -168l164 -70l-35 156zM150 1364l65 -1458l250 -103 l-70 1428zM713 887l-4 -277l233 -118l-4 344zM856 168l8 -227l164 -121l4 336z" />
<glyph unicode="&#xc8;" d="M698 2003q-58 36 -65 39q-43 43 -101 123q-256 34 -245 35q-10 0 -44 -6.5t-38 -6.5q7 -79 4 -176l-4 -170q108 -26 225 -84l4 -9q5 -8 12 -17t15 -9q211 0 217 2q0 100 20 279zM1010 -131q0 11 -6 57q-7 51 -7 60q-18 9 -18 24q-10 -10 -37 -10q-46 0 -186 96 q-129 89 -135 103q16 19 18 26h74q40 -4 184 -14q12 12 16 14v45q0 17 -16 39q-9 191 -4 223q-235 141 -318 205q-1 2 -8 33q-4 28 -4 33q0 20 17 24q192 5 323 2q0 121 21 367q-107 78 -156 127q-107 107 -160 162q-120 14 -395 14q-33 0 -88 -12q-64 -12 -86 -31 q24 -76 29 -139q3 -26 6 -109q-2 -120 -11 -221q35 -642 35 -727q0 -143 -8 -227q21 -24 65.5 -74t65.5 -74q125 -137 144 -137q7 0 41 21q35 18 45 18q4 0 16.5 -1t42.5 -4t57 -5q123 -13 138 -13q156 -9 294 5q0 13 5.5 53.5t5.5 46.5zM592 2028l-8 -1q-9 -1 -20 -2.5 t-19 -1.5q-72 0 -148 43q-72 41 -86 74h90q55 0 88 -26q17 -15 51.5 -43.5t51.5 -42.5zM641 1913q0 -11 -6 -64q-4 -70 -4 -75q-37 -13 -103 -13q-28 0 -51 51v170h117q47 -9 47 -69zM436 1810q-56 33 -147 54q-47 12 -47 78q0 9 22 180q104 -89 172 -140v-172zM815 1210 q-20 0 -66 -0.5t-131.5 -1.5t-164.5 -2q-51 0 -72 15q-47 26 -121 100q-83 83 -125 111q176 28 268 28q133 0 201 -51q0 -3 211 -199zM776 539q-4 0 -65 -7q-71 -9 -138 -12q26 13 13 29l-11 113q90 -46 201 -123zM952 -162q-22 -26 -32 -28q-235 -3 -500 26 q-31 188 -31 725v242v143v221h465q7 -66 4 -149l-4 -150q-231 14 -340 11q7 -93 14 -188t10.5 -143.5t4.5 -64.5q16 -16 30 -16q15 0 86 14q87 17 89 17q6 0 44.5 -6.5t51.5 -6.5q3 -181 10 -221q-189 0 -209 2q-13 17 -29 17q-19 0 -43 -27v-287l25 -18q153 15 344 0l7 -45 q3 -33 3 -68zM367 -184q-42 44 -86.5 90.5t-61.5 64.5t-20 21q-46 52 -52 100q-2 10 -2 158v242l-39 495l13 414q1 -1 12 -10t40 -32.5t58 -47.5q87 -71 107 -127q29 -82 29 -228q0 -78 -9 -172l-6 -86v-432q0 -328 17 -450zM815 4h-70q-20 -1 -57 -2t-55 -2l-8 117 q88 -43 190 -113zM242 2161l-17 -293l246 -107l-22 256zM72 1442l41 -1395l278 -268l-16 1413z" />
<glyph unicode="&#xc9;" d="M698 2003q-58 36 -65 39q-43 43 -101 123q-256 34 -245 35q-10 0 -44 -6.5t-38 -6.5q7 -79 4 -176l-4 -170q108 -26 225 -84l4 -9q5 -8 12 -17t15 -9q211 0 217 2q0 100 20 279zM1010 -131q0 11 -6 57q-7 51 -7 60q-18 9 -18 24q-10 -10 -37 -10q-46 0 -186 96 q-129 89 -135 103q16 19 18 26h74q40 -4 184 -14q12 12 16 14v45q0 17 -16 39q-9 191 -4 223q-235 141 -318 205q-1 2 -8 33q-4 28 -4 33q0 20 17 24q192 5 323 2q0 121 21 367q-107 78 -156 127q-107 107 -160 162q-120 14 -395 14q-33 0 -88 -12q-64 -12 -86 -31 q24 -76 29 -139q3 -26 6 -109q-2 -120 -11 -221q35 -642 35 -727q0 -143 -8 -227q21 -24 65.5 -74t65.5 -74q125 -137 144 -137q7 0 41 21q35 18 45 18q4 0 16.5 -1t42.5 -4t57 -5q123 -13 138 -13q156 -9 294 5q0 13 5.5 53.5t5.5 46.5zM592 2028l-8 -1q-9 -1 -20 -2.5 t-19 -1.5q-72 0 -148 43q-72 41 -86 74h90q55 0 88 -26q17 -15 51.5 -43.5t51.5 -42.5zM641 1913q0 -11 -6 -64q-4 -70 -4 -75q-37 -13 -103 -13q-28 0 -51 51v170h117q47 -9 47 -69zM436 1810q-56 33 -147 54q-47 12 -47 78q0 9 22 180q104 -89 172 -140v-172zM815 1210 q-20 0 -66 -0.5t-131.5 -1.5t-164.5 -2q-51 0 -72 15q-47 26 -121 100q-83 83 -125 111q176 28 268 28q133 0 201 -51q0 -3 211 -199zM776 539q-4 0 -65 -7q-71 -9 -138 -12q26 13 13 29l-11 113q90 -46 201 -123zM952 -162q-22 -26 -32 -28q-235 -3 -500 26 q-31 188 -31 725v242v143v221h465q7 -66 4 -149l-4 -150q-231 14 -340 11q7 -93 14 -188t10.5 -143.5t4.5 -64.5q16 -16 30 -16q15 0 86 14q87 17 89 17q6 0 44.5 -6.5t51.5 -6.5q3 -181 10 -221q-189 0 -209 2q-13 17 -29 17q-19 0 -43 -27v-287l25 -18q153 15 344 0l7 -45 q3 -33 3 -68zM367 -184q-42 44 -86.5 90.5t-61.5 64.5t-20 21q-46 52 -52 100q-2 10 -2 158v242l-39 495l13 414q1 -1 12 -10t40 -32.5t58 -47.5q87 -71 107 -127q29 -82 29 -228q0 -78 -9 -172l-6 -86v-432q0 -328 17 -450zM815 4h-70q-20 -1 -57 -2t-55 -2l-8 117 q88 -43 190 -113zM242 2161l-17 -293l246 -107l-22 256zM72 1442l41 -1395l278 -268l-16 1413z" />
<glyph unicode="&#xcb;" horiz-adv-x="978" d="M655 1755q-5 0 -15 -3t-17 -3q-15 0 -29 33l-25 55q-125 37 -125 39q-17 0 -34 -17t-17 -34q0 -9 5 -31t5 -25v-163q92 -80 111 -113q76 21 141 18v244zM291 1538v242q-1 -1 -2.5 0t-4 8.5t-5.5 21.5q-16 15 -38 35t-36 32.5t-23 20.5q-16 0 -71 9q-58 10 -64 10h-53 q-19 -59 -19 -152q0 -125 29 -141q71 -35 92 -41q6 -3 23.5 -25t25.5 -22q146 0 146 2zM963 -188v249q-2 2 -48 2q-5 0 -17 19.5t-15 19.5q-218 115 -228 121v74l7 6l223 -8q-21 35 -15 182q1 6 8.5 33t6.5 33v28q-65 34 -170 84q-119 64 -119 127q0 39 16 82h90q7 0 68 -22 q58 -21 70 -21q8 0 37 29q-17 56 -17 119q0 4 4 98q7 67 4 92q-6 0 -10 2h-18q-17 0 -17 10q0 1 4.5 23.5t3.5 32.5q-129 66 -186 90q-114 70 -141 88q-184 20 -406 20q-12 0 -20 -14l-15 -20q-12 -9 -12 -23q0 -7 11 -49t14 -59q9 -145 30 -256q27 -289 29 -400 q2 -37 2 -205v-227q0 -96 2 -131l129 -104q98 -79 111 -109q38 -10 106 -10q3 0 12 0.5t25.5 1.5t32.5 2t32.5 2t25 1.5t10.5 0.5q17 0 69 -8q55 -8 72 -8h74q6 0 40.5 -8.5t47.5 -8.5q28 0 37 19zM561 1741q-70 47 -108 80q35 0 69.5 -23.5t38.5 -56.5zM604 1544 q-8 0 -21.5 2.5t-24.5 5.5l-11 2q-2 19 -4 47l-4 31q0 73 65 82q15 -87 0 -170zM502 1587q-43 22 -53 45q-5 15 -5 62q0 38 11 80q50 -47 47 -64v-123zM223 1802q-38 -8 -94 19q-38 22 -94 51q71 -4 105.5 -17.5t82.5 -52.5zM248 1747q0 -133 -8 -158q-2 -2 -76 -2 q0 53 -8 168q4 0 23 5t26 5q9 0 25 -9t18 -9zM119 1622q-52 15 -101 51v150h31q35 -35 70 -60v-141zM817 1165q-126 -24 -155 -24q-35 0 -66 2t-55 2q-7 0 -6.5 -9.5t-6.5 -9.5h-63q-108 0 -184 70q-89 88 -177 174l185 6q97 3 182 -14q94 -44 131 -72q120 -54 172 -82 q31 -28 43 -43zM793 569q-40 -6 -102.5 -15.5t-84.5 -12.5q1 29 1 57t0.5 41t0.5 31t0 14q39 -39 90 -68q31 -14 95 -47zM909 29q3 -112 -8 -195q-120 27 -481 27v446l-62 697q0 46 11 96q69 0 348 18q74 0 98 8q2 -2 2 -245q-185 34 -233 34q-11 0 -29 -41v-370 q12 -15 20 -15q11 0 76 21q71 22 78 20h88q10 -78 10 -106q0 -18 -5 -47t-5 -39q-34 0 -104 6q-60 8 -74 8q-20 0 -43 -20q11 -17 14 -51q8 -93 -4 -236q22 -14 41 -14q39 0 109 -2h153zM825 76h-9q-10 -1 -31 -2t-44 -2q-41 -2 -84 2v100q88 -43 168 -98zM383 -96 q-16 13 -201 162q-15 290 -24 436q-4 102 -4 438l-48 383q69 -72 216 -219q5 -121 34 -451q27 -282 27 -286v-463zM0 1862v-203l137 -92l10 215zM428 1810l-4 -186l108 -108l7 196zM76 1358l69 -1284l258 -240l-57 1278z" />
<glyph unicode="&#xcc;" horiz-adv-x="714" d="M502 1368v31q0 13 -8 78q-8 63 -5 102q-89 42 -108 76q-56 93 -72 129q-172 31 -233 31q-18 0 -42 -14t-28 -27v-238q83 -60 133 -88q12 -8 43 -39q28 -28 41 -31q41 -12 86 -12h131q19 0 37 -18zM594 989q-48 9 -107 74q-42 45 -65 92q-174 33 -225 33q-15 0 -56 8 q-52 10 -57 10q-8 0 -33.5 -5t-32.5 -5q-12 0 -32 -20q59 -257 59 -660q0 -105 14 -258q24 -249 25 -258q193 -142 246 -182q28 28 59 28l152 -6h53l-8 13q-27 261 -27 327q0 15 4 109q4 98 4 110v19l1 12q1 13 2.5 40t3.5 62t4.5 89t5.5 112q0 33 12 94q8 47 8 84 q0 33 -10 78zM342 1630q-24 -4 -39 -4q-100 0 -213 131h125q10 0 20 -3t18 -7.5t17.5 -14.5t15.5 -16t15.5 -20.5t13.5 -21t14 -23t13 -21.5zM446 1483q0 -7 -6 -35t-6 -35q-135 13 -166 21q0 18 -6 59q-1 11 -2 23t-1.5 18.5t-0.5 9.5q0 47 51 47q52 0 94 -39 q43 -40 43 -69zM219 1450q-16 16 -63 37q-42 19 -64 41q-31 27 -41 86l12 98q103 -86 117 -106q42 -48 39 -113v-43zM465 991h-70q-60 -3 -162 39q-18 7 -63 45q-14 15 -61 64h49q8 0 20 -8.5t19 -8.5q8 0 30.5 4t30.5 4q3 0 55 -10l62 -12q55 -76 90 -117zM559 831 l-39 -585v-254q0 -1 2 -11.5t4 -33t2 -51.5h-174l-104 1065q9 1 145 -15q13 -1 38 -2t38 -2q59 -3 74 -24q-3 -11 4 -44q10 -42 10 -43zM303 -96q-173 89 -182 143q-49 252 -49 696q0 235 -4 271q-5 50 -5 98q19 -19 70 -59q53 -46 64 -66q19 -26 28 -88q21 -186 27 -278 q30 -346 31 -367q3 -34 12 -129q10 -89 8 -94v-127zM41 1763l-18 -196l231 -185l-21 209zM23 1165l61 -1165l252 -145l-107 1138z" />
<glyph unicode="&#xcd;" horiz-adv-x="714" d="M502 1368v31q0 13 -8 78q-8 63 -5 102q-89 42 -108 76q-56 93 -72 129q-172 31 -233 31q-18 0 -42 -14t-28 -27v-238q83 -60 133 -88q12 -8 43 -39q28 -28 41 -31q41 -12 86 -12h131q19 0 37 -18zM594 989q-48 9 -107 74q-42 45 -65 92q-174 33 -225 33q-15 0 -56 8 q-52 10 -57 10q-8 0 -33.5 -5t-32.5 -5q-12 0 -32 -20q59 -257 59 -660q0 -105 14 -258q24 -249 25 -258q193 -142 246 -182q28 28 59 28l152 -6h53l-8 13q-27 261 -27 327q0 15 4 109q4 98 4 110v19l1 12q1 13 2.5 40t3.5 62t4.5 89t5.5 112q0 33 12 94q8 47 8 84 q0 33 -10 78zM342 1630q-24 -4 -39 -4q-100 0 -213 131h125q10 0 20 -3t18 -7.5t17.5 -14.5t15.5 -16t15.5 -20.5t13.5 -21t14 -23t13 -21.5zM446 1483q0 -7 -6 -35t-6 -35q-135 13 -166 21q0 18 -6 59q-1 11 -2 23t-1.5 18.5t-0.5 9.5q0 47 51 47q52 0 94 -39 q43 -40 43 -69zM219 1450q-16 16 -63 37q-42 19 -64 41q-31 27 -41 86l12 98q103 -86 117 -106q42 -48 39 -113v-43zM465 991h-70q-60 -3 -162 39q-18 7 -63 45q-14 15 -61 64h49q8 0 20 -8.5t19 -8.5q8 0 30.5 4t30.5 4q3 0 55 -10l62 -12q55 -76 90 -117zM559 831 l-39 -585v-254q0 -1 2 -11.5t4 -33t2 -51.5h-174l-104 1065q9 1 145 -15q13 -1 38 -2t38 -2q59 -3 74 -24q-3 -11 4 -44q10 -42 10 -43zM303 -96q-173 89 -182 143q-49 252 -49 696q0 235 -4 271q-5 50 -5 98q19 -19 70 -59q53 -46 64 -66q19 -26 28 -88q21 -186 27 -278 q30 -346 31 -367q3 -34 12 -129q10 -89 8 -94v-127zM41 1763l-18 -196l231 -185l-21 209zM23 1165l61 -1165l252 -145l-107 1138z" />
<glyph unicode="&#xcf;" horiz-adv-x="886" d="M733 1606q0 49 -4 77q-73 82 -166 91q-2 3 -6 10t-6 10q-13 16 -25 16q-56 0 -65 -100q-1 -25 -2 -74.5t-2 -74.5q34 -8 102 -70q65 -59 72 -59q8 0 22 9t21 9q32 0 49 20q0 10 4 76q6 53 6 60zM373 1722q0 20 -39 68q-40 53 -74 72q-21 12 -100 12q-139 0 -166 -41 q43 -78 49 -262q52 -37 94 -72q50 -41 56 -41q4 0 69 10q75 11 82 11q27 257 29 243zM752 922q0 37 -4 45q-18 15 -31 18q-4 22 -6 29q-134 87 -203 153q-94 4 -209 4q-60 0 -72 -4q-14 -6 -33.5 -15t-23.5 -11q63 -215 63 -400v-303q0 -196 5 -508q160 -166 204 -219 q28 19 74 19q29 0 72 -2q86 -4 98 -4v8q1 7 2 21t2 31.5t2 43.5t2 53q2 72 2 271zM653 1673h-14l-10 21l12 6zM676 1516l-8 -3q-8 -3 -18.5 -5.5t-16.5 -2.5q-6 57 -4 88l4 39q3 0 21.5 -4t21.5 -4v-108zM586 1630q0 -8 -0.5 -16.5t-1 -15.5t-1.5 -14t-2 -12.5t-2.5 -10.5 t-2.5 -8.5t-1.5 -6t-0.5 -3.5l-1 -1q-71 65 -71 78q0 5 6 48t6 58q56 -69 72 -96zM289 1747q-22 5 -43 2q-9 -1 -17.5 -2t-12.5 -1.5t-5 -0.5q-50 0 -125 72q2 0 17 6t26 6q64 0 102 -14q31 -10 58 -68zM315 1706q-16 -150 -16 -180q-21 -7 -47 -4q-9 1 -16.5 1t-12.5 0.5 t-8.5 0.5h-4.5h-1v174q51 -3 106 8zM168 1552q-61 14 -80.5 50t-19.5 139q0 8 14 22q89 -71 86 -114v-97zM659 981q-41 0 -86 2l-36 2t-27.5 1.5t-11.5 0.5h-33q-13 0 -80 49q-105 73 -113 78q18 0 55 6t42 6q84 0 129 -26q2 -1 161 -119zM694 936l-6 -537l-49 -626 q-141 -3 -162 0l-10 1161q182 4 227 2zM436 -213q-5 7 -78 76q-49 49 -65 82q-16 32 -19 73q-3 28 0 82q3 64 2 68v500q0 39 -16 223q-4 50 -8 94t-6 61.5t-2 18.5q0 11 67 -35q69 -42 105 -74q28 -215 20 -305v-864zM39 1819l10 -220l137 -102v223zM498 1776l-23 -181 l137 -120l-12 206zM213 1120l39 -1163l197 -213l16 1243z" />
<glyph unicode="&#xd1;" horiz-adv-x="1349" d="M1317 987q0 13 -86 84q-99 76 -101 78q31 4 41 2l23 -4q55 0 55 67v156q-193 87 -313 131q-169 67 -344 133q-4 2 -64 2q-8 0 -37 -3t-32 -3q-128 0 -279 29q-61 11 -94 31q-1 -2 -15 -16.5t-14 -20.5q0 -35 21 -146l-4 -22q93 -60 98 -62q84 -64 137 -120 q-102 -15 -164 -9q-46 -15 -67 -30l18 -539q6 -37 6 -92v-76q0 -86 17 -149q12 -47 37 -72q111 -99 116 -103q54 -45 95 -100q81 -106 100 -106q5 0 19 0.5t40.5 1.5t51.5 2q122 4 135 4q2 23 2 106q0 61 4 111q96 -90 135 -131q141 -106 180 -154q34 7 47 4q125 13 131 11 l28 -9h-1q13 0 29 29q0 32 8 76q8 47 8 57v219zM1143 1382q-8 -13 -35 -16q-40 0 -225 8q-107 3 -281 6q-4 3 -18 17q-26 2 -88 -11q0 15 -2 21q-196 137 -324 221q126 -18 149 -18q212 0 259 -8q50 -19 114 -50q24 -4 33 -4q179 -63 418 -166zM1210 1350v-164h-102 q-8 0 -47 8q-12 3 -24 5t-22.5 3t-13.5 2q-98 4 -182.5 7t-119.5 5l-35 1q-45 0 -80 2q-41 2 -86 2q-23 10 -23 71q0 45 8 66h31l6 -6q-3 -6 4 -6q5 0 5.5 6t5.5 6t14 -3t14 -3q67 0 305 -19q94 -8 342 17zM1276 977q-187 16 -209 16q-3 0 -24 -3t-29 -3q-202 0 -535 14 q-40 3 -55 15q-111 76 -293 233l14 17q18 -2 136 -2q71 3 98 -9q11 -2 53 -38q36 -31 53 -31q417 -8 414 -11q0 -1 -4 -1h100q32 -4 47 -11q40 -17 199 -145q5 -5 35 -41zM461 1395q-14 -4 -17 -37q-1 -2 -4 -55v-58q-53 42 -69 51q-53 43 -187 154q-33 22 -90 57 q13 10 10 58l-6 65zM1270 627l-21 -434q0 1 -2 -15t-7 -59t-11 -92q-113 -12 -129 -13q-16 257 -19 373q-12 12 -57 12q-12 0 -62.5 -3t-64.5 -3q-10 0 -33.5 2t-54.5 2q-143 0 -143 -32q0 -1 10 -46t10 -71q0 -60 -14 -180q-171 3 -183 6q5 45 5 86l-7 188q-6 206 -4 258 q0 5 -4 45q-6 70 -6 115q-4 30 -14 70q-10 55 -10 57v80q103 0 229 -4q40 0 119 -8q20 -2 42.5 -3.5t32.5 -2.5t13 -1q51 0 137 2q39 1 72.5 2t49.5 2t17 1q3 0 18 -6.5t21 -6.5q5 0 15.5 3t15.5 3q6 0 21.5 -13.5t17.5 -14.5v-299zM1057 356q-17 -10 -8 -47q4 -96 8 -303 q-110 86 -189 141q-52 55 -84 99q-15 10 -38 26t-31 21q0 2 -4 21.5t-4 27.5l8 14h342zM446 100q-153 164 -268 279q-23 26 -26 61q-1 25 -17 273q-3 15 -6 73q-1 15 -2 29t-1.5 21.5t-0.5 9.5v366q16 -16 162 -108q90 -61 125 -135q49 -101 34 -336v-533zM84 1663l2 -176 l367 -268l43 167zM96 1257l43 -854l346 -376l-49 964zM684 373l21 -99l366 -290l-6 389h-381z" />
<glyph unicode="&#xd2;" d="M702 1788q0 6 -3 17t-6 19l-3 9q-169 125 -211 158q-24 12 -143 12q-40 0 -92 -18q10 -173 10 -234q1 -1 15 -8.5t54 -28.5t78 -41q104 -52 119 -102q32 23 80 14q62 -9 86 4q-6 27 -6 53q0 30 10 82q12 50 12 64zM1022 1190q0 37 -170 151q-73 64 -90 66 q-191 31 -461 31q-3 0 -13 0.5t-28.5 1.5t-36.5 2t-35.5 2t-26.5 1.5t-11 0.5q-7 0 -26.5 -9.5t-27.5 -9.5q-7 0 -16 4.5t-15 9.5l-6 5l-12 -41q19 -68 19 -373v-219v-3q0 -2 0.5 -9t0.5 -15.5t1 -23t1.5 -29t1 -36.5t1.5 -42q8 -139 8 -233q0 -248 -2 -277q21 -14 121 -106 q68 -62 129 -78q98 -26 299 -29q256 -3 340 -10q2 2 9 14t11 15q0 266 8 311v400zM553 1864h-29q-12 -2 -28 -2t-72 36q-21 14 -43 28t-33.5 21.5t-15.5 10.5h39q29 3 88 -23q69 -27 94 -71zM649 1798q0 -16 -8 -62t-8 -57q0 -29 16 -45h-76q-38 23 -38 117q0 6 5 36t5 40z M500 1677h-33q-47 44 -129 74q-43 15 -43 88q0 7 6 37t6 39q24 -8 109 -62q84 -53 84 -65v-111zM924 1219q-216 14 -420 14q-7 0 -40 11.5t-40 12.5q-24 0 -57 -2q-37 -3 -60 7q-12 5 -25.5 14.5t-30.5 25.5t-27.5 26.5t-31.5 33t-28 29.5q404 -8 457 -15l32 -8h56 q31 0 51 -14q139 -97 164 -135zM969 952q0 -3 -1.5 -10t-4.5 -22.5t-5 -30.5q-8 -49 -8 -66v-667q0 -2 -0.5 -11t-1.5 -26t-2 -33q-2 -18 -3.5 -40.5t-2.5 -35.5t-2 -20l12 -13l-581 23v688l-45 535l645 -54v-217zM332 258q0 -124 -13 -238q-145 116 -200 154q17 45 14 80 q-14 175 -14 215l-6 905q74 -49 168 -162q16 -169 34 -479q17 -320 17 -475zM791 842q-5 0 -11 2h-18q-16 0 -100 20q-94 23 -97 23h-47v-303q0 -16 8 -107q11 -125 11 -145q145 -20 198 -27q9 9 21 27zM737 815q0 -189 -28 -405q-63 43 -146 155q0 21 -6 80q-1 14 -2 30 t-1.5 24.5t-0.5 11.5q0 79 10 141q4 -1 12 -4t21 -8t25 -9q32 -14 47 -14h37q16 -2 32 -2zM684 358q-1 0 -7 1.5t-19.5 4t-28.5 5.5q-33 5 -58 16v94q81 -78 113 -121zM276 1962l5 -195l256 -149l-23 203zM82 1407l14 -1245l250 -185l-35 1231zM537 866l20 -329l180 -191 l37 463z" />
<glyph unicode="&#xd3;" d="M702 1788q0 6 -3 17t-6 19l-3 9q-169 125 -211 158q-24 12 -143 12q-40 0 -92 -18q10 -173 10 -234q1 -1 15 -8.5t54 -28.5t78 -41q104 -52 119 -102q32 23 80 14q62 -9 86 4q-6 27 -6 53q0 30 10 82q12 50 12 64zM1022 1190q0 37 -170 151q-73 64 -90 66 q-191 31 -461 31q-3 0 -13 0.5t-28.5 1.5t-36.5 2t-35.5 2t-26.5 1.5t-11 0.5q-7 0 -26.5 -9.5t-27.5 -9.5q-7 0 -16 4.5t-15 9.5l-6 5l-12 -41q19 -68 19 -373v-219v-3q0 -2 0.5 -9t0.5 -15.5t1 -23t1.5 -29t1 -36.5t1.5 -42q8 -139 8 -233q0 -248 -2 -277q21 -14 121 -106 q68 -62 129 -78q98 -26 299 -29q256 -3 340 -10q2 2 9 14t11 15q0 266 8 311v400zM553 1864h-29q-12 -2 -28 -2t-72 36q-21 14 -43 28t-33.5 21.5t-15.5 10.5h39q29 3 88 -23q69 -27 94 -71zM649 1798q0 -16 -8 -62t-8 -57q0 -29 16 -45h-76q-38 23 -38 117q0 6 5 36t5 40z M500 1677h-33q-47 44 -129 74q-43 15 -43 88q0 7 6 37t6 39q24 -8 109 -62q84 -53 84 -65v-111zM924 1219q-216 14 -420 14q-7 0 -40 11.5t-40 12.5q-24 0 -57 -2q-37 -3 -60 7q-12 5 -25.5 14.5t-30.5 25.5t-27.5 26.5t-31.5 33t-28 29.5q404 -8 457 -15l32 -8h56 q31 0 51 -14q139 -97 164 -135zM969 952q0 -3 -1.5 -10t-4.5 -22.5t-5 -30.5q-8 -49 -8 -66v-667q0 -2 -0.5 -11t-1.5 -26t-2 -33q-2 -18 -3.5 -40.5t-2.5 -35.5t-2 -20l12 -13l-581 23v688l-45 535l645 -54v-217zM332 258q0 -124 -13 -238q-145 116 -200 154q17 45 14 80 q-14 175 -14 215l-6 905q74 -49 168 -162q16 -169 34 -479q17 -320 17 -475zM791 842q-5 0 -11 2h-18q-16 0 -100 20q-94 23 -97 23h-47v-303q0 -16 8 -107q11 -125 11 -145q145 -20 198 -27q9 9 21 27zM737 815q0 -189 -28 -405q-63 43 -146 155q0 21 -6 80q-1 14 -2 30 t-1.5 24.5t-0.5 11.5q0 79 10 141q4 -1 12 -4t21 -8t25 -9q32 -14 47 -14h37q16 -2 32 -2zM684 358q-1 0 -7 1.5t-19.5 4t-28.5 5.5q-33 5 -58 16v94q81 -78 113 -121zM276 1962l5 -195l256 -149l-23 203zM82 1407l14 -1245l250 -185l-35 1231zM537 866l20 -329l180 -191 l37 463z" />
<glyph unicode="&#xd6;" horiz-adv-x="901" d="M618 1489q0 11 -86 94q-98 4 -172 2l-8 -33q3 -17 10 -92q3 -5 56 -45q37 -27 43 -53q56 -9 59 -10q41 -9 49 -9q30 0 41 11q0 8 4 78q1 15 2 28.5t1.5 20.5t0.5 8zM307 1495q0 12 -49 49q-75 62 -76 64q-31 -4 -125 10q-18 -34 -18 -92q0 -73 8 -86q11 -18 86 -58 q77 -39 103 -39h47q24 132 24 152zM815 -49v864q3 108 -24 264q-28 16 -82 70q-49 46 -86 55q-52 12 -142 15q-65 3 -145 0l-76 -5q-116 0 -160 -47q30 -170 35 -260q9 -535 6 -803q18 -12 62 -53q36 -34 67 -53q56 -33 146 -33q2 0 15 0.5t41 1.5t58 2t58 2t41.5 1.5 t15.5 0.5t57 -10q50 -12 58 -12h55zM526 1524q-3 -14 -10 -21q-5 3 -16.5 8.5t-16.5 8.5q-23 13 -32 28h41q10 0 34 -24zM563 1389h-31q-19 0 -51 32l8 52h74v-84zM459 1460q-4 -2 -8 -2q-24 -10 -52 25v43q45 -39 60 -66zM207 1520l-5 -2q-4 -2 -11.5 -4.5t-14.5 -2.5 q-11 0 -39 25q-39 34 -43 35h74q27 -24 39 -51zM260 1479q-8 -36 -8 -80q-10 -10 -23 -10q-32 0 -41 30l-12 43q59 17 84 17zM145 1427q-10 4 -59 25v74q62 -27 59 -49v-50zM733 1065l-75 -1l1 -1q-216 14 -266 10q-3 0 -35.5 -6t-40.5 -6q-7 0 -49 33q-59 42 -67 47 q8 8 8 26q-1 0 2 0t11 0.5t19.5 0.5t29 0.5t37.5 1t47 1t55 0.5q123 3 198 -14q77 -50 125 -92zM778 662l-8 -672q-55 14 -192 14q-153 0 -224 8l-16 -6v1024q48 10 102 10q38 0 140 -6q92 -6 143 -6q32 -14 37 -22q18 -150 18 -344zM307 381l-5 -49l-1 -64q0 -41 4 -233 q-102 65 -115 90q-6 9 -6 92q0 32 -8 217q-6 211 -6 221v365q0 28 -14 94q46 -25 71 -41q64 -40 64 -67v-283q0 -99 16 -342zM686 737q0 27 -8 35q-46 0 -100 4q-9 1 -42.5 3t-41.5 3q-16 10 -27 -10v-485q18 -11 39 -11q13 0 41.5 4.5t30.5 4.5q80 0 92 26q-8 61 -4 154 q4 54 12 158q8 96 8 114zM633 377q-75 61 -96 82q-34 19 -39 35q-4 140 -4 168q-5 73 -5 79q144 0 144 -2v-362zM618 326q-2 0 -8 -0.5t-19 -1.5l-26 -2q-31 -2 -53 2l-6 114q49 -63 112 -112zM61 1561l2 -107l111 -68l2 95zM381 1554l-8 -77l98 -84l4 102zM133 1149 l29 -1020l157 -129l-4 1032zM668 745l-181 21l-8 -268l160 -154z" />
<glyph unicode="&#xd9;" horiz-adv-x="1153" d="M707 1704q-129 126 -222 170q-51 22 -112 35q-60 14 -86 14q-9 0 -17 -5t-10 -5q0 -53 -14 -154q-15 -105 -15 -108q0 -63 33 -80q45 -23 117 -47q69 -25 108 -49q7 -4 29 -33t29 -29t31 9.5t32 9.5q7 0 22.5 -9.5t22.5 -9.5q18 0 41 23q0 174 11 268zM1079 999 q0 16 -20 19q-8 2 -17 4.5t-13 3.5t-5 2q1 24 4 23q-9 6 -94 82q-69 61 -86 65q-222 4 -250 4v-620q0 -3 2 -37.5t2 -50.5q0 -101 -59 -101q-8 0 -12 3.5t-5 8.5l-2 5q0 32 -10 120q-8 73 -8 123q0 131 4 287q0 16 0.5 31.5t1 27t1 21.5t0.5 17t0.5 11.5t0.5 6.5v2 q-38 3 -47 12q-182 198 -219 242q-44 0 -115 14l-82 16q-8 0 -19 -5t-18 -5q-17 0 -37 -20q0 -7 5.5 -34t5.5 -32q0 -78 -4 -418q-1 -66 -2 -144t-1.5 -120.5t-0.5 -64.5q0 -88 -11 -238l-10 -113q0 -65 23 -88q234 -234 280 -284q7 0 28.5 9t28.5 9q2 0 80 -10 q77 -9 111 -12q133 -7 182 -9q138 -19 201 -30q57 -3 94 8l21 475zM596 1737q-2 -2 -10 -2q-36 0 -170 96q86 -12 180 -94zM645 1479h-65q-19 62 -19 104q0 59 29 103h55v-207zM514 1534q-90 23 -215 84q0 4 -6 31q-6 21 -6 34q0 77 30 168l197 -147v-170zM942 1024 q-62 15 -96 18q-26 8 -76 45q-15 11 -41.5 33t-32.5 27q105 3 154 -27q26 -14 92 -96zM815 991q-8 -65 -22 -198q-25 -247 -27 -304q-6 -224 -8 -233q-11 19 -78 94q-47 53 -47 94l12 115q11 118 8 240q-8 281 -8 313q37 -19 92 -51q78 -47 78 -70zM397 1081 q-14 -14 -41 -14q-52 0 -67 12q-104 91 -219 197h47q84 0 149 -59q21 -23 65 -68t66 -68zM1024 897q0 -23 -14 -184q-3 -47 -6.5 -94.5t-5 -66.5t-1.5 -22l-65 -747h-84q-8 0 -137 18q-133 19 -138 19h-98q-7 0 -46 9t-46 9h-68l-10 979q7 81 8 103q5 61 13 100q53 6 96 -10 q53 -21 47 -74l10 -737q1 -5 4 -23t5 -26t6 -19.5t10 -17.5q23 -2 198 -2l8 -5q8 -4 19 -9t19 -5q17 0 36 25q26 176 39 434q18 288 39 434q119 -12 162 -2v-86zM733 150q-48 4 -90 2q-24 -1 -45.5 -2t-31.5 -2l-11 -1q-22 22 -25 31q-16 103 -14 121v55q26 11 45 11 q56 0 103 -74l69 -101v-40zM279 178q0 -36 -23 -309q-47 41 -137 123q-115 109 -115 174q0 -1 1 12.5t3.5 46t5.5 72.5q11 165 11 201q0 4 -3.5 33.5t-3.5 39.5q0 18 2 72t3 84q6 108 6 164v199q0 6 24 141q151 -120 226 -203v-850zM293 1890l-33 -288l279 -138l12 242z M0 1288l-25 -1175l318 -297l12 1206zM621 1161l-17 -758l166 -227l78 836z" />
<glyph unicode="&#xda;" horiz-adv-x="1153" d="M707 1704q-129 126 -222 170q-51 22 -112 35q-60 14 -86 14q-9 0 -17 -5t-10 -5q0 -53 -14 -154q-15 -105 -15 -108q0 -63 33 -80q45 -23 117 -47q69 -25 108 -49q7 -4 29 -33t29 -29t31 9.5t32 9.5q7 0 22.5 -9.5t22.5 -9.5q18 0 41 23q0 174 11 268zM1079 999 q0 16 -20 19q-8 2 -17 4.5t-13 3.5t-5 2q1 24 4 23q-9 6 -94 82q-69 61 -86 65q-222 4 -250 4v-620q0 -3 2 -37.5t2 -50.5q0 -101 -59 -101q-8 0 -12 3.5t-5 8.5l-2 5q0 32 -10 120q-8 73 -8 123q0 131 4 287q0 16 0.5 31.5t1 27t1 21.5t0.5 17t0.5 11.5t0.5 6.5v2 q-38 3 -47 12q-182 198 -219 242q-44 0 -115 14l-82 16q-8 0 -19 -5t-18 -5q-17 0 -37 -20q0 -7 5.5 -34t5.5 -32q0 -78 -4 -418q-1 -66 -2 -144t-1.5 -120.5t-0.5 -64.5q0 -88 -11 -238l-10 -113q0 -65 23 -88q234 -234 280 -284q7 0 28.5 9t28.5 9q2 0 80 -10 q77 -9 111 -12q133 -7 182 -9q138 -19 201 -30q57 -3 94 8l21 475zM596 1737q-2 -2 -10 -2q-36 0 -170 96q86 -12 180 -94zM645 1479h-65q-19 62 -19 104q0 59 29 103h55v-207zM514 1534q-90 23 -215 84q0 4 -6 31q-6 21 -6 34q0 77 30 168l197 -147v-170zM942 1024 q-62 15 -96 18q-26 8 -76 45q-15 11 -41.5 33t-32.5 27q105 3 154 -27q26 -14 92 -96zM815 991q-8 -65 -22 -198q-25 -247 -27 -304q-6 -224 -8 -233q-11 19 -78 94q-47 53 -47 94l12 115q11 118 8 240q-8 281 -8 313q37 -19 92 -51q78 -47 78 -70zM397 1081 q-14 -14 -41 -14q-52 0 -67 12q-104 91 -219 197h47q84 0 149 -59q21 -23 65 -68t66 -68zM1024 897q0 -23 -14 -184q-3 -47 -6.5 -94.5t-5 -66.5t-1.5 -22l-65 -747h-84q-8 0 -137 18q-133 19 -138 19h-98q-7 0 -46 9t-46 9h-68l-10 979q7 81 8 103q5 61 13 100q53 6 96 -10 q53 -21 47 -74l10 -737q1 -5 4 -23t5 -26t6 -19.5t10 -17.5q23 -2 198 -2l8 -5q8 -4 19 -9t19 -5q17 0 36 25q26 176 39 434q18 288 39 434q119 -12 162 -2v-86zM733 150q-48 4 -90 2q-24 -1 -45.5 -2t-31.5 -2l-11 -1q-22 22 -25 31q-16 103 -14 121v55q26 11 45 11 q56 0 103 -74l69 -101v-40zM279 178q0 -36 -23 -309q-47 41 -137 123q-115 109 -115 174q0 -1 1 12.5t3.5 46t5.5 72.5q11 165 11 201q0 4 -3.5 33.5t-3.5 39.5q0 18 2 72t3 84q6 108 6 164v199q0 6 24 141q151 -120 226 -203v-850zM293 1890l-33 -288l279 -138l12 242z M0 1288l-25 -1175l318 -297l12 1206zM621 1161l-17 -758l166 -227l78 836z" />
<glyph unicode="&#xdc;" horiz-adv-x="1032" d="M725 1395q0 76 -25 121q-20 36 -63 73q-39 39 -53 39q-127 0 -127 -2v-37q0 -9 6 -82q4 -29 7 -64.5t3 -37.5q117 -105 139 -105q7 0 11.5 7.5t11.5 7.5q51 0 82 -8q8 33 8 88zM360 1434q0 4 -6 15t-6 21q0 22 8 46q-70 89 -172 163h-37q-43 0 -75 7l-17 -19l23 -20 q-5 -2 -11.5 -5.5t-10.5 -6t-7 -3.5q-2 -16 -2 -63q0 -3 0.5 -9.5t1.5 -20t2 -26.5q6 -53 6 -73q25 -10 107 -64q59 -41 65 -41l50 6q35 3 73 -4q8 31 8 97zM981 905q0 10 -86 99q-80 86 -92 90q-105 24 -266 30q12 -319 -2 -600q-6 -8 -11 -18q-14 6 -32 12q0 115 2 217 q3 135 0 211q0 21 -70 88q-71 71 -88 74q-131 25 -191 25q-14 0 -30 -19l49 -715v-225q0 -16 63 -88q65 -71 78 -74q89 -24 162 -24h477zM645 1513q-2 0 -18.5 -5t-24.5 -5q-23 0 -45 31q-9 14 -35 49h56q40 -46 67 -70zM688 1343q-24 9 -72 9q0 66 -6 106q39 17 43 17 q18 0 35 -17v-115zM580 1372q-33 26 -70 53q-6 101 -8 107q40 -26 78 -74v-86zM901 938q-23 0 -76 -6q-15 -1 -28.5 -2t-19.5 -1.5t-7 -0.5q-21 0 -145 151h45q61 3 114 -32q42 -24 117 -109zM295 1522q0 -11 -19 -11q-48 0 -102 48q-15 14 -45 41t-45 40q70 -4 84 -2 q65 -21 127 -116zM317 1380h-86q-10 50 -14 101q46 9 92 0q-2 -9 8 -101zM193 1409q-58 42 -101 68v100q76 -54 90 -82q6 -9 6 -37v-12q0 -12 5 -37zM768 315q-72 69 -143 113q-42 27 -54 43q-6 15 -6 86l5 94q1 29 1 60q2 76 2 293q0 40 -6 61l201 -182v-568zM420 973h-76 q-16 -3 -135 98q4 0 26 5t27 5q33 0 81 -31.5t77 -76.5zM930 319q0 -3 -12 -120q-11 -143 -11 -174h-440q2 0 -8.5 2.5t-36.5 7.5t-60 12l-43 895q16 0 41 -3t27 -3q5 0 10 7t13 7q5 0 19.5 -4t19.5 -4q12 -126 12 -352l-19 -328q15 -18 21 -18q20 0 45 2q10 1 21 2t17 1.5 t9 0.5q2 0 102 -19q94 -18 103 -18h51v692h119v-586zM776 260q-57 -15 -158 10q-22 3 -52.5 7.5t-51 7t-35.5 4.5q3 25 6 88q8 82 9 92q43 -16 137 -92q37 -30 74.5 -60.5t52.5 -42.5t18 -14zM315 53q-5 5 -20.5 21t-22 23t-19 21t-18.5 22.5t-13 20.5t-10 22t-3 20l-51 678 v186q18 -10 71 -47q47 -30 56 -66q24 -88 24 -430v-184v-2v-6v-11t0.5 -16t0.5 -20.5t0.5 -25.5t0.5 -30q4 -152 4 -176zM72 1614l-2 -154l139 -94v133q-137 110 -137 115zM477 1579l15 -160l110 -92v152zM137 1098l27 -924l176 -174l-27 961zM557 1106l-8 -623l246 -202 l-9 614z" />
<glyph unicode="&#xe0;" horiz-adv-x="1447" d="M879 1862q0 49 -64 110q-70 64 -221 111q-133 43 -238 43q-8 0 -15.5 -2.5t-12.5 -5.5l-4 -2q-3 -12 -5 -35q-1 -15 -2 -53.5t-2 -57.5q-4 -136 -4 -260q11 -8 174 -65q162 -58 195 -58q8 0 39 11t35 10q56 -9 94 2l17 136t11 89.5t3 26.5zM1327 -305v104q0 22 -20 189 q-5 47 -10 95.5t-7 67t-2 21.5l-20 1026q-105 50 -191 113q-11 7 -88 71q-58 49 -74 54q-130 43 -315 43q-12 0 -61 -6q-13 -1 -26.5 -2t-21.5 -2t-10 -1q-3 0 -21.5 2t-60 6.5t-82.5 8.5q-67 6 -147.5 13.5t-95.5 8.5v-34q19 -29 22 -70q3 -27 0 -86q-1 -19 -2 -41.5 t-1.5 -34.5t-0.5 -18v-955q0 -12 -18 -123q-17 -114 -21 -149q77 -62 180.5 -146t110.5 -90q62 -47 76 -47q4 0 21 -0.5t52.5 -1.5t73.5 -2q39 -1 75 -2t53 -1.5t20 -0.5q45 0 45 43q0 3 -2 10.5t-6.5 26t-8.5 35.5q-16 66 -16 84q39 -23 160 -123q103 -86 112 -86h131h197z M721 1970q-59 -6 -139 27q-13 6 -55.5 26.5t-65.5 30.5q21 -5 63.5 -16.5t63.5 -16.5q87 -21 133 -51zM819 1823q0 -79 -33 -174q-41 13 -94 10q-15 136 6 268q77 -21 90 -29q31 -22 31 -75zM649 1915q-12 -158 -2 -246h-90q-37 -3 -184 72q9 255 16 276q58 -23 144.5 -57 t115.5 -45zM1049 1262q-21 0 -197 4q-24 1 -46 1.5t-36.5 1t-26 1t-17.5 0.5h-5q-2 0 -84 10q-54 7 -100 12q-49 46 -205 133q443 0 555 -41q74 -48 110 -84q8 -6 26 -18.5t26 -19.5zM1278 -254h-188q-18 335 -68 483q-41 4 -117 -4q-43 -3 -131 6l-98 11q-35 0 -35 -49 q0 -4 25 -187q24 -176 24 -186v-45q-138 -15 -258 0q-10 78 -10 194v267q0 36 8 221q3 60 5.5 116t3.5 80t1 27q0 9 8.5 40.5t8.5 35.5q1 12 2 36t2 37q0 154 -2 232q9 188 51 188q14 0 72 -6q17 -1 34.5 -2t26.5 -1.5t12 -0.5q148 0 439 -33q45 -7 125 -49l10 -749z M455 1286q-35 -173 -41 -301q-2 -17 4 -111q4 -95 -4 -178q-9 -107 -16.5 -199.5t-11 -130t-3.5 -38.5q0 -60 4 -178q6 -95 6 -115q0 -86 -35 -232q-151 119 -243 205q-2 14 -2 55q0 3 12 218q11 171 16 325q9 231 6 240q-8 63 -8 155q0 80 8 216q10 148 7 221 q32 -15 91.5 -41t82.5 -37q87 -43 127 -74zM1038 -176q0 -8 -6 -40.5t-6 -39.5q-161 119 -324 252q0 15 -6 67q-6 44 -6 56v53q6 0 36 5t40 5q8 0 24.5 -10t24.5 -10t35.5 10t36.5 10h100q51 -302 51 -358zM958 866q-3 64 -49 64q-24 0 -67 -2q-19 -1 -56.5 -2t-54.5 -2 q-56 0 -110 4v-504q1 -2 7.5 -12t12.5 -15.5t14 -5.5h80q4 0 82 -10q63 -8 82 -8q31 0 47 22q-13 183 -4 291q1 6 2 23.5t3 38.5t5 43q6 64 6 75zM887 481q-63 43 -189 125q-28 22 -28 119l4 70q3 61 -2 84h215v-398zM840 440q-111 10 -148 2q-13 64 -20 129 q119 -98 168 -131zM350 2075l-4 -338l313 -125l39 315zM123 1479l-41 -1479l297 -238l108 1522zM895 444l23 457l-259 12l-10 -292zM666 203l45 -256l350 -223l-74 458z" />
<glyph unicode="&#xe1;" horiz-adv-x="1447" d="M879 1862q0 49 -64 110q-70 64 -221 111q-133 43 -238 43q-8 0 -15.5 -2.5t-12.5 -5.5l-4 -2q-3 -12 -5 -35q-1 -15 -2 -53.5t-2 -57.5q-4 -136 -4 -260q11 -8 174 -65q162 -58 195 -58q8 0 39 11t35 10q56 -9 94 2l17 136t11 89.5t3 26.5zM1327 -305v104q0 22 -20 189 q-5 47 -10 95.5t-7 67t-2 21.5l-20 1026q-105 50 -191 113q-11 7 -88 71q-58 49 -74 54q-130 43 -315 43q-12 0 -61 -6q-13 -1 -26.5 -2t-21.5 -2t-10 -1q-3 0 -21.5 2t-60 6.5t-82.5 8.5q-67 6 -147.5 13.5t-95.5 8.5v-34q19 -29 22 -70q3 -27 0 -86q-1 -19 -2 -41.5 t-1.5 -34.5t-0.5 -18v-955q0 -12 -18 -123q-17 -114 -21 -149q77 -62 180.5 -146t110.5 -90q62 -47 76 -47q4 0 21 -0.5t52.5 -1.5t73.5 -2q39 -1 75 -2t53 -1.5t20 -0.5q45 0 45 43q0 3 -2 10.5t-6.5 26t-8.5 35.5q-16 66 -16 84q39 -23 160 -123q103 -86 112 -86h131h197z M721 1970q-59 -6 -139 27q-13 6 -55.5 26.5t-65.5 30.5q21 -5 63.5 -16.5t63.5 -16.5q87 -21 133 -51zM819 1823q0 -79 -33 -174q-41 13 -94 10q-15 136 6 268q77 -21 90 -29q31 -22 31 -75zM649 1915q-12 -158 -2 -246h-90q-37 -3 -184 72q9 255 16 276q58 -23 144.5 -57 t115.5 -45zM1049 1262q-21 0 -197 4q-24 1 -46 1.5t-36.5 1t-26 1t-17.5 0.5h-5q-2 0 -84 10q-54 7 -100 12q-49 46 -205 133q443 0 555 -41q74 -48 110 -84q8 -6 26 -18.5t26 -19.5zM1278 -254h-188q-18 335 -68 483q-41 4 -117 -4q-43 -3 -131 6l-98 11q-35 0 -35 -49 q0 -4 25 -187q24 -176 24 -186v-45q-138 -15 -258 0q-10 78 -10 194v267q0 36 8 221q3 60 5.5 116t3.5 80t1 27q0 9 8.5 40.5t8.5 35.5q1 12 2 36t2 37q0 154 -2 232q9 188 51 188q14 0 72 -6q17 -1 34.5 -2t26.5 -1.5t12 -0.5q148 0 439 -33q45 -7 125 -49l10 -749z M455 1286q-35 -173 -41 -301q-2 -17 4 -111q4 -95 -4 -178q-9 -107 -16.5 -199.5t-11 -130t-3.5 -38.5q0 -60 4 -178q6 -95 6 -115q0 -86 -35 -232q-151 119 -243 205q-2 14 -2 55q0 3 12 218q11 171 16 325q9 231 6 240q-8 63 -8 155q0 80 8 216q10 148 7 221 q32 -15 91.5 -41t82.5 -37q87 -43 127 -74zM1038 -176q0 -8 -6 -40.5t-6 -39.5q-161 119 -324 252q0 15 -6 67q-6 44 -6 56v53q6 0 36 5t40 5q8 0 24.5 -10t24.5 -10t35.5 10t36.5 10h100q51 -302 51 -358zM958 866q-3 64 -49 64q-24 0 -67 -2q-19 -1 -56.5 -2t-54.5 -2 q-56 0 -110 4v-504q1 -2 7.5 -12t12.5 -15.5t14 -5.5h80q4 0 82 -10q63 -8 82 -8q31 0 47 22q-13 183 -4 291q1 6 2 23.5t3 38.5t5 43q6 64 6 75zM887 481q-63 43 -189 125q-28 22 -28 119l4 70q3 61 -2 84h215v-398zM840 440q-111 10 -148 2q-13 64 -20 129 q119 -98 168 -131zM350 2075l-4 -338l313 -125l39 315zM123 1479l-41 -1479l297 -238l108 1522zM895 444l23 457l-259 12l-10 -292zM666 203l45 -256l350 -223l-74 458z" />
</font>
</defs>
</svg>
